<?xml version="1.0" encoding="utf-8"?>
<!-- Generator: Adobe Illustrator 26.1.0, SVG Export Plug-In . SVG Version: 6.00 Build 0)  -->
<svg version="1.1" id="Layer_1" xmlns="http://www.w3.org/2000/svg" xmlns:xlink="http://www.w3.org/1999/xlink" x="0px" y="0px"
	 viewBox="0 0 649 408" style="enable-background:new 0 0 649 408;" xml:space="preserve">
<style type="text/css">
	.st0{clip-path:url(#SVGID_00000057867068996433153790000006724345447597536944_);}
	.st1{fill:#292841;}
	.st2{fill:#C4C4C4;filter:url(#Adobe_OpacityMaskFilter);}
	.st3{mask:url(#mask0_00000147933771165628934910000008744598584625017731_);}
	.st4{fill:#CFDEFF;}
	.st5{fill:#B8C5FF;}
	.st6{fill:#5697B0;}
	.st7{fill:#FFFFFF;}
	.st8{fill:#7CE4CC;}
	.st9{fill:#AAFAE7;}
	.st10{opacity:0.74;fill:url(#SVGID_00000097481560013520779650000016127769496022833801_);enable-background:new    ;}
	.st11{fill:#2C4661;}
	.st12{fill:#738EFF;}
	.st13{opacity:0.41;fill:#284E7A;enable-background:new    ;}
	.st14{fill:#61C7C7;}
	.st15{fill:#21354A;}
	.st16{fill:#D4FFDC;}
	.st17{fill:#335A70;}
	.st18{fill:#B2A6FF;}
	.st19{fill:#C4C4C4;filter:url(#Adobe_OpacityMaskFilter_00000152262789835872607330000014808995875670828702_);}
	.st20{mask:url(#mask1_00000170974254975609137330000006946519352727317147_);}
	.st21{fill:#FF82A6;}
	.st22{fill:url(#SVGID_00000135656994645589148660000009080333831648311702_);}
	.st23{fill:url(#SVGID_00000024706902202794964060000005457397498450023862_);}
	.st24{fill:#6B3143;}
	.st25{fill:#EF6270;}
	.st26{fill:#BD3C53;}
	.st27{fill:#FFB685;}
	.st28{fill:#543247;}
	.st29{fill:#C74153;}
	.st30{fill:#A82C3C;}
	.st31{fill:#5E2737;}
	.st32{fill:#C4C4C4;filter:url(#Adobe_OpacityMaskFilter_00000016777325425192641740000008771722903648706433_);}
	.st33{mask:url(#mask2_00000002365089134804413370000005332984661530763406_);}
	.st34{fill:#FFB869;}
	.st35{fill:#4D7AE8;}
	.st36{fill:#DBE7FF;}
	.st37{fill:#201E2F;}
	.st38{fill:#590942;}
	.st39{fill:#B5CDFF;}
	.st40{fill:#EF6767;}
	.st41{fill:#3366E0;}
	.st42{fill:#C4C4C4;filter:url(#Adobe_OpacityMaskFilter_00000007404454788399876310000016498846236254120604_);}
	.st43{mask:url(#mask3_00000137097345838609246150000004916772503105982595_);}
	.st44{fill:#F7E5BC;}
	.st45{fill:#D6569B;}
	.st46{fill:#E374B0;}
	.st47{fill:#1F3A70;}
	.st48{fill:#F06EA8;}
	.st49{fill:#E05FA3;}
	.st50{fill:#1B1926;}
	.st51{fill:#751B40;}
	.st52{fill:#9C2455;}
	.st53{fill:#B9BBBE;}
	.st54{fill-rule:evenodd;clip-rule:evenodd;fill:#B9BBBE;}
	.st55{fill:#DCDDDE;}
	.st56{fill:#C4C4C4;filter:url(#Adobe_OpacityMaskFilter_00000061458748224536277970000009985710605480888205_);}
	.st57{mask:url(#mask4_00000026126789674270558280000007030254990008375731_);}
	.st58{fill:#628BF7;}
	.st59{fill:#33BEB5;}
	.st60{fill:#33A2BE;}
	.st61{fill:#F7D197;}
	.st62{fill:#242236;}
	.st63{fill:#9E4B34;}
	.st64{fill:#7A2F28;}
	.st65{fill:#1E6470;}
	.st66{fill:#66251F;}
	.st67{fill:#5E221D;}
	.st68{fill:#D6DFFF;}
	.st69{fill:#CAD5FC;}
	.st70{fill:#DE5D70;}
	.st71{fill:#FF9CCD;}
	.st72{fill:#FFEBF5;}
	.st73{fill:#FF70B7;}
	.st74{fill:#A8C3FF;}
	.st75{fill:#C27059;}
	.st76{fill:none;stroke:#29C566;stroke-width:2;}
	.st77{fill:none;stroke:#000000;}
	.st78{fill:#1C1B29;}
	.st79{fill:#43B581;}
	.st80{fill:#6ADBC6;}
	.st81{fill:#6B392B;}
	.st82{fill:#542518;}
	.st83{fill:#6E2B17;}
	.st84{fill:#783522;}
	.st85{fill:#E66CA5;}
	.st86{fill:#F085B7;}
	.st87{fill:#FFABBB;}
	.st88{fill:#244AB0;}
	.st89{fill:#203D87;}
	.st90{fill:#1A3578;}
	.st91{fill:#30868C;}
	.st92{fill:#2B7585;}
	.st93{fill:#3D1A10;}
	.st94{fill:#542113;}
	.st95{fill:#FFA3B5;}
	.st96{fill:#FF85AB;}
	.st97{fill:#F2C591;}
	.st98{fill:#172E5C;}
	.st99{fill:#D4BF9B;}
	.st100{fill:#CCAC89;}
	.st101{fill:#DE5D98;}
	.st102{fill:#914343;}
	.st103{fill:#AD482C;}
	.st104{fill:#EB9151;}
	.st105{fill:#133DBD;}
	.st106{fill:#90423B;}
	.st107{fill:#3EE8DD;}
	.st108{fill:#1E397D;}
	.st109{fill:#152D69;}
	.st110{fill:#37CFC5;}
	.st111{fill:#2B98B3;}
	.st112{fill:#319BB5;}
	.st113{fill:#B83D50;}
	.st114{fill:#BA4E5D;}
	.st115{fill:#D65A6B;}
	.st116{fill:#AD4452;}
	.st117{fill:#AD3B4B;}
	.st118{fill:#872C39;}
	.st119{fill:#FF8FB1;}
	.st120{fill:#F57FB5;}
	.st121{fill:#1E1C2B;}
	.st122{fill:#C45F3D;}
	.st123{fill:#179DE0;}
	.st124{fill:#C7D3FC;}
	.st125{fill:#A25751;}
	.st126{fill:#1A3E9C;}
	.st127{fill:#913945;}
	.st128{fill:#1A40A1;}
	.st129{fill:none;stroke:#BA4173;stroke-width:2;stroke-linecap:round;stroke-miterlimit:10;}
	.st130{fill:#F071AB;}
	.st131{fill:#FFA1BD;}
	.st132{fill:#FAD596;}
	.st133{fill:#F7D08D;}
	.st134{fill:#F278B0;}
	.st135{fill:#F073AB;}
	.st136{fill:#13121C;}
	.st137{fill:#DB704C;}
	.st138{fill:#173275;}
	.st139{fill:#91423B;}
	.st140{fill:#F7E9CB;}
	.st141{fill:#DB7B47;}
	.st142{fill:#C2612C;}
	.st143{fill:#FFAE82;}
	.st144{fill:#1A606E;}
	.st145{fill:#216C7A;}
	.st146{fill:#2A858C;}
	.st147{fill:#F77C7C;}
	.st148{fill:#FF9191;}
</style>
<g>
	<defs>
		<rect id="SVGID_1_" y="-32" width="678" height="440"/>
	</defs>
	<clipPath id="SVGID_00000089559391647959723950000003210102152599352230_">
		<use xlink:href="#SVGID_1_"  style="overflow:visible;"/>
	</clipPath>
	<g style="clip-path:url(#SVGID_00000089559391647959723950000003210102152599352230_);">
		<path class="st1" d="M260,31h381c4.4,0,8,3.6,8,8v312c0,4.4-3.6,8-8,8H260c-4.4,0-8-3.6-8-8V39C252,34.6,255.6,31,260,31z"/>
		<defs>
			<filter id="Adobe_OpacityMaskFilter" filterUnits="userSpaceOnUse" x="365" y="260" width="32.8" height="47.3">
				<feColorMatrix  type="matrix" values="1 0 0 0 0  0 1 0 0 0  0 0 1 0 0  0 0 0 1 0"/>
			</filter>
		</defs>
		
			<mask maskUnits="userSpaceOnUse" x="365" y="260" width="32.8" height="47.3" id="mask0_00000147933771165628934910000008744598584625017731_">
			<circle class="st2" cx="379" cy="274" r="14"/>
		</mask>
		<g class="st3">
			<circle class="st4" cx="379" cy="274" r="14"/>
			<path class="st4" d="M394.6,292.8c-0.3-0.7-0.7-1.2-1.3-1.7c-0.6-0.4-1.2-0.7-1.9-0.8l-1.5-0.2c-2.1-7.6-1-9.3-7.3-11l-5-0.2
				c0,0-5.1,0.1-7,2.6l2.6,8.6c0,0-1.1,5.7-0.6,8.6l6.6-0.8l2.8,9.2c10.7-1.6,15.7-6.6,15.7-6.6L394.6,292.8z"/>
			<path class="st5" d="M371.8,279.7c7.1,6.7,13.6,11.3,12.5,0.7L371.8,279.7z"/>
			<path class="st6" d="M375.4,280.5c6.2,2.9,7.8,4,7.4,0.5L375.4,280.5z"/>
			<path class="st7" d="M388.8,285.4c-0.8-3.2-1.3-4.6-4.5-5.7c0.9,2,1.2,6.1,1.2,6.1L388.8,285.4z"/>
			<path class="st8" d="M378.2,270l-0.2-1.8c-0.1-0.6-0.3-1.1-0.7-1.5c-0.4-0.4-0.9-0.7-1.5-0.8c-0.6-0.1-1.3,0-1.8,0.3
				c-0.6,0.3-1,0.8-1.2,1.4c-0.8,2.2-2.1,5.7-2.9,8.6c-1.4,4.7,4.8,5.8,11,5.3c6.1-0.5,6.7-3.1,5.8-7c-0.5-2.4-1.2-4.9-1.7-6.4
				c-0.1-0.4-0.4-0.8-0.7-1.1c-0.3-0.3-0.8-0.5-1.2-0.5c-0.5-0.1-1,0.1-1.4,0.3c-0.4,0.3-0.8,0.7-0.9,1.1l-0.7,1.8L378.2,270z"/>
			<path class="st9" d="M385.7,276.4l-0.4-0.2l-2.2,0.8l-2.3,0.3l-3.9-0.8c0,0-2.2-3.3-2,0.4c0.1,2.6,1.2,4,1.9,4.7
				c1.3,0.1,2.6,0,3.9-0.1c1-0.1,2-0.2,2.9-0.5C384.3,280.1,385.4,278.4,385.7,276.4z"/>
			
				<linearGradient id="SVGID_00000103980493020222540600000000201227197493929649_" gradientUnits="userSpaceOnUse" x1="369.1816" y1="99.4028" x2="373.7746" y2="101.1448" gradientTransform="matrix(1 0 0 -1 0 376)">
				<stop  offset="0" style="stop-color:#61C7C7"/>
				<stop  offset="1" style="stop-color:#54B9C7"/>
			</linearGradient>
			
				<path style="opacity:0.74;fill:url(#SVGID_00000103980493020222540600000000201227197493929649_);enable-background:new    ;" d="
				M374.8,276.6c-0.5-1.4-1.4-4.4-1-6.6c0.4-2.2,0.9-4.1,1.9-4.1c-0.6-0.1-1.3,0-1.8,0.3c-0.6,0.3-1,0.8-1.2,1.4
				c-0.8,2.2-2.1,5.7-2.9,8.6c-1.2,4.2,3.6,5.5,9,5.4C377.6,281.4,376.1,280.2,374.8,276.6z"/>
			<path class="st9" d="M378.8,281.6l-0.4,0l-0.4,0l-0.6,0l-0.2,0l-0.3,0c-0.7-0.7-1.7-2.1-1.9-4.7c0,0,0-0.1,0-0.1
				C376.2,280.2,377.6,281.4,378.8,281.6z"/>
			<path class="st11" d="M385.2,276l0,0.5c-2.4,1.6-2.8,2-8.9,0.1l-0.1-0.5l0.3,0.1C381.7,277.5,382.7,277.6,385.2,276z"/>
			<path class="st12" d="M375.8,278c0.8-0.2,1.2-1.1,1-2c-0.3-0.9-1.1-1.4-1.9-1.2s-1.2,1.1-1,2C374.2,277.7,375,278.2,375.8,278z"
				/>
			<path class="st12" d="M386.3,276.1c0.2-0.8-0.1-1.5-0.5-1.6c-0.4-0.1-0.9,0.5-1.1,1.2c-0.2,0.8,0.1,1.5,0.5,1.6
				C385.7,277.5,386.2,276.9,386.3,276.1z"/>
			<path class="st13" d="M380.3,274.6c-0.1-0.2,0.1-0.3,0.2-0.4c0.1,0,0.1,0,0.2,0c0.1,0,0.1,0.1,0.2,0.1l0.6,0.8
				c0.2,0.2-0.1,0.2-0.3,0.1C380.9,275.1,380.4,274.9,380.3,274.6z"/>
			<path class="st13" d="M382.9,275l0.2-0.4c0-0.1,0-0.1,0-0.2c0-0.1,0-0.1-0.1-0.2l-0.1-0.1c0,0,0,0,0,0c0,0,0,0,0,0c0,0,0,0,0,0
				c0,0,0,0,0,0c-0.1,0.3-0.2,0.6-0.3,0.9C382.5,275.3,382.7,275.3,382.9,275z"/>
			<path class="st14" d="M380.3,270.1l-2.2-0.2l1.7-0.2l0.7-1.8c0.2-0.5,0.5-0.9,0.9-1.1c0.4-0.3,0.9-0.4,1.4-0.3l0.4,0.1
				c-1-0.2-1.4,1-1.6,2.5C381.7,269.8,381.7,270.2,380.3,270.1z"/>
			<path class="st15" d="M384.4,269.8c0-0.6-0.4-1-0.8-1c-0.5,0-0.8,0.4-0.8,1c0,0.6,0.4,1,0.8,1C384,270.8,384.4,270.3,384.4,269.8
				z"/>
			<path class="st15" d="M376.7,269.5c0.1-0.6-0.3-1-0.7-1.1c-0.5,0-0.9,0.4-0.9,0.9c-0.1,0.6,0.3,1,0.7,1.1
				C376.3,270.4,376.7,270,376.7,269.5z"/>
			<path class="st7" d="M373.3,290.3c0.9,0,2.2-0.1,3.2-0.1c0-0.4,0-0.9,0.1-1.3c0.2-0.7,0.4-1.4,0.8-2c-0.9-0.1-1.9-0.1-2.8-0.2
				c-0.2-4.2-2.4-6.5-3.6-5.4c-0.6,0.6-0.9,1.3-1,2.1c0,0.6,0,1.7,0,1.9c-0.1,0.8-0.7,1,0,2.4C370.3,288.5,369.7,290.2,373.3,290.3z
				"/>
			<path class="st16" d="M376.2,266c0.9,0.6,1.1,1.9,1.2,2.4s0.2,1.5,0.2,1.8c0,0.2,0.1,0.3,0.9,0.7c0.8,0.4,0.5,0,0.1-0.4l-0.5-0.6
				l-0.2-1.8c-0.1-0.5-0.3-0.9-0.6-1.3C377.1,266.5,376.7,266.2,376.2,266z"/>
			<path class="st17" d="M383.9,269.1c0.3,0.1,0.4,0.8,0.1,0.6C383.7,269.4,383.5,269,383.9,269.1z"/>
			<path class="st17" d="M376.3,268.7c0.3,0.1,0.4,0.9,0.1,0.6C376.1,269,375.9,268.6,376.3,268.7z"/>
			<path class="st18" d="M376.3,277c0.3-0.2,0.3-0.7,0.1-1.2c-0.3-0.5-0.7-0.8-1-0.6c-0.3,0.2-0.3,0.7-0.1,1.2
				C375.5,276.9,376,277.2,376.3,277z"/>
			<path class="st18" d="M386.3,275.5c0-0.4-0.1-0.7-0.3-0.7c-0.2,0-0.3,0.3-0.3,0.7c0,0.4,0.1,0.7,0.3,0.7
				C386.2,276.2,386.3,275.9,386.3,275.5z"/>
			<path class="st16" d="M384,267.2c0.5,0.4,0.6,1.1,0.1,0.6C383.6,267.3,383.4,266.8,384,267.2z"/>
		</g>
		<defs>
			
				<filter id="Adobe_OpacityMaskFilter_00000159444865878911005970000004367294097569289107_" filterUnits="userSpaceOnUse" x="328.2" y="259.7" width="30" height="36.7">
				<feColorMatrix  type="matrix" values="1 0 0 0 0  0 1 0 0 0  0 0 1 0 0  0 0 0 1 0"/>
			</filter>
		</defs>
		
			<mask maskUnits="userSpaceOnUse" x="328.2" y="259.7" width="30" height="36.7" id="mask1_00000170974254975609137330000006946519352727317147_">
			
				<circle style="fill:#C4C4C4;filter:url(#Adobe_OpacityMaskFilter_00000159444865878911005970000004367294097569289107_);" cx="343" cy="274" r="14"/>
		</mask>
		<g class="st20">
			<circle class="st21" cx="343" cy="274" r="14"/>
			
				<linearGradient id="SVGID_00000170257711428552440370000006701301102900106423_" gradientUnits="userSpaceOnUse" x1="339.0046" y1="113.2136" x2="340.2446" y2="98.6876" gradientTransform="matrix(1 0 0 -1 0 376)">
				<stop  offset="0" style="stop-color:#FFC285"/>
				<stop  offset="1" style="stop-color:#DB8D6B"/>
			</linearGradient>
			<path style="fill:url(#SVGID_00000170257711428552440370000006701301102900106423_);" d="M350.9,263.3l0,0.1l-0.1,0.3l0,0.1
				l-0.1,0.2c-2.1,4.9-6.1,8.5-8.8,11c-2.8,2.6-5.9,4.7-9.2,6.5c-3.3,1.6-4.8,0.2-4.4-2.5l0.3-1.4l1.6-6.8l0.1-0.3
				c1.1-4.5,2.8-7,8.3-8.4l8.4-2.1l0,0C349.9,259.2,352,260.2,350.9,263.3z"/>
			
				<linearGradient id="SVGID_00000142880517373603834600000010667507772558008752_" gradientUnits="userSpaceOnUse" x1="326.7954" y1="98.3421" x2="352.9767" y2="111.1663" gradientTransform="matrix(1 0 0 -1 0 376)">
				<stop  offset="0" style="stop-color:#D67569"/>
				<stop  offset="1" style="stop-color:#E39E7F"/>
			</linearGradient>
			<path style="fill:url(#SVGID_00000142880517373603834600000010667507772558008752_);" d="M350,260c-2.7,0.4-7.7,3.7-12.6,8.4
				c-5,4.7-8.7,9.9-9.1,12.5c0.5,1.4,1.9,1.8,4.3,0.6c3.4-1.7,6.5-3.9,9.2-6.5c2.7-2.5,6.7-6.1,8.8-11l0.1-0.2l0-0.1l0.1-0.3l0-0.1
				C351.6,261.5,351.1,260.4,350,260z"/>
			<path class="st24" d="M342.1,273.2c4.8-4.6,8-9,7.1-9.9c-0.9-0.9-5.5,2-10.3,6.6c-4.8,4.6-8,9-7.1,9.9
				C332.7,280.7,337.3,277.8,342.1,273.2z"/>
			<path class="st25" d="M341.1,281.1l-1.3,0.9c-0.3,0.2-0.6,0.5-0.8,0.8c-0.2,0.3-0.3,0.7-0.3,1l-0.2,1.7l-2.2,2.1
				c-0.5,0.5-0.7,1.1-0.8,1.7l0,1.6c0,0,12.3,6.5,18.8,5.4c6.6-1.2,2.6-12.5,2.6-12.5c-0.1-0.1-0.1-0.2-0.3-0.3
				c-0.1-0.1-0.2-0.1-0.4-0.1l-2-0.1l-0.8-2c-0.1-0.2-0.2-0.4-0.4-0.5c-0.2-0.1-0.3-0.2-0.5-0.3l-5.8-1.2L341.1,281.1z"/>
			<path class="st26" d="M341.4,284.6c-1.8-0.3-1.6-0.3-1.1-1.1c0.3-0.5,0.7-0.9,1.2-1.2L341.4,284.6z"/>
			<path class="st27" d="M344.1,268.3c-0.2-0.2-2,1-3.9,2.9c-2,1.8-3.4,3.5-3.2,3.7c2.4,3.6,3.9,7,4.4,9.7l9.6,1.9
				C350.5,277.9,346.5,272.1,344.1,268.3z"/>
			<path class="st28" d="M347.7,275.9c-0.1-0.3-0.3-0.5-0.5-0.4c-0.2,0.1-0.3,0.3-0.2,0.6c0.1,0.3,0.3,0.5,0.5,0.4
				S347.8,276.2,347.7,275.9z"/>
			<path class="st28" d="M344.6,277.7c0.1-0.2,0-0.6-0.2-0.7c-0.3-0.2-0.6-0.2-0.8,0c-0.2,0.2,0,0.6,0.2,0.7
				C344.1,277.9,344.4,277.9,344.6,277.7z"/>
			<path class="st29" d="M346.6,280.6c0.8-0.4,1.5-0.8,1.9-0.7c0.3,0.1,0.2,0.7-0.2,1.5c-0.4,0.7-0.3,0.4-1.1,0.2
				C346.2,281.3,345.9,280.9,346.6,280.6z"/>
			<path class="st30" d="M346.9,280.5l-0.6,0.4c0,0.3,0.4,0.5,0.8,0.6c0.5,0.1,1,0.2,1.1-0.2l0.2-0.3
				C348.2,280.8,347.6,280.4,346.9,280.5z"/>
			<path class="st7" d="M348.1,279.9c-0.5,0.2-1.1,0.4-1.6,0.7c-0.3,0.2-0.3,0.4-0.2,0.5l1.8-0.8
				C348.3,280.3,348.2,280.1,348.1,279.9z"/>
			<path class="st24" d="M350.4,277.4c0,0,0-0.1,0-0.1c0-0.3-0.1-0.5-0.3-0.7c-0.2-0.2-0.4-0.3-0.7-0.4c0.1,0.1,0.1,0.1,0.1,0.2
				c0,0.1,0,0.2,0,0.3c0,0.1,0,0.2-0.1,0.2c0,0.1-0.1,0.1-0.2,0.2c-0.3,0.1-0.5,0.2-0.8,0.2c-0.4,0-0.8,0.2-1.1,0.4
				c-0.3,0.2-0.6,0.5-0.8,0.8c-1.4-0.1-1.8,0.8-2.8,1.3c-0.3,0.1-0.5,0.2-0.8,0.3c-0.9,0.2-1.1-0.2-1.1-0.7c-1,0.8-0.4,2,0.4,2.3
				c0.5,0.2,1.1,0.1,1.8-0.4c1.7,0.4,2.2,0.2,3.2-1.4c1.6,0.4,2.6-0.2,2.7-1.7c0.1-0.1,0.2-0.2,0.3-0.3
				C350.4,277.7,350.4,277.6,350.4,277.4z"/>
			<path class="st31" d="M347.3,279.8c1.6,0.4,2.6-0.2,2.7-1.7c0.1-0.1,0.2-0.2,0.3-0.3c0.1-0.1,0.1-0.3,0.2-0.4c0,0,0-0.1,0-0.1
				c0-0.1-0.1-0.3-0.1-0.4c0,0.2,0,0.4-0.2,0.6c-0.1,0.2-0.3,0.3-0.5,0.3c-0.5,1.1-1.4,1.3-2.5,1c0,0-1.2,1.7-3,1.3
				c-1.2,1-2.5,0.9-2.8-0.1c0,0.3,0.1,0.6,0.2,0.9c0.2,0.3,0.4,0.5,0.7,0.6c0.5,0.2,1.1,0.1,1.8-0.4
				C345.7,281.6,346.3,281.4,347.3,279.8z"/>
		</g>
		<defs>
			
				<filter id="Adobe_OpacityMaskFilter_00000133528256006718222250000003273144292998543747_" filterUnits="userSpaceOnUse" x="325.6" y="172" width="31.4" height="36">
				<feColorMatrix  type="matrix" values="1 0 0 0 0  0 1 0 0 0  0 0 1 0 0  0 0 0 1 0"/>
			</filter>
		</defs>
		
			<mask maskUnits="userSpaceOnUse" x="325.6" y="172" width="31.4" height="36" id="mask2_00000002365089134804413370000005332984661530763406_">
			
				<circle style="fill:#C4C4C4;filter:url(#Adobe_OpacityMaskFilter_00000133528256006718222250000003273144292998543747_);" cx="343" cy="186" r="14"/>
		</mask>
		<g class="st33">
			<circle class="st34" cx="343" cy="186" r="14"/>
			<path class="st35" d="M335.8,190.6c1.6,5.7,8.2,9.6,13.5,5.9c5.3-3.7,0-11.3,0-11.3s2.9-7.2-4.3-8.9
				C337.9,174.5,336.1,177.6,335.8,190.6z"/>
			<path class="st36" d="M346.4,186.4c-0.8,0-1.4-0.9-1.4-1.9c0-1.1,0.6-1.9,1.4-1.9c0.8,0,1.4,0.9,1.4,1.9
				C347.9,185.5,347.2,186.4,346.4,186.4z"/>
			<path class="st37" d="M347.1,185.9c-0.2,0-0.3-0.3-0.3-0.7c0-0.4,0.2-0.7,0.4-0.7c0.2,0,0.3,0.3,0.3,0.7
				C347.4,185.7,347.3,186,347.1,185.9z"/>
			<path class="st37" d="M348.1,180.9c-0.1-0.3-0.3-0.5-0.5-0.7c-0.2-0.2-0.5-0.3-0.8-0.3c-0.3,0-0.6,0.1-0.8,0.3
				c-0.2,0.2-0.4,0.4-0.5,0.7H348.1z"/>
			<path class="st38" d="M348,189.1c-1.4,0.4-2.9,0-4.2-1.3c-0.2-0.2-0.4-0.3-0.6-0.3c-0.2,0-0.5,0.1-0.7,0.2
				c-0.2,0.1-0.4,0.4-0.4,0.6c0,0.3,0,0.5,0.1,0.7c1.9,3.2,4.9,3.6,6.8,1.9c0.1-0.1,0.2-0.3,0.3-0.4c0.1-0.2,0.1-0.3,0-0.5
				c0-0.1-0.1-0.3-0.2-0.4c-0.1-0.1-0.2-0.2-0.3-0.3s-0.3-0.1-0.4-0.1S348.1,189,348,189.1z"/>
			<path class="st36" d="M346.9,189.2c0.4,0,0.7,0,1.1-0.1h0.3v0.9c0,0-0.6,0.4-2.6,0.2v-0.5l-3.6-1.2c0-0.2,0-0.3,0.1-0.4
				c0.1-0.1,0.2-0.3,0.3-0.3c0,0,0,0,0,0c0,0,0,0,0,0c0.2-0.1,0.3-0.2,0.5-0.1c0,0,0.1,0,0.1,0h0.3c0,0,0.1,0,0.1,0.1s0.1,0,0.1,0
				l0.1,0.1c0.2,0.3,0.5,0.5,0.7,0.7l0.5,0.3c0.2,0.1,0.5,0.3,0.8,0.3C346.2,189.2,346.5,189.2,346.9,189.2z"/>
			<path class="st39" d="M342.4,187.6C342.4,187.6,342.4,187.6,342.4,187.6C342.4,187.6,342.5,187.6,342.4,187.6
				c0.2-0.1,0.4-0.2,0.6-0.2c0,0,0.1,0,0.1,0h0.3c0,0,0.1,0,0.1,0.1c0,0,0.1,0,0.1,0l0.1,0.1c0.1,0.2,0.3,0.3,0.4,0.4l-1,0.6
				l-1.1-0.4c0-0.1,0.1-0.3,0.1-0.4C342.2,187.8,342.3,187.7,342.4,187.6z"/>
			<path class="st37" d="M337.3,178.8c1.3-3,3.7-3.6,7.7-2.6c0.8,0.2,1.6,0.5,2.3,0.9c0.2,1.2-1.6,1.6-5,0.5
				C343.5,179.6,341.2,183.2,337.3,178.8z"/>
			<path class="st37" d="M342,176.1l0.2-2.5c0-0.2,0-0.4-0.1-0.7c-0.1-0.2-0.2-0.4-0.4-0.6c-0.2-0.2-0.3-0.3-0.6-0.4
				c-0.2-0.1-0.4-0.1-0.7-0.1c-0.3,0-0.5,0.1-0.7,0.2c-0.2,0.1-0.4,0.3-0.5,0.5c-0.1,0.2-0.2,0.5-0.2,0.7c0,0.3,0,0.5,0.1,0.7
				l1.1,2.5L342,176.1z"/>
			<path class="st40" d="M332.4,189.2l1.1,0.4l2.3-1.5v1.9l1.9,1.5c0.4,0.3,0.7,0.7,1,1.2c0.2,0.5,0.4,1,0.4,1.5l0.1,1.5
				c2.8,2.3,6.7,3.1,10.1,0.7c0.5-0.4,1-0.8,1.4-1.3l1.2,0.4c0,0-2.3,9.8-6.2,11.6c-3.9,1.8-6.6,0-6.6,0c-4.1-13.9-2.9-16.5-13-12.5
				l-0.5-2.8L332.4,189.2z"/>
			<path class="st35" d="M340.5,184.8l-7.4-6.9l-0.7,0.9l5.7,10.6L340.5,184.8z"/>
			<path class="st41" d="M337.8,183.3l-2.9-2l2.2,4l-0.4-1.6L337.8,183.3z"/>
		</g>
		<defs>
			
				<filter id="Adobe_OpacityMaskFilter_00000132799617917464477200000000323025722224944049_" filterUnits="userSpaceOnUse" x="328" y="96.7" width="30.1" height="35">
				<feColorMatrix  type="matrix" values="1 0 0 0 0  0 1 0 0 0  0 0 1 0 0  0 0 0 1 0"/>
			</filter>
		</defs>
		
			<mask maskUnits="userSpaceOnUse" x="328" y="96.7" width="30.1" height="35" id="mask3_00000137097345838609246150000004916772503105982595_">
			
				<circle style="fill:#C4C4C4;filter:url(#Adobe_OpacityMaskFilter_00000132799617917464477200000000323025722224944049_);" cx="342" cy="114" r="14"/>
		</mask>
		<g class="st43">
			<circle class="st44" cx="342" cy="114" r="14"/>
			<path class="st44" d="M358.1,122.8l-1.9,4.4c-0.1,0.3-0.4,0.7-0.6,0.9c-0.3,0.3-0.6,0.5-0.9,0.6c-0.4,0.1-0.7,0.2-1.1,0.2
				c-0.4,0-0.7-0.1-1.1-0.3l-7.1-3.2l3.5-5.6l4.3,2.4l0.6-1.9C356.1,121.2,357.3,122,358.1,122.8z"/>
			<path class="st44" d="M349.8,120.6c2.9,0.5,3.1,1.1,3.9,2.6l-3.1-0.3L349.8,120.6z"/>
			<path class="st45" d="M336.4,96.9c-0.6,0.2-1,0.6-1.3,1.1c-0.3,0.5-0.4,1.1-0.2,1.7l2.8,11.6l5.1-1.1l-3.4-11.8
				c-0.1-0.3-0.2-0.6-0.4-0.8c-0.2-0.2-0.4-0.4-0.7-0.6c-0.3-0.1-0.6-0.2-0.9-0.3C337,96.7,336.7,96.8,336.4,96.9z"/>
			<path class="st46" d="M339.2,108.5l2-0.1l-2.1-7c0-0.1-0.1-0.2-0.1-0.3c-0.1-0.1-0.2-0.1-0.2-0.2c-0.1,0-0.2-0.1-0.3-0.1
				c-0.1,0-0.2,0-0.3,0c-0.2,0.1-0.3,0.2-0.4,0.4c-0.1,0.2-0.1,0.4-0.1,0.5L339.2,108.5z"/>
			<path class="st45" d="M348.2,96.8c0.6,0.2,1.1,0.6,1.4,1.1c0.3,0.5,0.4,1.1,0.3,1.7l-2.7,11.6l-5.1-1l3.3-11.8
				c0.1-0.3,0.2-0.6,0.4-0.8c0.2-0.2,0.4-0.4,0.7-0.6c0.3-0.1,0.6-0.2,0.9-0.3C347.5,96.7,347.9,96.7,348.2,96.8z"/>
			<path class="st46" d="M346.2,108.5l-2-0.1l2.1-7c0-0.1,0.1-0.2,0.1-0.3c0.1-0.1,0.2-0.1,0.2-0.2c0.1,0,0.2-0.1,0.3-0.1
				c0.1,0,0.2,0,0.3,0.1c0.2,0.1,0.3,0.2,0.4,0.3c0.1,0.2,0.1,0.3,0.1,0.5L346.2,108.5z"/>
			<path class="st44" d="M351.9,125.5l-0.8,2.6l-0.1,0.3l-1,3.2h-19.1c-0.2-0.7,0-0.8,0.5-1.6c0.5-0.8,0.2-0.6,0.3-2.5
				c0.1-1.3,0.5-2.6,2.3-4.2c0.5-0.5,0.7-0.6,1.2-1.1l0.2-0.2l0.1-0.1l0.1-0.1l13.1-2.1l2.6,4.4L351.9,125.5z"/>
			<path class="st47" d="M351.1,128.1c-0.1,1.3-0.2,2.5-0.3,3.6h-14c0-0.6,0-1.3,0.1-2.1c0-0.1,0-0.2,0-0.3v-1.1
				c-0.1-2.5-0.8-4.3-2.8-4.8c0.4-0.4,0.8-0.8,1.2-1.1l0.2-0.2l0.2-0.2l13.1-2.1c1,0.4,1.7,0.6,2.5,1.4c0.1,1,0.1,2,0.1,2.9
				C351.2,125.6,351.2,126.9,351.1,128.1z"/>
			<path class="st48" d="M349.8,114.4l-15.2,0.6c-2,0.1-3.5,1.8-3.5,3.8v0c0.1,2,1.8,3.5,3.8,3.5l15.2-0.6c2-0.1,3.5-1.8,3.5-3.8
				l0,0C353.5,115.8,351.8,114.3,349.8,114.4z"/>
			<path class="st48" d="M349.1,107.6l-14.7,0.6c-2.1,0.1-3.7,1.9-3.7,4l0,0.1c0.1,2.1,1.9,3.7,4,3.7l14.7-0.6
				c2.1-0.1,3.7-1.9,3.7-4l0-0.1C352.9,109.2,351.2,107.5,349.1,107.6z"/>
			<path class="st49" d="M350.1,121.5c1.9-0.1,3.5-1.7,3.5-3.6c0-0.7-0.2-1.4-0.6-2c-0.4-0.6-0.9-1.1-1.6-1.3
				c0.5-0.4,0.9-0.9,1.1-1.4c0.3-0.6,0.4-1.2,0.4-1.8v-0.1c0-0.5-0.1-1-0.4-1.4c-0.2-0.5-0.5-0.9-0.9-1.2c-0.4-0.3-0.8-0.6-1.3-0.8
				c-0.5-0.2-1-0.2-1.5-0.2l-13.1,0.6c-1.2,2.3-1,4.7-0.1,6.4c0.1,0.3,0.2,0.6,0.2,0.8c0,0.3,0,0.6-0.1,0.9
				c-1.3,3.4,0.4,5.8,0.4,5.8L350.1,121.5z"/>
			<path class="st50" d="M339.5,114.6c0.3-0.2,0.4-0.8,0-1.3c-0.3-0.5-0.8-0.7-1.2-0.5c-0.3,0.2-0.4,0.8,0,1.3
				C338.6,114.7,339.1,114.9,339.5,114.6z"/>
			<path class="st50" d="M346.1,113.6c0.1-0.5,0-1-0.4-1.1c-0.4-0.1-0.8,0.2-0.9,0.8c-0.1,0.5,0,1,0.4,1.1
				C345.5,114.5,345.9,114.1,346.1,113.6z"/>
			<path class="st51" d="M340.9,116.3c0.9,1.6,2.3,1.9,3.2-0.1c0,0,0,0,0-0.1c0,0,0,0,0-0.1c0,0,0,0,0,0c0,0,0,0-0.1,0l-3,0.1
				c0,0,0,0-0.1,0c0,0,0,0,0,0C340.9,116.2,340.9,116.2,340.9,116.3C340.9,116.3,340.9,116.3,340.9,116.3z"/>
			<path class="st52" d="M342.8,116.1l-1.7,0c0,0,0,0-0.1,0c0,0,0,0,0,0c0,0,0,0,0,0.1c0,0,0,0,0,0.1c0.8,1.3,1.9,1.8,2.8,0.6
				C343.5,116.6,343.2,116.3,342.8,116.1z"/>
		</g>
		<path class="st7" d="M333.4,66.1c0-0.9-0.7-1.5-1.6-1.5c-0.9,0-1.6,0.6-1.6,1.5c0,0.9,0.7,1.5,1.6,1.5
			C332.7,67.6,333.4,67,333.4,66.1z M333.1,80.8V69.4h-2.6v11.2c0,0.9-0.4,1.3-1.2,1.3c-0.3,0-0.6,0-0.9-0.1l0.4,2.2
			c0.2,0.1,0.6,0.1,1,0.1C331.8,84,333.1,83.1,333.1,80.8z M335.9,69.4V77c0,2,1,3.2,3,3.2c1.4,0,2.6-0.8,3.5-1.7l0.2,1.5h2.2V69.4
			h-2.6v7.2c-0.8,0.8-1.6,1.3-2.4,1.3c-1,0-1.4-0.6-1.4-1.5v-7H335.9z M355.5,76.9c0-2-1.1-2.8-3.8-3.5c-1.6-0.4-2-0.7-2-1.3
			c0-0.6,0.5-1,1.5-1c1.1,0,2.3,0.4,3.4,1l0.4-2.2c-1.1-0.5-2.3-0.7-3.7-0.7c-2.5,0-3.9,1.3-3.9,3.1c0,1.9,1.1,2.7,3.7,3.3
			c1.7,0.4,2.2,0.7,2.2,1.5c0,0.7-0.6,1.1-1.8,1.1c-1.3,0-2.7-0.5-3.9-1.3l-0.4,2.2c1,0.6,2.6,1,4.1,1C354,80.2,355.5,79,355.5,76.9
			z M363.3,80l-0.3-2.2c-0.2,0.1-0.5,0.1-0.8,0.1c-1,0-1.4-0.5-1.4-1.3v-5h2.5l-0.3-2.2h-2.2v-3.8l-2.6,0.4v3.4h-1.5v2.2h1.5V77
			c0,2.4,1.4,3.2,3.5,3.2C362.4,80.2,362.8,80.1,363.3,80z M370.4,74.9v-2.6h-5.7v2.6H370.4z M380.7,79.2l-0.4-2.3
			c-1,0.7-1.9,1-2.8,1c-1.5,0-2.8-1.1-2.8-3.3c0-2.1,1.1-3.2,2.7-3.2c1.1,0,1.9,0.4,2.8,1l0.4-2.4c-0.8-0.5-1.9-0.9-3.3-0.9
			c-2.9,0-5.2,1.9-5.2,5.6c0,3.5,2.1,5.5,5,5.5C378.6,80.2,379.7,79.9,380.7,79.2z M391.9,80v-7.7c0-2-1.1-3.2-3-3.2
			c-1.4,0-2.5,0.7-3.4,1.6v-6.6l-2.6,0.4V80h2.6v-7.2c0.8-0.8,1.6-1.3,2.4-1.3c1,0,1.4,0.6,1.4,1.6v7H391.9z M397.6,66.1
			c0-0.9-0.7-1.5-1.6-1.5c-0.9,0-1.6,0.6-1.6,1.5c0,0.9,0.7,1.5,1.6,1.5C396.9,67.6,397.6,67,397.6,66.1z M397.3,80V69.4h-2.6V80
			H397.3z M402.9,80V64.1l-2.6,0.4V80H402.9z M408.4,80V64.1l-2.6,0.4V80H408.4z M414.2,66.1c0-0.9-0.7-1.5-1.6-1.5
			c-0.9,0-1.6,0.6-1.6,1.5c0,0.9,0.7,1.5,1.6,1.5C413.5,67.6,414.2,67,414.2,66.1z M413.9,80V69.4h-2.6V80H413.9z M425.8,80v-7.7
			c0-2-1.1-3.2-3-3.2c-1.4,0-2.6,0.8-3.5,1.7l-0.2-1.5h-2.2V80h2.6v-7.2c0.8-0.8,1.6-1.3,2.4-1.3c1,0,1.4,0.6,1.4,1.6v7H425.8z"/>
		<path class="st53" d="M332.5,234.8c0-2.3,1-3.5,2.4-3.5c0.9,0,1.4,0.2,2.1,0.5v4.6c-0.7,0.9-1.5,1.5-2.4,1.5
			C333.3,237.9,332.5,236.9,332.5,234.8z M329.8,235c0,3.6,1.8,5.2,4,5.2c1.5,0,2.5-0.8,3.3-1.7l0.2,1.5h2.3v-15.9l-2.6,0.4v5.1
			c-0.6-0.2-1.5-0.4-2.5-0.4C332,229.3,329.8,231,329.8,235z M351.3,240v-7.7c0-2-1.1-3.2-3-3.2c-1.4,0-2.6,0.8-3.5,1.7l-0.2-1.5
			h-2.2V240h2.6v-7.2c0.8-0.8,1.6-1.3,2.4-1.3c1,0,1.4,0.6,1.4,1.6v7H351.3z M356.1,234.8c0-2.3,1-3.5,2.4-3.5
			c0.9,0,1.4,0.2,2.1,0.5v4.6c-0.7,0.9-1.5,1.5-2.4,1.5C356.9,237.9,356.1,236.9,356.1,234.8z M353.4,235c0,3.6,1.8,5.2,4,5.2
			c1.5,0,2.5-0.8,3.3-1.7l0.2,1.5h2.3v-15.9l-2.6,0.4v5.1c-0.6-0.2-1.5-0.4-2.5-0.4C355.6,229.3,353.4,231,353.4,235z M371.3,234.9
			v-2.6h-5.7v2.6H371.3z M382.7,240v-7.7c0-2-1.1-3.2-3-3.2c-1.4,0-2.6,0.8-3.5,1.7l-0.2-1.5h-2.2V240h2.6v-7.2
			c0.8-0.8,1.6-1.3,2.4-1.3c1,0,1.4,0.6,1.4,1.6v7H382.7z M388.4,226.1c0-0.9-0.7-1.5-1.6-1.5c-0.9,0-1.6,0.6-1.6,1.5
			c0,0.9,0.7,1.5,1.6,1.5C387.7,227.6,388.4,227,388.4,226.1z M388.1,240v-10.6h-2.6V240H388.1z M396.6,232.8c0,1.2-0.7,2-1.9,2
			c-1.1,0-1.8-0.8-1.8-1.9c0-1.2,0.7-2.1,1.8-2.1C395.9,230.8,396.6,231.7,396.6,232.8z M400.4,240.4c0-1.6-1.4-2.3-3.5-2.6
			l-1.4-0.1c-1.6-0.2-2-0.3-2-0.7c0-0.2,0.2-0.4,0.4-0.6c0.3,0,0.6,0.1,0.9,0.1c2.3,0,4.2-1.4,4.2-3.7c0-0.5-0.1-1-0.3-1.4l1.9-0.1
			l-0.4-2.1l-2.6,0.9c-0.8-0.6-1.8-1-3-1c-2.4,0-4.3,1.4-4.3,3.8c0,1.4,0.7,2.5,2,3.1c-0.9,0.5-1.3,1.1-1.3,1.7
			c0,0.4,0.2,0.8,0.6,1.1c-1.3,0.7-2,1.5-2,2.5c0,1.8,2.2,2.6,5.1,2.6C397.9,244,400.4,242.7,400.4,240.4z M395,242.4
			c-2,0-2.9-0.6-2.9-1.4c0-0.5,0.4-1.1,1.1-1.6c0.5,0.1,0.9,0.2,1.6,0.3l1.4,0.2c1.3,0.2,1.8,0.5,1.8,1.1
			C398,241.8,396.9,242.4,395,242.4z M411.4,240v-7.7c0-2-1.1-3.2-3-3.2c-1.4,0-2.5,0.7-3.4,1.6v-6.6l-2.6,0.4V240h2.6v-7.2
			c0.8-0.8,1.6-1.3,2.4-1.3c1,0,1.4,0.6,1.4,1.6v7H411.4z M419.7,240l-0.3-2.2c-0.2,0.1-0.5,0.1-0.8,0.1c-1,0-1.4-0.5-1.4-1.3v-5
			h2.5l-0.3-2.2h-2.2v-3.8l-2.6,0.4v3.4h-1.5v2.2h1.5v5.5c0,2.4,1.4,3.2,3.5,3.2C418.8,240.2,419.3,240.1,419.7,240z"/>
		<path class="st53" d="M338.2,320.9c0-2-1.1-2.8-3.8-3.5c-1.6-0.4-2-0.7-2-1.3c0-0.6,0.5-1,1.5-1c1.1,0,2.3,0.4,3.4,1l0.4-2.2
			c-1.1-0.5-2.3-0.7-3.7-0.7c-2.5,0-3.9,1.3-3.9,3.1c0,1.9,1.1,2.7,3.7,3.3c1.7,0.4,2.2,0.7,2.2,1.5c0,0.7-0.6,1.1-1.8,1.1
			c-1.3,0-2.7-0.5-3.9-1.3l-0.4,2.2c1,0.5,2.6,1,4.1,1C336.7,324.2,338.2,323,338.2,320.9z M346,324l-0.3-2.2
			c-0.2,0.1-0.5,0.1-0.8,0.1c-1,0-1.4-0.5-1.4-1.3v-5h2.5l-0.3-2.2h-2.2v-3.8l-2.6,0.4v3.4h-1.5v2.2h1.5v5.5c0,2.4,1.4,3.2,3.5,3.2
			C345.1,324.2,345.6,324.1,346,324z M347.9,313.4v7.6c0,2,1,3.2,3,3.2c1.4,0,2.6-0.8,3.5-1.7l0.2,1.5h2.2v-10.6h-2.6v7.2
			c-0.8,0.8-1.6,1.3-2.4,1.3c-1,0-1.4-0.6-1.4-1.5v-7H347.9z M361.8,318.8c0-2.3,1-3.5,2.4-3.5c0.9,0,1.4,0.2,2.1,0.5v4.6
			c-0.7,0.9-1.5,1.5-2.4,1.5C362.7,321.9,361.8,320.9,361.8,318.8z M359.1,319c0,3.6,1.8,5.2,4,5.2c1.5,0,2.5-0.8,3.3-1.7l0.2,1.5
			h2.3v-15.9l-2.6,0.4v5.1c-0.6-0.2-1.5-0.4-2.5-0.4C361.3,313.3,359.1,315,359.1,319z M372.7,328c1.9,0,3.1-0.8,4-3.3l4.1-11.3
			h-2.7l-2.4,7.5l-2.4-7.6l-2.8,0.4l3.9,10.4l-0.1,0.3c-0.4,1.1-1.1,1.5-1.9,1.5c-0.5,0-0.8-0.1-1.2-0.2l0.4,2.2
			C371.9,328,372.1,328,372.7,328z M387.6,318.9v-2.6h-5.7v2.6H387.6z M396.4,315.8l-0.4-2.6c-1.6,0.1-2.7,1.1-3.4,2.4l-0.3-2.1H390
			V324h2.6v-6.1C393.4,316.8,394.8,315.9,396.4,315.8z M407.3,318.7c0-3.5-2.1-5.5-5-5.5c-2.9,0-5,2.1-5,5.5s2.1,5.5,5,5.5
			C405.1,324.2,407.3,322.1,407.3,318.7z M404.7,318.7c0,2-0.8,3.4-2.5,3.4c-1.5,0-2.4-1.4-2.4-3.4s0.8-3.4,2.4-3.4
			C403.8,315.3,404.7,316.7,404.7,318.7z M418.9,318.7c0-3.5-2.1-5.5-5-5.5c-2.9,0-5,2.1-5,5.5s2.1,5.5,5,5.5
			C416.7,324.2,418.9,322.1,418.9,318.7z M416.3,318.7c0,2-0.8,3.4-2.5,3.4c-1.5,0-2.4-1.4-2.4-3.4s0.8-3.4,2.4-3.4
			C415.4,315.3,416.3,316.7,416.3,318.7z M436.3,324v-7.7c0-2-1-3.2-3-3.2c-1.4,0-2.6,0.8-3.5,1.7c-0.4-1-1.2-1.7-2.7-1.7
			c-1.4,0-2.5,0.8-3.5,1.7l-0.2-1.5H421V324h2.6v-7.2c0.8-0.8,1.5-1.3,2.4-1.3c1,0,1.3,0.6,1.3,1.6v7h2.6v-7.2
			c0.8-0.8,1.5-1.3,2.4-1.3c1,0,1.3,0.6,1.3,1.6v7H436.3z"/>
		<path class="st54" d="M305.2,61.8c-0.5-0.2-1-0.1-1.4,0.3l-5.4,5.9h-3.8c-0.7,0-1.2,0.6-1.2,1.2v7.5c0,0.7,0.6,1.2,1.2,1.2h3.8
			l5.4,5.9c0.4,0.4,0.9,0.5,1.4,0.3c0.5-0.2,0.8-0.6,0.8-1.2V63C306,62.5,305.7,62,305.2,61.8z M308.5,64.3v2.5
			c3.4,0,6.2,2.8,6.2,6.2c0,3.4-2.8,6.2-6.2,6.2v2.5c4.8,0,8.8-3.9,8.8-8.8C317.2,68.2,313.3,64.3,308.5,64.3z M308.5,69.3
			c2.1,0,3.8,1.7,3.8,3.8c0,2.1-1.7,3.8-3.8,3.8v-2.5c0.7,0,1.2-0.6,1.2-1.2c0-0.7-0.6-1.2-1.2-1.2V69.3z"/>
		<path class="st54" d="M305.2,221.8c-0.5-0.2-1-0.1-1.4,0.3l-5.4,5.9h-3.8c-0.7,0-1.2,0.6-1.2,1.2v7.5c0,0.7,0.6,1.2,1.2,1.2h3.8
			l5.4,5.9c0.4,0.4,0.9,0.5,1.4,0.3c0.5-0.2,0.8-0.6,0.8-1.2v-20C306,222.5,305.7,222,305.2,221.8z M308.5,224.3v2.5
			c3.4,0,6.2,2.8,6.2,6.2c0,3.4-2.8,6.2-6.2,6.2v2.5c4.8,0,8.8-3.9,8.8-8.8C317.2,228.2,313.3,224.3,308.5,224.3z M308.5,229.3
			c2.1,0,3.8,1.7,3.8,3.8c0,2.1-1.7,3.8-3.8,3.8v-2.5c0.7,0,1.2-0.6,1.2-1.2c0-0.7-0.6-1.2-1.2-1.2V229.3z"/>
		<path class="st54" d="M305.2,305.8c-0.5-0.2-1-0.1-1.4,0.3l-5.4,5.9h-3.8c-0.7,0-1.2,0.6-1.2,1.2v7.5c0,0.7,0.6,1.2,1.2,1.2h3.8
			l5.4,5.9c0.4,0.4,0.9,0.5,1.4,0.3c0.5-0.2,0.8-0.6,0.8-1.2v-20C306,306.5,305.7,306,305.2,305.8z M308.5,308.3v2.5
			c3.4,0,6.2,2.8,6.2,6.2c0,3.4-2.8,6.2-6.2,6.2v2.5c4.8,0,8.8-3.9,8.8-8.8C317.2,312.2,313.3,308.3,308.5,308.3z M308.5,313.3
			c2.1,0,3.8,1.7,3.8,3.8c0,2.1-1.7,3.8-3.8,3.8v-2.5c0.7,0,1.2-0.6,1.2-1.2c0-0.7-0.6-1.2-1.2-1.2V313.3z"/>
		<path class="st55" d="M366.2,120h2.1v-4.1h0.9c2.5,0,4.2-1.2,4.2-3.6c0-2.2-1.5-3.4-4-3.4h-3.2V120z M371.4,112.4
			c0,1.3-0.8,1.8-2.2,1.8h-0.9v-3.6h1C370.6,110.7,371.4,111.2,371.4,112.4z M377.5,113.4c0.9,0,1.4,0.7,1.5,1.9H376
			C376.1,114.1,376.8,113.4,377.5,113.4z M380.9,119.2l-0.2-1.5c-0.8,0.6-1.7,1-2.7,1c-1.2,0-2-0.7-2.1-2.2h5c0-0.1,0-0.3,0-0.5
			c0-2.2-1-3.9-3.4-3.9c-2,0-3.5,1.5-3.5,4c0,2.8,1.6,4,3.8,4C379.1,120.2,380.1,119.8,380.9,119.2z M387.6,116
			c0,1.7-0.8,2.5-1.7,2.5c-0.7,0-1-0.1-1.5-0.3v-3.3c0.5-0.7,1.1-1.1,1.7-1.1C387,113.8,387.6,114.5,387.6,116z M389.6,115.9
			c0-2.6-1.3-3.8-2.9-3.8c-1.1,0-1.8,0.6-2.4,1.2l-0.2-1.1h-1.6V123l1.9-0.3v-2.9c0.5,0.2,1.1,0.3,1.8,0.3
			C388,120.1,389.6,118.8,389.6,115.9z M396.3,116c0,1.7-0.8,2.5-1.7,2.5c-0.7,0-1-0.1-1.5-0.3v-3.3c0.5-0.7,1.1-1.1,1.7-1.1
			C395.7,113.8,396.3,114.5,396.3,116z M398.2,115.9c0-2.6-1.3-3.8-2.9-3.8c-1.1,0-1.8,0.6-2.4,1.2l-0.2-1.1h-1.6V123l1.9-0.3v-2.9
			c0.5,0.2,1.1,0.3,1.8,0.3C396.6,120.1,398.2,118.8,398.2,115.9z M402.9,113.4c0.9,0,1.4,0.7,1.5,1.9h-3.1
			C401.5,114.1,402.1,113.4,402.9,113.4z M406.3,119.2l-0.2-1.5c-0.8,0.6-1.7,1-2.7,1c-1.2,0-2-0.7-2.1-2.2h5c0-0.1,0-0.3,0-0.5
			c0-2.2-1-3.9-3.4-3.9c-2,0-3.5,1.5-3.5,4c0,2.8,1.6,4,3.8,4C404.4,120.2,405.4,119.8,406.3,119.2z"/>
		<path class="st53" d="M584.7,113H583c0,1.2,0.3,2.3,0.9,3.3l1.2-1.2C584.9,114.4,584.7,113.7,584.7,113z"/>
		<path class="st53" d="M587,113.1C587,113.1,587,113.1,587,113.1l6-5.9V107c0-1.7-1.3-3-3-3s-3,1.3-3,3L587,113.1
			C587,113,587,113.1,587,113.1z"/>
		<path class="st53" d="M589.7,118.1l-0.8,0.8l-0.7,0.7c0.2,0.1,0.5,0.1,0.7,0.2v4.3h2v-4.3c3.3-0.5,6-3.3,6-6.7h-1.7
			c0,3-2.5,5.1-5.3,5.1C589.9,118.1,589.8,118.1,589.7,118.1z"/>
		<path class="st53" d="M599,106.3l-1.3-1.3L581,121.7l1.3,1.3l4.2-4.2l1.2-1.2l1.7-1.7l3.6-3.6L599,106.3z"/>
		<path class="st53" d="M584.7,185H583c0,1.2,0.3,2.3,0.9,3.3l1.2-1.2C584.9,186.4,584.7,185.7,584.7,185z"/>
		<path class="st53" d="M587,185.1C587,185.1,587,185.1,587,185.1l6-5.9V179c0-1.7-1.3-3-3-3s-3,1.3-3,3L587,185.1
			C587,185,587,185.1,587,185.1z"/>
		<path class="st53" d="M589.7,190.1l-0.8,0.8l-0.7,0.7c0.2,0.1,0.5,0.1,0.7,0.2v4.3h2v-4.3c3.3-0.5,6-3.3,6-6.7h-1.7
			c0,3-2.5,5.1-5.3,5.1C589.9,190.1,589.8,190.1,589.7,190.1z"/>
		<path class="st53" d="M599,178.3l-1.3-1.3L581,193.7l1.3,1.3l4.2-4.2l1.2-1.2l1.7-1.7l3.6-3.6L599,178.3z"/>
		<path class="st55" d="M375,191.1v-5.3h-4.4l0.3,1.7h2.2v2.4c-0.5,0.3-1.1,0.4-1.9,0.4c-2.2,0-3.3-1.6-3.3-3.9
			c0-2.4,1.1-3.9,3.2-3.9c1.2,0,2.2,0.4,3,1l0.3-2c-0.9-0.5-2-0.9-3.4-0.9c-3.4,0-5.4,2.3-5.4,5.7c0,3.4,1.9,5.7,5.4,5.7
			C372.6,192.2,374,191.8,375,191.1z M381.7,186l-0.3-1.9c-1.2,0.1-2,0.8-2.5,1.7l-0.2-1.6H377v7.7h1.9v-4.4
			C379.5,186.7,380.5,186.1,381.7,186z M386.8,189.9c-0.5,0.5-1.2,0.8-1.8,0.8c-0.6,0-0.9-0.3-0.9-0.9c0-0.7,0.5-1.4,2.8-1.7V189.9z
			 M388.7,192v-5.3c0-1.9-1-2.6-3-2.6c-1.2,0-2.2,0.3-3.1,0.6l0.2,1.5c0.8-0.4,1.7-0.6,2.6-0.6c0.8,0,1.3,0.3,1.3,1.2v0.2
			c-3.1,0.3-4.7,1.1-4.7,3c0,1.3,0.9,2.1,2.2,2.1c1.2,0,2-0.5,2.6-1.2l0.2,1H388.7z M394.8,186.8c0,0.8-0.5,1.5-1.4,1.5
			c-0.8,0-1.3-0.6-1.3-1.4c0-0.8,0.5-1.5,1.3-1.5C394.3,185.3,394.8,186,394.8,186.8z M397.6,192.3c0-1.2-1-1.7-2.6-1.9l-1-0.1
			c-1.2-0.2-1.4-0.2-1.4-0.5c0-0.1,0.1-0.3,0.3-0.4c0.2,0,0.4,0,0.6,0c1.7,0,3.1-1,3.1-2.7c0-0.4-0.1-0.7-0.2-1l1.4-0.1l-0.3-1.5
			l-1.9,0.7c-0.6-0.5-1.3-0.7-2.2-0.7c-1.7,0-3.1,1-3.1,2.7c0,1,0.5,1.8,1.5,2.3c-0.6,0.4-1,0.8-1,1.2c0,0.3,0.1,0.6,0.4,0.8
			c-1,0.5-1.5,1.1-1.5,1.8c0,1.3,1.6,1.9,3.7,1.9C395.8,194.9,397.6,194,397.6,192.3z M393.6,193.8c-1.5,0-2.1-0.4-2.1-1
			c0-0.4,0.3-0.8,0.8-1.2c0.4,0.1,0.6,0.1,1.2,0.2l1,0.1c1,0.1,1.3,0.4,1.3,0.8C395.8,193.3,395,193.8,393.6,193.8z M403.1,186.8
			c0,0.8-0.5,1.5-1.4,1.5c-0.8,0-1.3-0.6-1.3-1.4c0-0.8,0.5-1.5,1.3-1.5C402.6,185.3,403.1,186,403.1,186.8z M405.9,192.3
			c0-1.2-1-1.7-2.6-1.9l-1-0.1c-1.2-0.2-1.4-0.2-1.4-0.5c0-0.1,0.1-0.3,0.3-0.4c0.2,0,0.4,0,0.6,0c1.7,0,3.1-1,3.1-2.7
			c0-0.4-0.1-0.7-0.2-1l1.4-0.1l-0.3-1.5l-1.9,0.7c-0.6-0.5-1.3-0.7-2.2-0.7c-1.7,0-3.1,1-3.1,2.7c0,1,0.5,1.8,1.5,2.3
			c-0.6,0.4-1,0.8-1,1.2c0,0.3,0.1,0.6,0.4,0.8c-1,0.5-1.5,1.1-1.5,1.8c0,1.3,1.6,1.9,3.7,1.9C404,194.9,405.9,194,405.9,192.3z
			 M401.9,193.8c-1.5,0-2.1-0.4-2.1-1c0-0.4,0.3-0.8,0.8-1.2c0.4,0.1,0.6,0.1,1.2,0.2l1,0.1c1,0.1,1.3,0.4,1.3,0.8
			C404.1,193.3,403.3,193.8,401.9,193.8z M409.2,192v-11.6l-1.9,0.3V192H409.2z M414.3,185.4c0.9,0,1.4,0.7,1.5,1.9h-3.1
			C412.9,186.1,413.6,185.4,414.3,185.4z M417.7,191.2l-0.2-1.5c-0.8,0.6-1.7,1-2.7,1c-1.2,0-2-0.7-2.1-2.2h5c0-0.1,0-0.3,0-0.5
			c0-2.2-1-3.9-3.4-3.9c-2,0-3.5,1.5-3.5,4c0,2.8,1.6,4,3.8,4C415.9,192.2,416.9,191.8,417.7,191.2z"/>
		<path class="st55" d="M372.3,156l-0.3-1.9h-3.7V145h-2.1v11H372.3z M380.3,152.1c0-2.5-1.5-4-3.6-4c-2.1,0-3.6,1.5-3.6,4
			c0,2.5,1.5,4,3.6,4C378.7,156.2,380.3,154.6,380.3,152.1z M378.4,152.1c0,1.4-0.6,2.4-1.8,2.4c-1.1,0-1.7-1-1.7-2.5
			c0-1.4,0.6-2.4,1.7-2.4C377.8,149.7,378.4,150.7,378.4,152.1z M387.6,155.4l-0.3-1.6c-0.7,0.5-1.4,0.7-2,0.7c-1.1,0-2-0.8-2-2.4
			c0-1.5,0.8-2.4,1.9-2.4c0.8,0,1.4,0.3,2,0.7l0.3-1.7c-0.6-0.4-1.4-0.7-2.4-0.7c-2.1,0-3.8,1.4-3.8,4.1c0,2.5,1.5,4,3.7,4
			C386.1,156.1,386.9,155.9,387.6,155.4z M393.9,156.1l2-0.3l-3-4l2.8-3.5h-2.2l-2.5,3.2v-7l-1.9,0.3V156h1.9v-3.8L393.9,156.1z
			 M400,149.4c0.9,0,1.4,0.7,1.5,1.9h-3.1C398.5,150.1,399.2,149.4,400,149.4z M403.3,155.2l-0.2-1.5c-0.8,0.6-1.7,1-2.7,1
			c-1.2,0-2-0.7-2.1-2.2h5c0-0.1,0-0.3,0-0.5c0-2.2-1-3.9-3.4-3.9c-2,0-3.5,1.5-3.5,4c0,2.8,1.6,4,3.8,4
			C401.5,156.2,402.5,155.8,403.3,155.2z"/>
		<defs>
			
				<filter id="Adobe_OpacityMaskFilter_00000057836381372131048630000001635431984885838736_" filterUnits="userSpaceOnUse" x="326.2" y="119.9" width="31" height="51.6">
				<feColorMatrix  type="matrix" values="1 0 0 0 0  0 1 0 0 0  0 0 1 0 0  0 0 0 1 0"/>
			</filter>
		</defs>
		
			<mask maskUnits="userSpaceOnUse" x="326.2" y="119.9" width="31" height="51.6" id="mask4_00000026126789674270558280000007030254990008375731_">
			
				<circle style="fill:#C4C4C4;filter:url(#Adobe_OpacityMaskFilter_00000057836381372131048630000001635431984885838736_);" cx="343" cy="150" r="14"/>
		</mask>
		<g class="st57">
			<circle class="st58" cx="343" cy="150" r="14"/>
			<path class="st59" d="M339.9,126.1l10.4,19.5c0.2,0.4,0.3,0.9,0.3,1.4c-0.1,0.5-0.3,1-0.6,1.3l-0.1,0.1c-1.7,1.8-3.9,3.1-6.2,3.8
				c-2.4,0.7-4.9,0.8-7.3,0.3c-0.4-0.1-0.7-0.3-0.9-0.6c-0.2-0.3-0.4-0.6-0.4-1l-0.5-23.5C334.4,118.7,334.9,116.7,339.9,126.1z"/>
			<path class="st60" d="M349.8,148.5c0.4-0.4,0.6-0.9,0.7-1.4c0.1-0.5,0-1.1-0.3-1.6l-10.3-19.3c-2.5-4.6-3.8-6.5-4.6-6.2
				c2,13.6,6,31.4,6,31.4l2.8,0.7C346.3,151.3,348.2,150.1,349.8,148.5z"/>
			<path class="st44" d="M347.3,139.9c-0.6-1.2-0.9-1.5-1.2-1c-4.3-6.8-6.3-5.5-6.3,1.2c0,0-3-1.6-2.6,4.3c-0.4-0.1-0.9-0.1-1.3,0.1
				c-0.4,0.2-0.8,0.5-1,0.8l0.1,5.8c0,0.3,0.1,0.6,0.3,0.9c0.2,0.3,0.4,0.5,0.7,0.6c2.5,0.4,5.1,0.2,7.6-0.6
				c2.5-0.8,4.7-2.1,6.6-3.9c0.3-0.4,0.4-0.8,0.5-1.2s-0.1-0.9-0.3-1.3L347.3,139.9z"/>
			<path class="st61" d="M350.3,145.6l-3-5.7c-0.6-1.2-0.9-1.5-1.2-1c-4.3-6.8-6.3-5.5-6.3,1.2c-0.3-0.1-0.5-0.2-0.8-0.2
				c0.8,0.2,0.9,1,1.3,2.8c0.5,1.8,0.8,3.4,0.8,3.4l7.6,3.2c0.5-0.4,1-0.8,1.4-1.2c0.3-0.4,0.4-0.8,0.5-1.2S350.5,146,350.3,145.6z"
				/>
			<path class="st62" d="M350,145.8c-3.7-3.9-6.9-5.3-14.3,5.5c-0.1,0.1-0.1,0.2-0.1,0.4c0,0.1,0,0.3,0.1,0.4
				c0.1,0.1,0.1,0.2,0.2,0.3c0.1,0.1,0.2,0.2,0.4,0.2c2.4,0.5,5,0.4,7.3-0.3c2.4-0.7,4.5-2,6.3-3.8l0.1-0.1l0.3-0.4
				c0.2-0.3,0.3-0.7,0.2-1.1S350.2,146.1,350,145.8z"/>
			<path class="st63" d="M349.3,149.2l-1-4.9c-2.7-2.2-5.5-2.3-10.3,3.7l2,4.7C343.4,152.3,346.6,151.1,349.3,149.2z"/>
			<path class="st64" d="M349.6,149l-3.5-0.3l-0.5,1.3l-0.9-1.9c-0.8-1.9-0.9-1.9-1.6-0.2s-3.9,1.1-3.9,1.1l-0.7-1.5
				c4.2-5,6.8-5.3,9.3-3.7L349.6,149z"/>
			<path class="st59" d="M333.7,155.7l0.6-1.6c0.1-0.3,0.3-0.6,0.6-0.8c0.3-0.2,0.6-0.4,0.9-0.5l2.5-0.5l9.7-0.2l5.3,2.7
				c0.2,0.1,0.4,0.3,0.5,0.5c0.1,0.2,0.2,0.4,0.3,0.7l0.2,1.2l2.5,1.7c0.1,0.1,0.3,0.2,0.3,0.4c0.1,0.2,0.1,0.3,0.1,0.5
				c-0.7,5.9-6.7,14.8-15,10.8c-6.2-3-12-7.3-14.8-9.5l-1.1,1.4c-0.3-1.4,0-1.9,0.9-2.6c0.3-0.2,0.6-0.4,0.8-0.7
				c0.1-0.2,0.1-0.5,0.1-0.7c0.2-1.1,0-1.4,1.3-1.7L333.7,155.7z"/>
			<path class="st65" d="M338.3,152.8c-2.3,0.4-3.5,0.3,0,2.4C341.8,157.3,338.3,152.8,338.3,152.8z"/>
			<path class="st66" d="M344.5,145.9l0.4,1.7c0,0,0.1,0.1,0.2,0.1l0.7,0.1l-0.6-1.4v-0.1l0.1-1l-0.7,0.4L344.5,145.9z"/>
			<path class="st67" d="M341.1,147.6l1.3,0.2C341.9,148.5,341.3,148.4,341.1,147.6z"/>
			<path class="st67" d="M345.8,147.1l1.3-0.4C347,147.6,346.4,147.7,345.8,147.1z"/>
			<path d="M341.9,147.8c0.2,0,0.4-0.3,0.4-0.7c0-0.4-0.2-0.7-0.4-0.7s-0.4,0.3-0.4,0.7C341.6,147.5,341.7,147.8,341.9,147.8z"/>
			<path d="M346.5,147c0.2,0,0.4-0.3,0.4-0.7c0-0.4-0.2-0.7-0.4-0.7c-0.2,0-0.4,0.3-0.4,0.7C346.2,146.7,346.3,147,346.5,147z"/>
			<path class="st7" d="M347.8,143.8l1.1,0.8c0.4,1.1,0.5,2.5,0.9,3.8c0.4,1.2,0.9,3.1,0.7,4.2c-0.2,1.1,0,1.2,0.6,2.5
				c0.7,1.3,1.9,2.8,1.5,4.4c0.7,1.1,0.5,1.8,0.3,2.8c-0.2,1-1,3.7-2.8,3.7c-0.6,0.9-1.5,1.5-2.5,1.9s-2.1,0.4-3.1,0.1
				c-2.9-0.7-5.9-2.7-5.5-5.4c-1-0.8-0.8-2.8-0.6-3.9c0.1-1,0-2-0.4-2.9c-0.3-1-0.3-1.9,0-3.9c-0.3-0.8-0.6-1.7-0.7-2.6l1.4-1.9
				l0.7,1.5c0.3,0.6,0.6,1.3,0.9,2c0.2-0.1,0.5-0.2,0.8-0.1c0.2-0.4,0.4-0.7,0.8-0.9c0.3-0.2,0.7-0.4,1.1-0.4l2.8,0.6l0.5-1.3
				c1.3-0.2,2-0.2,2.5,0.1c0.3-0.8,0.3-1.6,0.1-2.4C348.4,145.6,347.8,143.8,347.8,143.8z"/>
			<path class="st68" d="M345.8,151.1l-1.1-0.2c-0.5-0.1-0.5-0.2-2-1.4l2.8,0.6l0.5-1.3c1.3-0.2,2-0.2,2.5,0.1
				c0.3-0.8,0.3-1.6,0.1-2.4c-0.2-0.9-0.9-2.6-0.9-2.6l1,0.8c0.4,1.1,0.6,2.5,1,3.8c0.4,1.2,0.9,3.1,0.7,4.2c-0.2,1.1,0,1.2,0.6,2.5
				c0.7,1.3,1.9,2.8,1.5,4.4c0.7,1.1,0.5,1.8,0.3,2.8c-0.2,1-1,3.7-2.8,3.7c-0.6,0.9-1.5,1.5-2.5,1.9s-2.1,0.4-3.1,0.1
				c-2.9-0.7-5.9-2.7-5.5-5.4c0.9,2.5,2.8,2,2.8,2c1.2-0.3,2.4-0.4,3.6-0.3c0.7-1.2,1.5-2.4,2.2-2.8c1.4-2.7,0.3-5.7-0.3-7.3
				L345.8,151.1z"/>
			<path class="st69" d="M345.8,151.1c0.7,0.1,0.7-0.5,0.6-1.1c0-0.5-0.2-0.9-0.4-1.3l-0.5,1.3l-2.8-0.6c1.5,1.2,1.4,1.3,2,1.4
				L345.8,151.1z"/>
			<path class="st4" d="M340.4,146.8l2.6-0.8c-0.2-0.1-0.5-0.2-0.7-0.2c-0.3,0-0.5,0-0.8,0.1c-0.2,0.1-0.5,0.2-0.7,0.4
				C340.7,146.3,340.5,146.5,340.4,146.8z"/>
			<path class="st4" d="M345,145.7l2.7-0.5c-0.4-0.3-1-0.4-1.5-0.3C345.7,145,345.3,145.3,345,145.7z"/>
			<path class="st70" d="M347,152.2c0,0.2-0.1,0.4-0.2,0.5c-0.1,0.1-0.3,0.2-0.5,0.2c-2.9,0.4-4.1-0.3-4.6-0.7
				c-0.1-0.1-0.1-0.1-0.1-0.2c0-0.1,0-0.2,0-0.2v-0.1c1.5,0.5,3.8,0.3,4.4,0.2c0.5-0.1,0.3-0.2,0.3-0.5c0.1,0,0.2,0,0.3,0.1
				c0.1,0,0.2,0.1,0.2,0.2c0.1,0.1,0.1,0.2,0.2,0.2S347,152.1,347,152.2z"/>
			<path class="st71" d="M343.4,139.5c0.5-0.2,0.5-1.1,0.1-2c-0.4-0.9-1.1-1.4-1.6-1.1s-0.5,1.1-0.1,2
				C342.2,139.2,343,139.7,343.4,139.5z"/>
			<path class="st72" d="M343.6,137.5c-0.4-0.9-1.2-1.4-1.6-1.2c-0.1,0-0.1,0.1-0.1,0.1c0,0-0.1,0.1-0.1,0.2
				C342.5,136.6,342.1,137.5,343.6,137.5z"/>
			<path class="st73" d="M341.6,137.2c0,0.4,0.1,0.8,0.2,1.2l0.2,0.3c0.1,0,0.5-0.1,0.6,0.1c0.1,0.2,0.3,0.7,0.9,0.8
				c0.1-0.1,0.2-0.2,0.3-0.4c0.1-0.1,0.1-0.3,0.1-0.5h-0.1C342.7,138.6,342.1,137.6,341.6,137.2z"/>
			<path class="st61" d="M338.5,142.6c0.3,0,0.5-0.3,0.5-0.6s-0.2-0.6-0.5-0.6c-0.3,0-0.5,0.3-0.5,0.6S338.3,142.6,338.5,142.6z"/>
			<path class="st61" d="M336,146.8c0.3,0,0.5-0.3,0.5-0.6s-0.2-0.6-0.5-0.6c-0.3,0-0.5,0.3-0.5,0.6S335.7,146.8,336,146.8z"/>
			<path class="st74" d="M337.1,149.3c0.1,0.7,0.3,1.5,0.6,2.2c0-0.6,0.2-1.2,0.6-1.4c0.4-0.1,0.4-1.1,0.9-1.2l-0.7-1.5L337.1,149.3
				z"/>
			<path class="st7" d="M347.3,154.7c1.2,1.2,1.6,2.1,1.7,2.7c-0.5-0.2-0.9-0.4-1.3-0.8L347.3,154.7z"/>
			<path class="st66" d="M342.7,145.1c1.1-0.3,2.1-0.6,3.2-0.8C344.2,144.2,343.2,144.5,342.7,145.1z"/>
			<path class="st75" d="M343.8,147.2c0,0.2,0.1,0.4,0.2,0.6c0.1,0.2,0.2,0.4,0.4,0.5c0.2,0.2,0-0.1-0.2-0.8
				C343.9,147,343.7,146.8,343.8,147.2z"/>
		</g>
		<circle class="st76" cx="343" cy="150" r="13"/>
		<circle class="st77" cx="343" cy="150" r="11.5"/>
		<path class="st78" d="M162,0h197c4.4,0,8,3.6,8,8v32c0,4.4-3.6,8-8,8H162c-4.4,0-8-3.6-8-8V8C154,3.6,157.6,0,162,0z"/>
		<path class="st79" d="M172.4,31c0-0.8-0.5-1.4-1.1-1.4h-3.4c-0.6,0-1.1,0.6-1.1,1.4v2.8c0,0.8,0.5,1.4,1.1,1.4h3.4
			c0.6,0,1.1-0.6,1.1-1.4L172.4,31L172.4,31z"/>
		<path class="st79" d="M180.8,22.5c0-0.7-0.5-1.3-1.1-1.3h-3.4c-0.6,0-1.1,0.6-1.1,1.3v11.5c0,0.7,0.5,1.3,1.1,1.3h3.4
			c0.6,0,1.1-0.6,1.1-1.3V22.5z"/>
		<path class="st79" d="M189.2,14c0-0.7-0.5-1.2-1.1-1.2h-3.4c-0.6,0-1.1,0.6-1.1,1.2V34c0,0.7,0.5,1.2,1.1,1.2h3.4
			c0.6,0,1.1-0.6,1.1-1.2V14z"/>
		<path class="st79" d="M214.6,16.8h-3.1l-4,11.5l-4.1-11.6l-3.1,0.5l5.5,14.9h2.9L214.6,16.8z M224.4,26.7c0-3.5-2.1-5.5-5-5.5
			c-2.9,0-5,2.1-5,5.5c0,3.5,2.1,5.5,5,5.5C222.2,32.2,224.4,30.1,224.4,26.7z M221.8,26.7c0,2-0.8,3.4-2.5,3.4
			c-1.5,0-2.4-1.4-2.4-3.4s0.8-3.4,2.4-3.4C220.9,23.3,221.8,24.7,221.8,26.7z M229.5,18.1c0-0.9-0.7-1.5-1.6-1.5
			c-0.9,0-1.6,0.6-1.6,1.5c0,0.9,0.7,1.5,1.6,1.5C228.8,19.6,229.5,19,229.5,18.1z M229.2,32V21.4h-2.6V32H229.2z M240.1,31.2
			l-0.4-2.3c-1,0.7-1.9,1-2.8,1c-1.5,0-2.8-1.1-2.8-3.3c0-2.1,1.1-3.2,2.7-3.2c1.1,0,1.9,0.4,2.8,1l0.4-2.4
			c-0.8-0.5-1.9-0.9-3.3-0.9c-2.9,0-5.2,1.9-5.2,5.6c0,3.5,2.1,5.5,5,5.5C237.9,32.2,239,31.9,240.1,31.2z M246.2,23
			c1.3,0,1.9,0.9,2.1,2.6h-4.2C244.3,23.8,245.1,23,246.2,23z M250.9,30.9l-0.3-2.1c-1.2,0.8-2.3,1.3-3.7,1.3c-1.6,0-2.8-0.9-2.9-3
			h6.8c0-0.2,0-0.4,0-0.6c0-3-1.4-5.4-4.6-5.4c-2.8,0-4.8,2.1-4.8,5.5c0,3.8,2.2,5.5,5.2,5.5C248.3,32.2,249.7,31.7,250.9,30.9z
			 M269,31l-0.4-2.6c-1.2,0.8-2.4,1.3-3.9,1.3c-2.7,0-4.4-2-4.4-5.3c0-3.3,1.6-5.3,4.4-5.3c1.5,0,2.6,0.6,3.6,1.3l0.4-2.8
			c-1.1-0.7-2.4-1.1-4.2-1.1c-4.4,0-7.3,3.2-7.3,7.9c0,4.7,2.8,7.8,7.2,7.8C266.3,32.3,267.9,31.7,269,31z M280.6,26.7
			c0-3.5-2.1-5.5-5-5.5c-2.9,0-5,2.1-5,5.5c0,3.5,2.1,5.5,5,5.5C278.4,32.2,280.6,30.1,280.6,26.7z M278,26.7c0,2-0.8,3.4-2.5,3.4
			c-1.5,0-2.4-1.4-2.4-3.4s0.8-3.4,2.4-3.4C277.1,23.3,278,24.7,278,26.7z M291.8,32v-7.7c0-2-1.1-3.2-3-3.2c-1.4,0-2.6,0.8-3.5,1.7
			l-0.2-1.5h-2.2V32h2.6v-7.2c0.8-0.8,1.6-1.3,2.4-1.3c1,0,1.4,0.6,1.4,1.6v7H291.8z M303.5,32v-7.7c0-2-1.1-3.2-3-3.2
			c-1.4,0-2.6,0.8-3.5,1.7l-0.2-1.5h-2.2V32h2.6v-7.2c0.8-0.8,1.6-1.3,2.4-1.3c1,0,1.4,0.6,1.4,1.6v7H303.5z M310.3,23
			c1.3,0,1.9,0.9,2.1,2.6h-4.2C308.4,23.8,309.3,23,310.3,23z M315,30.9l-0.3-2.1c-1.2,0.8-2.3,1.3-3.7,1.3c-1.6,0-2.8-0.9-2.9-3
			h6.8c0-0.2,0-0.4,0-0.6c0-3-1.4-5.4-4.6-5.4c-2.8,0-4.8,2.1-4.8,5.5c0,3.8,2.2,5.5,5.2,5.5C312.5,32.2,313.9,31.7,315,30.9z
			 M325.2,31.2l-0.4-2.3c-1,0.7-1.9,1-2.8,1c-1.5,0-2.8-1.1-2.8-3.3c0-2.1,1.1-3.2,2.7-3.2c1.1,0,1.9,0.4,2.8,1l0.4-2.4
			c-0.8-0.5-1.9-0.9-3.3-0.9c-2.9,0-5.2,1.9-5.2,5.6c0,3.5,2.1,5.5,5,5.5C323.1,32.2,324.2,31.9,325.2,31.2z M333,32l-0.3-2.2
			c-0.2,0.1-0.5,0.1-0.8,0.1c-1,0-1.4-0.5-1.4-1.3v-5h2.5l-0.3-2.2h-2.2v-3.8l-2.6,0.4v3.4h-1.5v2.2h1.5V29c0,2.4,1.4,3.2,3.5,3.2
			C332.1,32.2,332.6,32.1,333,32z M339.1,23c1.3,0,1.9,0.9,2.1,2.6H337C337.2,23.8,338.1,23,339.1,23z M343.8,30.9l-0.3-2.1
			c-1.2,0.8-2.3,1.3-3.7,1.3c-1.6,0-2.8-0.9-2.9-3h6.8c0-0.2,0-0.4,0-0.6c0-3-1.4-5.4-4.6-5.4c-2.8,0-4.8,2.1-4.8,5.5
			c0,3.8,2.2,5.5,5.2,5.5C341.2,32.2,342.6,31.7,343.8,30.9z M348.1,26.8c0-2.3,1-3.5,2.4-3.5c0.9,0,1.4,0.2,2.1,0.5v4.6
			c-0.7,0.9-1.5,1.5-2.4,1.5C348.9,29.9,348.1,28.9,348.1,26.8z M345.4,27c0,3.6,1.8,5.2,4,5.2c1.5,0,2.5-0.8,3.3-1.7l0.2,1.5h2.3
			V16.1l-2.6,0.4v5.1c-0.6-0.2-1.5-0.4-2.5-0.4C347.6,21.3,345.4,23,345.4,27z"/>
		<path class="st80" d="M476.1,5.8l4.1-1.8c0.1,0,0.1-0.2,0-0.2L476.1,2H476l-1.8-4h-0.1l-1.9,4l-4.1,1.8c-0.1,0-0.1,0.2,0,0.2
			l4.1,1.8l1.9,4.1c0,0.1,0.1,0.1,0.1,0l1.8-4.1H476.1z"/>
		<path class="st81" d="M296.4,387.4h-36.5v6.1h36.5V387.4z"/>
		<path class="st81" d="M337.9,387.4h-36.5v6.1h36.5V387.4z"/>
		<path class="st81" d="M294,339.1l7,69.3h-8.9l-7.1-69.3H294z"/>
		<path class="st82" d="M336.6,339.1l6.9,69.3h-8.8l-7.2-69.3H336.6z"/>
		<path class="st82" d="M302.5,339.1l-7,69.3h8.9l7.1-69.3H302.5z"/>
		<path class="st82" d="M259.9,339.1l-7,69.3h8.9l7.1-69.3H259.9z"/>
		<path class="st83" d="M337.1,334.8h-82.7c-2.3,0-4.1,1.8-4.1,4.1c0,2.3,1.8,4.1,4.1,4.1h82.7c2.3,0,4.1-1.8,4.1-4.1
			C341.2,336.7,339.4,334.8,337.1,334.8z"/>
		<path class="st84" d="M235.7,315.4h-14.9v93h14.9V315.4z"/>
		<path class="st85" d="M105.9,247.5l5.2-33c0.2-1.1,0.8-2.2,1.7-2.9c0.9-0.7,2-1.1,3.2-1.1c0.7,0,1.3,0.2,1.9,0.5
			c0.6,0.3,1.1,0.7,1.6,1.2c0.4,0.5,0.7,1.1,0.9,1.7c0.2,0.6,0.2,1.3,0.2,2l-5.1,34L105.9,247.5z"/>
		<path class="st86" d="M111.4,241.5l4.5-20.7c0.1-0.2,0.2-0.3,0.3-0.4c0.1-0.1,0.3-0.1,0.5-0.1c0.2,0,0.3,0.1,0.4,0.3
			c0.1,0.1,0.1,0.3,0.1,0.5l-2.8,20.1L111.4,241.5z"/>
		<path class="st87" d="M111,214.6c0.1-0.6,0.3-1.1,0.6-1.6c0.3-0.5,0.7-0.9,1.2-1.3c-0.9,5.3-2.3,14.9-4.5,30.9l-1.7,0.2L111,214.6
			z"/>
		<path class="st88" d="M228.6,408.4l-1.1-72.7c0-2.7-0.7-5.4-2-7.9c-1.3-2.4-3.1-4.5-5.4-6.1l-8.9-6.3l-59.8-3.3l5.6,4.9
			c-3.9,2.5-3.8,4.3-4.1,11.4l-5.6,80H228.6z"/>
		<path class="st89" d="M227.6,335.7c0-2.7-0.7-5.4-2-7.9c-1.3-2.4-3.1-4.5-5.4-6.1l-3.1-2.2h-60.5l6.9,5.2c1.9,1.4,3.4,3.3,4.3,5.5
			c1,2.2,1.3,4.6,1.1,6.9l-6.8,71.3h66.4L227.6,335.7z"/>
		<path class="st89" d="M147.4,408.4c11.2-9.3,14.8-9.4,19.7-9.4s5.6,9.4,5.6,9.4H147.4z"/>
		<path class="st90" d="M182.4,328.4c11,10.5,18.5,16.1,20.3,17.3c1.8,1.2,4.2-2.9,6.2-8.7c2-5.8,3.6-11.6,4.3-13.6
			c0.7-2,3.8-5.9-8.3-5.9C193,317.5,165,313.4,182.4,328.4z"/>
		<path class="st90" d="M221.9,332.2c-8.9,12.9-21.5,28.8-25.1,33.7c-3.6,4.8-9,0.9-12.9-3.3c-4-4.1-2.3-2.2-0.4,3.6
			c1.6,4.5,4.4,8.4,8,11.5c2,1.8,5.3,6,13.3-8.8C212.7,354.2,226.4,325.6,221.9,332.2z"/>
		<path class="st91" d="M156.3,408.4c8.3-9.7,17.2-10.3,23.9,0H156.3z"/>
		<path class="st92" d="M163.5,402.3c6.1,2,7.9,5.5,8.2,6.1h8.5C175.5,401.1,169.5,399.3,163.5,402.3z"/>
		<path class="st92" d="M214.8,402.6c-6.7-0.4-11.7,2.5-17.8,5.8h23.8C221.6,404,219.3,402.9,214.8,402.6z"/>
		<path class="st93" d="M142.2,377.5H76.7v4.8h65.5V377.5z"/>
		<path class="st82" d="M113.6,331.2l7,77.2h-8.9l-7.1-77.2H113.6z"/>
		<path class="st82" d="M141.8,331.2l7,77.2H140l-7.1-77.2H141.8z"/>
		<path class="st82" d="M77.8,328.4l-7,80h8.9l7.1-80H77.8z"/>
		<path class="st83" d="M77.8,334.7l-12.6-60.9c-0.1-0.2-0.1-0.4,0-0.6c0-0.2,0.1-0.4,0.2-0.5c0.1-0.2,0.3-0.3,0.5-0.4
			c0.2-0.1,0.4-0.1,0.6-0.1h6.2c0.3,0,0.6,0.1,0.8,0.3c0.2,0.2,0.4,0.5,0.4,0.8l12.8,61.4H77.8z"/>
		<path class="st83" d="M109.6,277.4H71.4v6.7h38.2V277.4z"/>
		<path class="st83" d="M76,328.4h58.9v6.9H76c-0.5,0-0.9-0.1-1.4-0.2c-0.4-0.2-0.8-0.4-1.2-0.7c-0.3-0.3-0.6-0.7-0.8-1.1
			c-0.2-0.4-0.3-0.9-0.3-1.3c0-0.9,0.4-1.8,1.1-2.5C74.1,328.8,75,328.4,76,328.4z"/>
		<path class="st94" d="M95.2,328.4H144c0.5,0,0.9,0.1,1.3,0.3c0.4,0.2,0.8,0.4,1.1,0.8c0.3,0.3,0.6,0.7,0.7,1.1
			c0.2,0.4,0.2,0.9,0.2,1.3c0,0.5-0.1,0.9-0.2,1.3c-0.2,0.4-0.4,0.8-0.7,1.1c-0.3,0.3-0.7,0.6-1.1,0.7c-0.4,0.2-0.9,0.2-1.3,0.2
			H95.2V328.4z"/>
		<path class="st85" d="M89.1,213.6c-1.4,0.5-2.5,1.6-3.1,2.9s-0.7,2.9-0.2,4.3l9.5,28l12.4-3.7l-11-28.3c-0.3-0.7-0.7-1.4-1.2-1.9
			c-0.5-0.5-1.2-1-1.9-1.3c-0.7-0.3-1.5-0.5-2.2-0.5C90.5,213.2,89.8,213.3,89.1,213.6z"/>
		<path class="st86" d="M98.6,241.8l4.9-0.6l-6.8-16.9c-0.2-0.5-0.6-0.8-1.1-1c-0.5-0.2-1-0.2-1.5,0c-0.4,0.2-0.7,0.5-0.9,1
			c-0.2,0.4-0.2,0.9-0.1,1.3L98.6,241.8z"/>
		<path class="st95" d="M95.8,241.8l-9.4-26c-0.5,0.7-0.8,1.6-0.9,2.4s0,1.8,0.2,2.6l7.3,21.4L95.8,241.8z"/>
		<path class="st96" d="M119.4,237.9l-36.1,4.7c-5.2,0.7-8.9,5.4-8.2,10.6l0,0.2c0.7,5.2,5.4,8.9,10.6,8.2l36.1-4.7
			c5.2-0.7,8.9-5.4,8.2-10.6l0-0.2C129.4,240.9,124.6,237.2,119.4,237.9z"/>
		<path class="st97" d="M91.1,294.1c-2.2-1.9-4.2-3.8-4.7-4.6c-0.4-0.8,0.3-1,1.4-1.3c1.1-0.4,1.9,1,3.1,3.2S93,296,91.1,294.1z"/>
		<path class="st44" d="M121.3,270.7L89,275.9c-2.1,1.8-2.3,2.2-3.8,3.6c-4.3,3.9-5.5,6.9-5.6,10.3c-0.3,4.7,0.3,4.5-0.8,6.2
			c-1.1,1.7-1.9,2.4-1.1,4.7c0.6,1.5,1.5,2.9,2.6,4h51.1C142.9,291.3,132.6,280.4,121.3,270.7z"/>
		<path class="st47" d="M126.2,304.7H91.8c0,0,0.2-3,0.4-10.7c0.2-7.7-1.3-13-6.9-14.5c1.2-1.3,2.5-2.5,3.8-3.6l32.3-5.1
			c2.2,1.8,4.3,3.7,6.2,5.7C128,285.9,127.6,295.3,126.2,304.7z"/>
		<path class="st98" d="M121.3,270.8h-0.4l-0.4,0.5c-1.3,4.8-3,9.5-5.1,14.1c0,0,0.2,1.8,2.5-1.7c2.4-3.4,4.3-7.2,5.5-11.2
			L121.3,270.8z"/>
		<path class="st98" d="M92.6,275.9c6.3,7.6,8.4,9.2,10.7,10.8c2.3,1.6,0.4-0.8-2-4.4c-2.5-3.6-5.2-8-5.2-8L92.6,275.9z"/>
		<path class="st98" d="M111.8,297.2c-2.3-0.8-12.1-4-19.7-5.9c0.1,0.9,0.1,1.8,0,2.6c-0.2,7.7-0.4,10.7-0.4,10.7h34.4
			c0.5-3.8,1.1-8.1,1.3-12.7L111.8,297.2z"/>
		<path class="st88" d="M95.1,280.2c-0.4,0.6-1,1.1-1.7,1.5c-1.4,1-1.8,1.3-1.8,1.1c-0.5-1.1-1.3-2.1-2.2-2.8
			c-0.9-0.8-2-1.3-3.2-1.6c0.9-0.9,1.8-1.8,3-2.8C93.9,277.7,95.1,280.2,95.1,280.2z"/>
		<path class="st99" d="M118.5,270.7l-6.5,24.5l-16.8-23.7L118.5,270.7z"/>
		<path class="st100" d="M104.3,279.3l12.5,3.3l-4.6,7.5c0,0-6.9-8.1-7.9-9.3C103.3,279.5,102.2,278.8,104.3,279.3z"/>
		<path class="st101" d="M98.9,275.3l15.2,2.1c1.8,0.2,1.8-1.7,2.6-5.3l-16.4,1.1L98.9,275.3z"/>
		<path class="st96" d="M123.2,254.2L86,259c-4.9,0.6-8.4,5.1-7.7,10c0.6,4.9,5.1,8.4,10,7.7l37.1-4.8c4.9-0.6,8.4-5.1,7.7-10
			C132.6,257,128.1,253.5,123.2,254.2z"/>
		<path class="st48" d="M125.2,272c2-0.2,3.9-1.1,5.4-2.6c1.4-1.4,2.4-3.3,2.6-5.4c0.2-2-0.2-4.1-1.3-5.8s-2.7-3-4.7-3.7
			c1.1-1,2-2.3,2.5-3.7c0.5-1.4,0.7-3,0.5-4.5v-0.3c-0.1-1.2-0.5-2.4-1.1-3.5c-0.6-1.1-1.4-2-2.4-2.8c-1-0.8-2.1-1.3-3.3-1.6
			c-1.2-0.3-2.5-0.4-3.7-0.2l-29.4,3.8c6.3,4.3,6.3,8.1,5.3,15.2c-0.1,1.1,0.1,2.2,0.7,3.1c1.4,2.5,2,5.3,1.8,8.2
			c-0.3,2.8-1.4,5.5-3.3,7.7L125.2,272z"/>
		<path class="st102" d="M112.4,357.9c0,3.3-1.8,5.9,1.5,7.4c5,2.2,7.3,4.6,11,5.6c3.7,1.1,9.4,2.7,6.5-3c-2.9-5.7-5.1-11-5.1-11
			L112.4,357.9z"/>
		<path class="st102" d="M130.7,353.6c-0.3,3-2.2,5.4,0.8,7c4.5,2.5,6.4,4.8,9.8,6.2c3.4,1.3,8.5,3.3,6.2-2.3
			c-2.3-5.6-3.8-10.6-3.8-10.6L130.7,353.6z"/>
		<path class="st78" d="M122.6,328.7h-1.3l6.9,30.1l-4,1.8c-2.1,0.9-4.3,1.4-6.5,1.5s-4.5-0.3-6.6-1.1l-7.1-32.2h-9.1
			c-0.6,0-1.1-0.1-1.6-0.4c-0.5-0.2-1-0.5-1.3-0.9c-0.4-0.4-0.7-0.9-0.9-1.4c-0.2-0.5-0.3-1.1-0.3-1.6l0.5-7.9h40.2
			c2.4,0,4.7,0.9,6.4,2.5c1.8,1.6,2.8,3.8,3.1,6.2l4.1,31.4l-3.4,0.4c-4.2,0.5-8.4,0.4-12.5-0.4L122.6,328.7z"/>
		<path class="st103" d="M105.2,315.4H89v93h16.2V315.4z"/>
		<path class="st103" d="M272,408.4h16.2v-93H272V408.4z"/>
		<path class="st104" d="M95.2,315.4H89v93h6.2V315.4z"/>
		<path class="st103" d="M105.2,315.4H89v16.9h16.2V315.4z"/>
		<path class="st105" d="M176.1,180.8l-9.6-4.8l-6.6,8.5l9.9,6.3L176.1,180.8z"/>
		<path class="st59" d="M177.8,200.9l19.2,36c0.4,0.8,0.5,1.7,0.4,2.6s-0.5,1.7-1.1,2.4l-0.3,0.3c-3.2,3.3-7.2,5.7-11.5,7.1
			c-4.4,1.3-9,1.5-13.5,0.6c-0.6-0.1-1.2-0.5-1.6-1c-0.4-0.5-0.6-1.1-0.6-1.8l-1-43.3C167.7,187.2,168.5,183.5,177.8,200.9z"/>
		<path class="st60" d="M196,242.1c0.7-0.7,1.1-1.7,1.3-2.7c0.1-1,0-2-0.5-2.9l-19-35.6c-4.6-8.4-7-12-8.4-11.3
			c3.6,25.1,11.1,57.9,11.1,57.9l5.1,1.3C189.6,247.4,193.1,245.1,196,242.1z"/>
		<path class="st44" d="M191.4,226.4c-1.1-2.2-1.7-2.9-2.2-1.8c-7.9-12.6-11.7-10-11.7,2.2c0,0-5.5-2.9-4.9,7.9
			c-0.8-0.2-1.6-0.2-2.4,0.1c-0.7,0.3-1.4,0.8-1.8,1.5l0.3,10.6c0,0.6,0.2,1.1,0.5,1.6s0.8,0.8,1.3,1.1c4.7,0.7,9.5,0.4,14-1
			c4.5-1.4,8.7-3.9,12.1-7.1c0.5-0.7,0.7-1.4,0.8-2.2c0.1-0.8-0.1-1.6-0.5-2.3L191.4,226.4z"/>
		<path class="st61" d="M197,236.8l-5.6-10.5c-1.1-2.2-1.7-2.9-2.2-1.8c-7.9-12.6-11.7-10-11.7,2.2c-0.5-0.2-1-0.3-1.5-0.4
			c1.5,0.4,1.5,1.8,2.5,5.1c1,3.3,1.5,6.2,1.5,6.2l14,6c0.9-0.7,1.9-1.5,2.7-2.3c0.5-0.7,0.7-1.4,0.8-2.2
			C197.5,238.4,197.4,237.5,197,236.8z"/>
		<path class="st62" d="M196.4,237.3c-6.8-7.3-12.8-9.8-26.5,10.1c-0.1,0.2-0.2,0.5-0.2,0.7c0,0.2,0,0.5,0.1,0.7
			c0.1,0.2,0.2,0.4,0.4,0.6c0.2,0.2,0.4,0.3,0.7,0.3c4.5,1,9.2,0.8,13.6-0.5c4.4-1.3,8.4-3.8,11.6-7.1l0.3-0.3l0.5-0.8
			c0.4-0.6,0.5-1.3,0.4-2C197.2,238.4,196.9,237.8,196.4,237.3z"/>
		<path class="st106" d="M195.2,243.4l-1.8-9.1c-4.9-4-10.1-4.1-19,6.9l3.7,8.5C184.3,249.3,190.2,247.1,195.2,243.4z"/>
		<path class="st64" d="M195.6,243.2l-6.4-0.6l-0.9,2.5l-1.6-3.4c-1.6-3.5-1.7-3.4-3-0.4c-1.3,3-7.2,2-7.2,2l-1.3-2.8
			c7.7-9.3,12.7-9.8,17.1-6.8L195.6,243.2z"/>
		<path class="st107" d="M155.9,261.8c-4,2.9-4.8,2.5-3.9,8.2C153,275.6,155.9,261.8,155.9,261.8z"/>
		<path class="st88" d="M213.4,304.7h-69.2c-1-2.3-1.7-4.6-2.1-7c-0.7-5.3-1.3-6.2,2.5-13.1c0.3-5.2,1.9-8.4,6-13.5
			c2.3-3.5,4.8-6.8,7.6-9.9l49.4,1.8c2,1.4,3.9,2.9,5.7,4.7l4,0.2C217.6,277.4,214.4,294.6,213.4,304.7z"/>
		<path class="st108" d="M249.7,262.8l-3.9-6.1c-1.2-2-3-3.6-5-4.6c-2.1-1.1-4.4-1.6-6.7-1.4H234c-0.7,0-1.3,0.3-1.8,0.7
			c-0.5,0.4-0.9,1-1,1.6l-3.2,11.9L227,266c-0.2,0.2-0.4,0.5-0.5,0.8c-0.1,0.3-0.1,0.6-0.1,0.9l0.3,2.4l-0.5-0.8
			c-0.2-0.4-0.5-0.7-0.8-0.9c-0.3-0.2-0.7-0.4-1.1-0.5c-1.6-0.4-4.7-1.2-7.8-2.4c-0.7-1.1-2.2-2.9-7.8-3v3.5l6.6,6.5l-0.2,19
			l13.3,4.8c1.5,0.5,3.1,0.6,4.6,0.2c1.5-0.4,2.9-1.2,3.9-2.4c7-8.3,11.6-18.3,13.4-28.9C250.3,264.5,250.2,263.6,249.7,262.8z"/>
		<path class="st108" d="M164.3,280.2l-1.2,5.5l-14.6,1.5c-0.4,0-0.9,0.2-1.2,0.6c-0.3,0.3-0.5,0.7-0.5,1.2v1.4
			c0,0.2,0.1,0.4,0.2,0.6s0.2,0.3,0.4,0.4c0.2,0.1,0.3,0.2,0.5,0.2c0.2,0,0.4,0,0.6,0l14.6-4.7l12.9,2c0.3,0.1,0.6,0.2,0.7,0.5
			c0.2,0.2,0.3,0.5,0.2,0.8l-1.9,14.6h38.3c4.6-27.9,6.3-33.5-2.3-40.5l-33.8,8.1l-14.2-8.5l1.4,8.7
			C164.9,275,164.8,277.6,164.3,280.2z"/>
		<path class="st109" d="M171.5,288.1c0.9-3.9,1.8-8.9,1.8-11.9l-4.1-2.5c0.1,4.6,0,9.3-0.4,13.9L171.5,288.1z"/>
		<path class="st64" d="M176.4,294.1c2.7,1.7,5.4,3.2,8.3,4.6c1.9,0.9,7,2.5,8.6,3.1c1.6,0.5,2.8,1.4,1.9,2.9h-20.1L176.4,294.1z"/>
		<path class="st67" d="M179,295.6l-2.5-1.5l-1.3,10.5h1.8L179,295.6z"/>
		<path class="st107" d="M170.3,250c-3,0.9-3.3,0-5.3,5.7l4.2,0.4L170.3,250z"/>
		<path class="st59" d="M166.2,255.5l1.2-3.1c0.2-0.6,0.6-1.1,1.1-1.5c0.5-0.4,1.1-0.7,1.7-0.8l4.5-1l17.9-0.3l9.8,4.9
			c0.4,0.2,0.7,0.5,1,0.8c0.3,0.4,0.4,0.8,0.5,1.2l0.4,2.3l4.7,3.2c0.3,0.2,0.5,0.4,0.6,0.7c0.1,0.3,0.2,0.6,0.1,0.9
			c-1.2,10.7-12.3,27.2-27.8,19.9c-11.5-5.5-22.1-13.4-27.2-17.5l-2,2.6c-0.5-2.5,0-3.6,1.6-4.9l1.6-1.1c0.1-0.5,0.2-0.9,0.3-1.4
			c0.4-2-0.1-2.5,2.4-3.1L166.2,255.5z"/>
		<path class="st110" d="M169.8,252.9l5.6,3.8c1.9,1.2,3,3.5,0.3,2.5c-2.2-0.9-4.4-1.9-6.5-3.1c-1.6-1.1-1-1.4-0.8-2.3
			C168.6,252.9,168.9,252.3,169.8,252.9z"/>
		<path class="st60" d="M209,261.2l-4.7-3.2l-0.4-2.3c-0.1-0.4-0.2-0.8-0.5-1.2c-0.3-0.4-0.6-0.6-1-0.8l-9.8-4.9h-2.8l-11.3,24.3
			c1.1,5.3,2.6,6,4,7.2c1.3,1.2,1.3,1.3,0.9,2.9c14.7,5.7,25.1-10.1,26.3-20.5c0-0.3,0-0.6-0.1-0.9
			C209.5,261.6,209.3,261.3,209,261.2z"/>
		<path class="st111" d="M202.8,256.4c0.5,1.3,0.9,1.4,0,3.8c-1.4,3.2-3.1,6.2-5.2,9c-1.2,1.6-1.9,1.6,0-3.3c1.9-4.8,2.4-6,2.9-8.2
			C201,255.5,201.9,253.9,202.8,256.4z"/>
		<path class="st112" d="M168.2,258.4c3,4.2,6.6,7.8,10.8,10.8c3.3,2.3,2.2,1.1,0.7-1.6c-1.5-2.6-4.2-4-7.3-6.9
			C169.3,257.8,165.6,254.8,168.2,258.4z"/>
		<path class="st60" d="M156.7,261.5c0,0.2,0,0.4,0.1,0.6c0.1,0.2,0.2,0.3,0.4,0.4c8.1,4.5,19.6,10.1,23.7,11.5
			c4.1,1.4,1.7,0-3.5-3.4c-5.2-3.4-14.1-9-16.9-10.6C157.6,258.3,157.6,257.9,156.7,261.5z"/>
		<path class="st65" d="M174.9,250.2c-4.1,0.7-6.4,0.7,0,4.5C181.3,258.4,174.9,250.2,174.9,250.2z"/>
		<path class="st106" d="M186.3,237.1l0.9,3.7l2,0.3l-1.3-2.8l-0.1-1.9L186.3,237.1z"/>
		<path class="st67" d="M180,240.5l2.4,0.4C181.4,242.2,180.4,242,180,240.5z"/>
		<path class="st67" d="M188.7,239.6l2.4-0.7C190.9,240.5,189.8,240.9,188.7,239.6z"/>
		<path class="st37" d="M181.5,241c0.4,0,0.7-0.6,0.7-1.2c0-0.7-0.3-1.2-0.7-1.2s-0.7,0.6-0.7,1.2C180.8,240.4,181.1,241,181.5,241z
			"/>
		<path class="st37" d="M190.1,239.4c0.4,0,0.7-0.6,0.7-1.2c0-0.7-0.3-1.2-0.7-1.2s-0.7,0.6-0.7,1.2
			C189.4,238.8,189.7,239.4,190.1,239.4z"/>
		<path class="st7" d="M192.3,233.6c0.7,0.5,1.3,1,1.9,1.6c0.7,1.9,1,4.7,1.8,6.9c0.8,2.3,1.6,5.7,1.2,7.7c-0.4,2-0.1,2.1,1.1,4.7
			c1.2,2.5,3.5,5.1,2.7,8.2c1.3,1.9,1,3.3,0.5,5.1c-0.4,1.8-1.8,6.9-5.3,6.7c-1.1,1.6-2.7,2.8-4.5,3.5c-1.8,0.7-3.8,0.8-5.7,0.3
			c-5.4-1.4-10.9-5.1-10.2-10c-1.8-1.4-1.4-5.1-1.2-7.1c0.2-1.8-0.1-3.7-0.7-5.4c-0.7-1.8-0.7-3.5-0.2-7.2c-0.6-1.5-1-3.1-1.3-4.7
			c0.8-1.2,1.7-2.4,2.6-3.5l1.3,2.9c0.6,1.1,1.1,2.3,1.6,3.5c0.4-0.2,0.9-0.3,1.4-0.2c0.3-0.7,0.8-1.3,1.4-1.8
			c0.6-0.4,1.3-0.7,2.1-0.8l5.3,1.1l0.9-2.5c2.5-0.3,3.8-0.4,4.6,0.3c0.5-1.4,0.5-2.9,0.2-4.4C193.5,236.8,192.3,233.6,192.3,233.6z
			"/>
		<path class="st68" d="M188.7,247.1l-2-0.4c-1.1-0.3-0.9-0.4-3.7-2.7l5.3,1.1l0.9-2.5c2.5-0.3,3.8-0.4,4.6,0.3
			c0.5-1.4,0.6-2.9,0.2-4.4c-0.4-1.6-1.6-4.8-1.6-4.8c0.7,0.5,1.3,1,1.9,1.6c0.7,1.9,1,4.7,1.8,6.9c0.8,2.3,1.6,5.7,1.2,7.7
			c-0.4,2-0.1,2.1,1.1,4.7c1.2,2.5,3.5,5.1,2.7,8.2c1.3,1.9,1,3.3,0.5,5.1c-0.4,1.8-1.8,6.9-5.3,6.7c-1.1,1.6-2.7,2.8-4.5,3.5
			c-1.8,0.7-3.8,0.8-5.7,0.3c-5.4-1.4-10.9-5.1-10.2-10c1.7,4.7,5.2,3.8,5.2,3.8c2.2-0.5,4.4-0.7,6.6-0.6c1.2-2.2,2.7-4.4,4-5.3
			c2.5-5,0.6-10.4-0.7-13.4C189.8,249.6,188.7,247.1,188.7,247.1z"/>
		<path class="st69" d="M188.7,247.1c1.3,0.3,1.2-0.9,1.1-2.1c-0.1-0.9-0.3-1.7-0.7-2.5l-0.9,2.5l-5.3-1.1c2.8,2.4,2.6,2.5,3.7,2.7
			L188.7,247.1z"/>
		<path class="st4" d="M178.6,239l5-1.5c-0.9-0.4-1.9-0.5-2.8-0.3C179.9,237.5,179.1,238.2,178.6,239z"/>
		<path class="st4" d="M187.2,237.1l5-1c-0.4-0.3-0.8-0.5-1.3-0.6c-0.5-0.1-0.9-0.1-1.4,0c-0.5,0.1-0.9,0.3-1.3,0.5
			C187.8,236.3,187.4,236.7,187.2,237.1z"/>
		<path class="st67" d="M184.5,242.1l1.7,1.1l-2.2-0.4c-0.3,0-0.3-0.1-0.2-0.4C183.9,241.9,184.2,241.9,184.5,242.1z"/>
		<path class="st70" d="M190.9,248.9c0,0.3-0.1,0.7-0.3,0.9c-0.2,0.3-0.5,0.4-0.9,0.5c-5.4,0.8-7.6-0.6-8.5-1.2
			c-0.1-0.1-0.2-0.2-0.2-0.4s-0.1-0.3,0-0.4v-0.2c2.8,1,7,0.5,8.1,0.4c1.1-0.2,0.6-0.4,0.5-0.9c0.4,0,0.7,0.1,1,0.4
			C190.7,248.2,190.8,248.5,190.9,248.9z"/>
		<path class="st113" d="M188.7,250.4c-0.6-0.6-1.3-1.2-1.9-1.8c-2,0.2-4,0-6-0.5v0.2c0,0.1,0,0.3,0,0.4s0.1,0.3,0.2,0.4h0.1
			C182,249.7,184.1,250.9,188.7,250.4z"/>
		<path class="st114" d="M181,298.7h-20.3v5.9H181V298.7z"/>
		<path class="st115" d="M166.4,298.7l-1.6,4.2h-2.6l1.8-4.2H166.4z"/>
		<path class="st116" d="M180.9,298.7h-11.7v5.9h11.7V298.7z"/>
		<path class="st71" d="M184.3,225.7c0.9-0.4,1-2.1,0.3-3.7c-0.8-1.6-2.1-2.6-3.1-2.1c-0.9,0.4-1,2.1-0.3,3.7
			C182,225.2,183.4,226.1,184.3,225.7z"/>
		<path class="st114" d="M120.9,295.2l-6.2,4.8c-0.1,0.1-0.2,0.1-0.3,0.2c-0.1,0-0.2,0-0.4,0c-0.1,0-0.2-0.1-0.4-0.1
			c-0.1-0.1-0.2-0.2-0.3-0.3l-6.9-9.4c-0.1-0.2-0.2-0.4-0.1-0.7c0-0.2,0.1-0.5,0.3-0.6l6.2-4.7c0.1-0.1,0.2-0.1,0.3-0.2s0.2,0,0.4,0
			c0.1,0,0.2,0.1,0.4,0.1c0.1,0.1,0.2,0.2,0.3,0.3l6.9,9.3c0.1,0.1,0.1,0.2,0.2,0.3c0,0.1,0,0.2,0,0.4c0,0.1-0.1,0.2-0.1,0.4
			C121.1,295,121,295.1,120.9,295.2z"/>
		<path class="st114" d="M130.7,295.3l-7.4-0.5c-0.2,0-0.3-0.1-0.4-0.2c-0.1-0.1-0.2-0.3-0.2-0.4l0.5-12.3c0-0.2,0.1-0.3,0.2-0.4
			c0.1-0.1,0.3-0.2,0.5-0.2l7.4,0.5c0.2,0,0.3,0.1,0.4,0.2c0.1,0.1,0.2,0.3,0.2,0.5l-0.5,12.2c0,0.1,0,0.2-0.1,0.3
			c0,0.1-0.1,0.2-0.2,0.2c-0.1,0.1-0.1,0.1-0.2,0.1C130.9,295.3,130.8,295.3,130.7,295.3z"/>
		<path class="st117" d="M130.8,287l-3.1-3.7l-3.9,3.3l3.1,3.7L130.8,287z"/>
		<path class="st118" d="M130.8,293.6c0.2,0,0.3-0.1,0.4-0.3c0.1-0.1,0.1-0.3,0.1-0.5l-2.9-11.3l-4.5-0.4c-0.2,0-0.3,0.1-0.5,0.2
			c-0.1,0.1-0.2,0.3-0.2,0.4l-0.5,12.3c0,0,0,0.1,0,0.1c0,0,0,0.1,0.1,0.1c0.1,0.1,0.1,0.1,0.2,0.1c0.1,0,0.2,0,0.2,0L130.8,293.6z"
			/>
		<path class="st114" d="M129.8,293.5l-7.5,0.9c-0.1,0-0.2,0-0.2,0c-0.1,0-0.2,0-0.2-0.1c-0.1,0-0.1-0.1-0.2-0.2
			c0-0.1-0.1-0.1-0.1-0.2l-3-12c0-0.1,0-0.2,0-0.3c0-0.1,0-0.2,0.1-0.2c0.1-0.1,0.1-0.1,0.2-0.2c0.1,0,0.2-0.1,0.3,0l7.5-1
			c0.1,0,0.3,0,0.4,0.1c0.1,0.1,0.2,0.2,0.3,0.3l3,12c0,0.1,0,0.2,0,0.3s0,0.2-0.1,0.3c-0.1,0.1-0.1,0.1-0.2,0.2
			C130,293.5,129.9,293.5,129.8,293.5z"/>
		<path class="st117" d="M127.7,285.9l-3.9-2.9l-3,4.1l3.9,2.9L127.7,285.9z"/>
		<path class="st117" d="M116.2,289.4h-4.8v5.1h4.8V289.4z"/>
		<path class="st118" d="M125.4,291.8l-4.9-10.7l-1.2,0.2c-0.1,0-0.2,0-0.3,0c-0.1,0-0.1,0.1-0.2,0.2c-0.1,0.1-0.1,0.2-0.1,0.2
			c0,0.1,0,0.2,0,0.3l3,11.9l3.3-1.1c0.1,0,0.2-0.1,0.2-0.1c0.1-0.1,0.1-0.1,0.2-0.2c0-0.1,0-0.2,0-0.3
			C125.4,292,125.4,291.9,125.4,291.8z"/>
		<path class="st118" d="M114.1,284.6c-0.1-0.1-0.2-0.2-0.3-0.3c-0.1-0.1-0.2-0.1-0.4-0.1c-0.1,0-0.3,0-0.4,0s-0.2,0.1-0.3,0.2
			l-2.3,1.8l4.7,10.4c0.1,0.2,0.2,0.3,0.3,0.3c0.1,0.1,0.3,0.1,0.5,0l4.8-1.6c0.1-0.1,0.2-0.2,0.3-0.3c0.1-0.1,0.1-0.2,0.1-0.4
			c0-0.1,0-0.3,0-0.4c0-0.1-0.1-0.2-0.2-0.3L114.1,284.6z"/>
		<path class="st114" d="M124.5,293.3l-8,2.6c-0.4,0.1-0.7,0-0.8-0.4l-5.2-11.2c0-0.1,0-0.2,0-0.3c0-0.1,0-0.2,0.1-0.2
			c0-0.1,0.1-0.1,0.2-0.2c0.1-0.1,0.1-0.1,0.2-0.1l8-2.7c0.2,0,0.3,0,0.5,0c0.1,0.1,0.3,0.2,0.3,0.3l5.1,11.2c0,0.1,0.1,0.2,0.1,0.3
			c0,0.1,0,0.2,0,0.3c0,0.1-0.1,0.2-0.2,0.2C124.7,293.2,124.6,293.2,124.5,293.3z"/>
		<path class="st119" d="M106.5,299.6c-1.1-1.4-2-2.5-3.6-3c-3.2-0.8-6.9-1.3-11.2-2c-1-0.2-2.1-0.1-3.1,0.4c-3,1.2-4,3.3-2.1,9.8
			h18c0.5-0.4,1-0.9,1.5-1.4C107.3,301.6,107.4,300.9,106.5,299.6z"/>
		<path class="st120" d="M127.1,288.6c3,1.5,7.1,4,7.1,4c0.7,0.4,1.4,1,1.8,1.8c0.4,0.7,0.7,1.6,0.7,2.4v0.8c0,0.7-0.1,1.4-0.3,2.1
			c-0.2,0.7-0.6,1.3-1.1,1.8c-0.5,0.5-1,0.9-1.7,1.2c-0.6,0.3-1.3,0.5-2,0.5h-0.6c-0.7-0.1-1.4-0.3-2-0.6c-0.6-0.4-1.1-0.8-1.5-1.4
			c-1-1.3-2.1-2.6-3.3-3.7c-0.6-0.6-2.3-1.6-2.8-2.2c-0.5-0.6-1.4-2.8,0-5C122.9,288,123.7,286.9,127.1,288.6z"/>
		<path class="st121" d="M106.6,256.4c0.8-0.6,0.7-2-0.2-3.1c-0.9-1.1-2.2-1.5-3-0.9c-0.8,0.6-0.7,2,0.2,3.1
			C104.5,256.6,105.8,257,106.6,256.4z"/>
		<path class="st121" d="M122.7,252.5c0.2-1.3-0.3-2.5-1.2-2.6c-0.9-0.2-1.8,0.7-2.1,2c-0.2,1.3,0.3,2.5,1.2,2.6
			C121.6,254.7,122.5,253.8,122.7,252.5z"/>
		<path class="st104" d="M191.5,315.4h-15.8v93h15.8V315.4z"/>
		<path class="st103" d="M191.5,315.4H181v93h10.5V315.4z"/>
		<path class="st103" d="M191.5,315.4h-15.8v16.9h15.8V315.4z"/>
		<path class="st104" d="M321,304.7H58c-0.8,0-1.5,0.7-1.5,1.5V318c0,0.8,0.7,1.5,1.5,1.5h263c0.8,0,1.5-0.7,1.5-1.5v-11.8
			C322.5,305.4,321.9,304.7,321,304.7z"/>
		<path class="st122" d="M321,304.7H185.6c-0.8,0-1.5,0.7-1.5,1.5V318c0,0.8,0.7,1.5,1.5,1.5H321c0.8,0,1.5-0.7,1.5-1.5v-11.8
			C322.5,305.4,321.9,304.7,321,304.7z"/>
		<path class="st80" d="M144.4,204.1l3.6-1.6c0.1-0.1,0.1-0.2,0-0.2l-3.6-1.6l-1.7-3.7c0-0.1-0.1-0.1-0.1,0l-1.7,3.6l-3.6,1.7
			c-0.1,0-0.1,0.1,0,0.2l3.6,1.6l1.7,3.6h0.1L144.4,204.1z"/>
		<path class="st105" d="M388,377.9l3.7-1.6v-0.2l-3.7-1.6l-1.6-3.6h-0.2l-1.6,3.6h-0.1l-3.6,1.6c-0.1,0-0.1,0.1,0,0.2l3.6,1.6h0.1
			l1.6,3.7h0.2L388,377.9z"/>
		<path class="st34" d="M27.1,306.4l3.6-1.7c0.1,0,0.1-0.1,0-0.1l-3.6-1.7H27l-1.6-3.6h-0.2l-1.6,3.6l-3.6,1.7c-0.1,0-0.1,0.1,0,0.1
			l3.6,1.7l1.6,3.6h0.2L27.1,306.4L27.1,306.4z"/>
		<path class="st72" d="M184.6,222c-0.8-1.7-2.2-2.6-3.1-2.2c-0.1,0.1-0.2,0.1-0.3,0.2c-0.1,0.1-0.1,0.2-0.2,0.3
			C182.6,220.2,181.8,222,184.6,222z"/>
		<path class="st73" d="M180.8,221.4c0,0.7,0.2,1.4,0.5,2l0.3,0.5c0.4,0,0.9-0.2,1.2,0.3c0.4,0.4,0.5,1.1,1.6,1.3
			c0.2-0.2,0.4-0.4,0.5-0.7c0.1-0.3,0.1-0.6,0.1-0.9h-0.2C183,224,181.9,222.1,180.8,221.4z"/>
		<path class="st61" d="M175.3,231.4c0.5,0,0.9-0.5,0.9-1.1c0-0.6-0.4-1.1-0.9-1.1c-0.5,0-0.9,0.5-0.9,1.1
			C174.4,230.9,174.8,231.4,175.3,231.4z"/>
		<path class="st61" d="M170.5,239c0.5,0,0.9-0.5,0.9-1.1c0-0.6-0.4-1.1-0.9-1.1c-0.5,0-0.9,0.5-0.9,1.1
			C169.7,238.5,170.1,239,170.5,239z"/>
		<path class="st123" d="M166.5,176l-1.9,6l-4.7,2.5L166.5,176z"/>
		<path class="st74" d="M172.6,243.8c0.3,1.4,0.6,2.7,1.1,4c0.1-1.1,0.5-2.4,1.2-2.5s0.8-2.1,1.7-2.1l-1.3-2.9
			C174.3,241.4,173.4,242.5,172.6,243.8z"/>
		<path class="st68" d="M175.5,267.7c0.1,0.2,0.3,0.4,0.5,0.5L175.5,267.7z"/>
		<path class="st68" d="M181.6,253.3c2.2,1.2,3.2,2,3.2,4.1C183.4,256.3,182.3,254.9,181.6,253.3z"/>
		<path class="st7" d="M191.5,253.6c2.2,2.2,3.1,3.8,3.2,5c-0.9-0.3-1.7-0.8-2.5-1.4L191.5,253.6z"/>
		<path class="st68" d="M174.9,250.2c0.1,1.4,0.5,2.7,1.1,4C174.4,253,174.4,252,174.9,250.2z"/>
		<path class="st68" d="M180.1,260.6c1.3,2,4.5,2,4.5,2C181.7,264.2,180.5,264.2,180.1,260.6z"/>
		<path class="st124" d="M194.4,244c0.7,1.1,1.1,2.4,1,3.8C195.3,247.8,197.8,245.7,194.4,244z"/>
		<path class="st124" d="M198.4,262.1c0.5,1.8,0,3.5-1.1,4C197.3,264.7,197.7,263.4,198.4,262.1z"/>
		<path class="st67" d="M182.9,235.9c1.9-0.6,3.9-1,5.9-1.4C185.8,234.3,183.9,234.8,182.9,235.9z"/>
		<path class="st67" d="M177.3,240c0.5-0.2,1.1-0.5,1.7,0H177.3z"/>
		<path class="st67" d="M177.6,241.1c0.4-0.4,0.8-1,1.5-0.7L177.6,241.1z"/>
		<path class="st67" d="M192.9,236.7c-0.5,0.2-1.2,0.3-1.3,1.1L192.9,236.7z"/>
		<path class="st67" d="M193.4,237.8c-0.5-0.1-1.2-0.3-1.7,0.4L193.4,237.8z"/>
		<path class="st125" d="M185,239.8c0.1,0.8,0.5,1.6,1.1,2.2c0.4,0.3,0.1-0.4-0.4-1.4C185.1,239.5,184.8,239.1,185,239.8z"/>
		<path class="st68" d="M181.8,247.5c-0.2,0-0.4,0-0.6,0.1c-0.2,0.1-0.3,0.3-0.4,0.5c2.8,1,7,0.5,8.1,0.4c1.1-0.2,0.6-0.4,0.5-0.9
			h-0.1C186.8,247.8,184.3,247.8,181.8,247.5z"/>
		<path class="st74" d="M194.3,235.2c-0.6-0.6-1.2-1.1-1.9-1.6c0,0,0.7,2,1.2,3.7l1.5,0.9C194.9,237.1,194.6,236.1,194.3,235.2z"/>
		<path class="st126" d="M160.5,290.8c-8,3.6-10.9,3.9-12.1,4.1c-1.2,0.3-2.7,0.6,0,2.5c2.7,1.8,3.2,2.1,7.5-1.2
			C160.2,292.8,164.1,289.2,160.5,290.8z"/>
		<path class="st108" d="M163.1,285.6c-0.9-3.4-2-6.7-3.3-9.9c-0.8-1.7-0.4-2.5,0.4-2.9c0.7-0.4,1-0.1,1.5,1.8l2.3,10.5L163.1,285.6
			z"/>
		<path class="st126" d="M153.1,274.7c2.9,3.6,4.5,5.3,5.4,6.7c0.9,1.4,0.6,1.1-3.5,0.7c-4.1-0.4-6.5-0.3-6.2-1.8
			c0.6-1.9,1.3-3.8,2.1-5.6C151.2,273.7,152,273.4,153.1,274.7z"/>
		<path class="st67" d="M193.4,302.5l-6.2-1.9c-1.9-0.6,1.1,0.8,3.5,1.4c2.4,0.6,2.7,1.2,2.7,1.7c0,0.2-0.1,0.4-0.3,0.6
			c-0.1,0.2-0.3,0.3-0.5,0.4h1.6l0.3-0.7C194.7,303.2,194.4,302.7,193.4,302.5z"/>
		<path class="st127" d="M180.9,299.9h-18.6v0.4h18.6V299.9z"/>
		<path class="st127" d="M181,301.7h-20.3v0.4H181V301.7z"/>
		<path class="st127" d="M181,303.6h-20.3v0.4H181V303.6z"/>
		<path class="st114" d="M257.2,298.4h-21.4v6.3h21.4V298.4z"/>
		<path class="st115" d="M241.8,298.4l-1.7,4.3h-2.8l1.8-4.3H241.8z"/>
		<path class="st127" d="M257.2,299.7h-19.7v0.5h19.7V299.7z"/>
		<path class="st127" d="M257.2,301.5h-21.4v0.5h21.4V301.5z"/>
		<path class="st127" d="M257.2,303.6h-21.4v0.5h21.4V303.6z"/>
		<path class="st128" d="M160.8,336.9c-6.7,29.4-5.5,26.5-4.4,30.2c1.1,3.8,1.8,4.1,3.3-3.8c1.4-7.9,2.2-14.6,3.1-22.1
			C163.6,333.9,163.1,326.7,160.8,336.9z"/>
		<path class="st90" d="M198.8,402.6c3.8-1.5,7.7-2.7,11.7-3.6c2-0.5,2.8-0.6,3.6-6.2c0.8-5.5,1.3-11.7,1.4-13
			c0.1-1.3-4.2,5.7-7.6,10.5C204.6,395,194,404.4,198.8,402.6z"/>
		<path class="st129" d="M111.1,259.6l2.3,1.5c0.4,0.2,0.8,0.4,1.2,0.4c0.4,0.1,0.8,0,1.3-0.1c0.4-0.1,0.8-0.3,1.1-0.6
			c0.3-0.3,0.6-0.6,0.8-1l0.8-1.5"/>
		<path class="st130" d="M83.3,259.9c-2.1-0.5-4.7-1.2-5.7-1.3c1,1.2,2.3,2.1,3.7,2.6l-0.4,0.4c2.6,0,4.6-0.2,5.5-0.3
			C87.4,261.2,87.6,260.8,83.3,259.9z"/>
		<path class="st131" d="M81.3,248.4c1.4-1.5,2-3.1,1.5-3.7c-0.6-0.5-2.2,0.3-3.5,1.8c-1.4,1.5-2,3.1-1.5,3.7
			C78.3,250.7,79.9,249.9,81.3,248.4z"/>
		<path class="st132" d="M80.9,295.1l4.8-2c1.1-0.4,0.2-0.7-2-1.7c-2.2-1-2.7-1.3-2.9,0.6C80.6,294,80,295.5,80.9,295.1z"/>
		<path class="st133" d="M86.6,294.1c-4.9,1.3-5,2-5.1,2.8c-0.1,0.8,0,1.7,1.8,0.3c1.5-1.1,3.1-2.1,4.8-2.9
			C89.1,293.9,88.6,293.6,86.6,294.1z"/>
		<path class="st98" d="M93,294c0.9-4.9,0.8-6.2,1.2-6.3c0.4-0.1,1.2,1.1,1.9,2.6C96.9,291.9,93,294,93,294z"/>
		<path class="st134" d="M88.6,294.9c-3,1.2-4,3.3-2.1,9.8H87c-1.5-9.8,2.7-9.8,4.7-10.1C90.7,294.4,89.6,294.5,88.6,294.9z"/>
		<path class="st134" d="M103.3,296.8c1.1,0.7,0.6,1.9-0.4,4l-1.9,3.9h3.5c0.5-0.4,1-0.9,1.5-1.4c1.3-1.7,1.4-2.4,0.4-3.7
			C105.7,298.4,104.6,297.4,103.3,296.8z"/>
		<path class="st135" d="M136.8,296.8c0-0.9-0.3-1.7-0.7-2.4c-0.4-0.7-1.1-1.4-1.8-1.8c0,0-3.3-2-6.2-3.5c-1.6,1.6-3,3.4-4.1,5.4
			c-0.3,0.7-0.6,1.4-0.7,2.1c0.4,0.2,0.8,0.5,1.1,0.8c1.2,1.1,2.3,2.4,3.3,3.7c0.6,0.9,1.5,1.5,2.5,1.8c1.2,0.4,2.5,0.3,3.6-0.2
			c1-0.4,1.9-1.2,2.4-2.1c0.6-0.9,0.8-2,0.7-3.1V296.8z"/>
		<path class="st117" d="M121.4,287.1l-4.3-2.2l-2.3,4.5l4.3,2.2L121.4,287.1z"/>
		<path class="st78" d="M142.8,348.5l2.2,2.3c0.3,0.3,0.5,0.7,0.5,1.1s0,0.8-0.1,1.2l-1.1,2.4L142.8,348.5z"/>
		<path class="st78" d="M109.4,348.5l-0.4,5.8c0,0.4,0,0.8,0.1,1.1s0.4,0.7,0.7,0.9l2.5,2.3L109.4,348.5z"/>
		<path class="st136" d="M131.3,350.8l12.8,1.1l-4.1,2.1c-1,0.5-2.1,0.7-3.2,0.5c-1.1-0.1-2.1-0.6-2.9-1.3L131.3,350.8z"/>
		<path class="st136" d="M120.6,352l-7.6,3.9C113.1,355.8,118.7,360.6,120.6,352z"/>
		<path class="st83" d="M68.5,274.5c1.8,0,3.3-1.5,3.3-3.3c0-1.8-1.5-3.3-3.3-3.3c-1.8,0-3.3,1.5-3.3,3.3
			C65.2,273.1,66.7,274.5,68.5,274.5z"/>
		<path class="st137" d="M113.8,304.7l4,3.4l2.5-3.4H113.8z"/>
		<path class="st88" d="M234.2,250.7H234c-0.7,0-1.3,0.3-1.8,0.7c-0.5,0.4-0.9,1-1,1.6l-3.2,11.9L227,266c-0.2,0.2-0.4,0.5-0.5,0.8
			c-0.1,0.3-0.1,0.6-0.1,0.9l0.3,2.4c1,5.1,0.9,0.4,4-0.4c3.1-0.8,0.8-2.5,1.2-3.7c2-3,3.3-6.4,3.9-10l2.6-4.8
			C237,250.8,235.6,250.6,234.2,250.7z"/>
		<path class="st62" d="M233.9,251.6c-0.3,0-0.5,0.1-0.7,0.2c-0.2,0.1-0.4,0.3-0.6,0.5c-0.1,0.2-0.2,0.5-0.2,0.7s0,0.5,0.1,0.8
			c1.9,3.3,7.7,7.1,12.1,8.5c4.4,1.4,4.5,0.3,1.7-2.9C243.5,256.2,240.8,251.1,233.9,251.6z"/>
		<path class="st62" d="M244.6,262.3c-4.1-1.5-7.9-3.8-11-6.9l-1.1-1.6c-0.1-0.2-0.1-0.5-0.1-0.8s0.1-0.5,0.2-0.7
			c0.1-0.2,0.3-0.4,0.6-0.5c0.2-0.1,0.5-0.2,0.7-0.2h0.1c5.9-0.4,8.4,2.8,11.1,6.2c0.4,0.6,0.8,1.2,1.3,1.7
			C249.1,262.6,250,264,244.6,262.3z"/>
		<path class="st62" d="M244.6,262.3h-0.3c-3.1-1.1-6-2.7-8.5-4.8l-1.8-1.6l-0.4-0.5c-0.4-0.5-0.8-1-1.1-1.5
			c-0.1-0.2-0.1-0.5-0.1-0.8c0-0.3,0.1-0.5,0.2-0.7c0.1-0.2,0.3-0.4,0.6-0.5c0.2-0.1,0.5-0.2,0.7-0.2h0.8c0.8-0.1,1.6,0,2.4,0.2
			c3.8,0.6,5.8,3.3,8,6l0.3,0.4l1,1.1C249.1,262.6,250,264,244.6,262.3z"/>
		<path class="st109" d="M215.7,290.4c0.2-6,0-11.9-0.5-17.8c-0.4-3,0.9-1.5,2.1,1.1c1.2,2.6,0.5,6.9,0,11.5
			C216.8,289.8,215.6,292.5,215.7,290.4z"/>
		<path class="st109" d="M213.4,280.5c-4.4,13.2-15.5,24.2-15.5,24.2h4.8c5.5-4.5,9.2-10.8,10.6-17.8
			C214.7,280.6,215,275.6,213.4,280.5z"/>
		<path class="st109" d="M226.3,272.9c-0.5,5.3-0.6,10.7-0.3,16c0.4,4.2-1.3,1.7-2.5-0.6c-1.1-2.3-0.3-3,0.4-7.2
			c0.7-4.2,0.8-5.4,1.1-7.6C225.5,271.3,226.4,270,226.3,272.9z"/>
		<path class="st138" d="M230.1,273.7c-0.1,5.3,1.1,9.3,3.5,9.2c1.9-0.1,3.7-0.8,5.3-1.8c1.1-0.7,0.4-0.9-1.5-1.8
			c-1.8-0.9-3.4-2.3-4.5-4C232.1,273.7,230.2,270,230.1,273.7z"/>
		<path class="st64" d="M246.4,253.5l-1.1,4.7l-0.9,3.9c0,0.1-10.3-6.7-10.3-6.9c0.1-0.3,0.2-0.5,0.2-0.8c0.1-0.4,0.2-0.8,0.2-1.1
			c0.1-0.3,0.1-0.6,0.2-0.9v-0.8c0.1-0.9,0.1-1.9,0.1-2.8v-0.9c-0.2-4-0.4-10-0.4-10c9.7-0.4,12.8,2.7,12.8,2.7
			C247.8,249.2,247,251.2,246.4,253.5z"/>
		<path class="st64" d="M235,251.4c0-1.1-0.2-2.2-0.6-3.2c-0.5-1-1.1-1.9-2-2.6c-1.4-1-1.6-1.6-2.4-2.9c-0.8-1.3-1.1-1.8-1.6-2.3
			c-0.1-0.2-0.2-0.5-0.1-0.8s0.2-0.5,0.4-0.7c0.4-0.4,1.3-0.6,2.5,0.1c1.1,0.7,3.3,2.5,4.9,3.6C237.6,243.7,239.2,249.7,235,251.4z"
			/>
		<path class="st64" d="M234.8,244c-0.2-3.4-0.8-9.9-0.9-11.3c-0.2-1.5-0.2-2.9-0.1-4.4c0.1-0.7,0.1-1.2,1.1-1.2
			c1,0,1.6,1.1,1.8,3.3c0.3,2.2,0.4,3.4,0.4,3.4c0.6,1.8,1,3.5,1.3,5.4C238.5,241,234.8,244,234.8,244z"/>
		<path class="st64" d="M238.1,238.5c0.1-2.9,0.8-9.9,1-11.5c0.2-1.6,0.4-1.9,1.3-1.8c0.9,0.1,1.8,0.3,1.4,5.2
			c-0.3,2.5-0.3,4.1-0.3,4.1s0,4.3-0.1,5.5C241.4,241.2,238.1,238.5,238.1,238.5z"/>
		<path class="st64" d="M241.3,238.8c0.4-3.1,1.1-7.8,1.2-9.2c0.2-1.4,0.5-2.2,1.5-1.9c1,0.3,1.5,1,1.2,3.5c-0.3,2.5-0.4,4.3-0.5,5
			c-0.1,0.7-0.3,4.6-0.3,4.6L241.3,238.8z"/>
		<path class="st64" d="M244.1,240.5c0.6-2.7,1.5-6.8,1.8-8.1c0.3-1.3,0.6-1.8,1.6-1.6c1,0.3,1.3,1,0.9,3.3
			c-0.3,1.4-0.6,2.9-0.7,4.3l-0.6,4L244.1,240.5z"/>
		<path class="st67" d="M234.5,241.5c2.1,1.3,4.5,1.8,5.4,3.3c0.8,1,1.4,2.1,1.8,3.3c0.2,1,0.4,0.6,1.3-0.6c0.9-1.2,1.7-2.2,2-3.3
			c0.4-1.1-0.1-1.9-3.7-2.5l-6.8-1V241.5z"/>
		<path class="st139" d="M237.2,251.1c0,0.2,0,0.5-0.1,0.7c-0.2,1.1-0.6,3.1-1,4.7c-0.1,0.3-1.9-1.1-1.9-1.3
			c0.1-0.3,0.2-0.5,0.2-0.8c0.1-0.4,0.2-0.8,0.2-1.1c0.1-0.3,0.1-0.6,0.2-0.9v-0.8c0.1-0.6,0.1-1.2,0.1-1.8c-0.2-1-0.6-2-1.1-2.9
			l1.1,1C237,249.8,237.2,250.1,237.2,251.1z"/>
		<path class="st62" d="M233.5,253.3l-0.6,1.1l0.8,1.1c3.1,3.1,6.9,5.5,11,6.9h0.5C236.4,257.7,233.5,253.3,233.5,253.3z"/>
		<path class="st67" d="M235.3,235c0.6,0,1.3-0.1,1.8-0.4C237.2,234.6,235.8,233,235.3,235z"/>
		<path class="st67" d="M235.1,231.6c0.5,0.1,1.1,0,1.6-0.2C236.6,231.5,235.3,230.5,235.1,231.6z"/>
		<path class="st67" d="M239.5,234.2c0.6,0.2,1.2,0.3,1.8,0.2C241.4,234.4,240.2,232.9,239.5,234.2z"/>
		<path class="st67" d="M236.6,238.3c3,0,6.1,0.4,9.1,1.1c1.7,0.5,1.6,1.1-1,0.5c-2.3-0.5-4.7-0.9-7-1.1
			C236.3,238.6,235.1,238.3,236.6,238.3z"/>
		<path class="st67" d="M240.2,230.1c0.5-0.7,1.2-0.1,1.3,0.4C241.6,231.1,240.3,231.3,240.2,230.1z"/>
		<path class="st140" d="M218.1,290.3c2.3,0,4.2-1.9,4.2-4.2c0-2.3-1.9-4.2-4.2-4.2c-2.3,0-4.2,1.9-4.2,4.2
			C213.9,288.4,215.8,290.3,218.1,290.3z"/>
		<path class="st140" d="M222.3,287.5c1.2,0,2.1-0.9,2.1-2.1c0-1.2-0.9-2.1-2.1-2.1c-1.2,0-2.1,0.9-2.1,2.1
			C220.2,286.6,221.2,287.5,222.3,287.5z"/>
		<path class="st141" d="M223.1,285h-12.5c-2.5,6.3-2.5,13.4,0,19.8h12.5C225.6,298.4,225.6,291.4,223.1,285z"/>
		<path class="st142" d="M214.1,285c-1.3,6.5-1.5,13.2-0.5,19.8h0.6l0.6-19.8H214.1z"/>
		<path class="st142" d="M219.7,285c2,7.6,0.9,19.8,0.9,19.8h-0.9l-0.8-19.8H219.7z"/>
		<path class="st143" d="M209.7,301.8c-0.4-5.3,1.6-12.8,3.3-16.8h-2.3C208.5,290.3,208.2,296.2,209.7,301.8z"/>
		<path class="st140" d="M217.2,285c2.6,2.4,3.4,0,3.4,0l-2.4-0.9L217.2,285z"/>
		<path class="st144" d="M42.7,375.3c3.2-7.6,18.1-8.9,10.9,8h-9.5L42.7,375.3z"/>
		<path class="st145" d="M39.5,383.3c0,0-9.1-11-4.9-17.6c4.1-6.6,14.1-2.4,12.6,17.6H39.5z"/>
		<path class="st145" d="M36.4,366.6c-5.8-7.3-15.6-7-15.6-0.9c0.1,6.2,15.6,2.5,15.6,2.5V366.6z"/>
		<path class="st145" d="M44.1,343.9c-7.1,1.2-2.9,9.8-5.2,21.3l3.8,2.5C50.9,356.5,51.3,342.7,44.1,343.9z"/>
		<path class="st145" d="M31.1,359.7c0.4-1.9-0.4-3.7-1.7-3.9c-1.3-0.3-2.7,1-3.1,2.9c-0.4,1.9,0.4,3.7,1.7,3.9
			S30.7,361.6,31.1,359.7z"/>
		<path class="st144" d="M50.2,373.1c0-12.3,1.2-17.4,4.7-17.3c3.4,0.1-2.4,17.8-2.4,17.8L50.2,373.1z"/>
		<path class="st145" d="M46.2,348.5c3.3-6.2,9-4.7,6.9,0c-0.2,0.6-0.6,1.2-1,1.6c-0.5,0.5-1,0.8-1.6,1c-0.6,0.2-1.3,0.3-1.9,0.2
			c-0.6-0.1-1.3-0.3-1.8-0.6L46.2,348.5z"/>
		<path class="st145" d="M52.1,378.3c5.6-10.9,10.9-19.1,15.4-13.1c4.5,6-12.7,20.5-12.7,20.5h-2.7V378.3z"/>
		<path class="st145" d="M62.1,366.1c-2.5-5.2-4.2-9.4-2.5-13.3c1.7-3.9,9.8-3.4,5.1,12.8L62.1,366.1z"/>
		<path class="st146" d="M45.4,385c2.2-8.3,8-8.9,9.8-6.4c1.8,2.5-3.3,6.2-3.3,6.2L45.4,385z"/>
		<path class="st147" d="M59.5,408.4H37.7l-6.9-12.6l1.2-12.6h33.2l1.4,12.6L59.5,408.4z"/>
		<path class="st148" d="M30.8,395.8h9.6l1.2-12.6H32L30.8,395.8z"/>
		<path class="st146" d="M29.4,355.8c-1.3-0.3-2.7,1.1-3.2,3c-0.1,0.8-0.1,1.5,0.2,2.3c-2.5-0.1-4.5,0.9-5.2,2.7c1.9-0.7,4-1,6-0.7
			c0,0-0.5-4.6,2.4-7.2L29.4,355.8z"/>
		<path class="st146" d="M46.2,348.5l6.2-3.9C50.8,343.9,48.1,344.9,46.2,348.5z"/>
		<path class="st146" d="M39.8,358c0.8-6.2,1.4-10.5,4.4-14.2C38.6,344.9,39.9,350.2,39.8,358z"/>
		<path class="st146" d="M59.5,352.8c-0.7,1.8-0.9,3.9-0.4,5.8l3.8-7.7c-0.7-0.1-1.4,0-2,0.4C60.3,351.7,59.8,352.2,59.5,352.8z"/>
		<path class="st146" d="M37,368.7l-0.6,1.4l1.8-0.4L37,368.7z"/>
		<path class="st146" d="M45.4,353.6l-1.8,2.2l2.5,0.1L45.4,353.6z"/>
		<path class="st146" d="M61.6,368.7l-1.3,1.4l1.9,0.4L61.6,368.7z"/>
		<path class="st144" d="M44.1,373.9v2l1.8-1L44.1,373.9z"/>
		<path class="st34" d="M39.6,341.5c0.1,0.5,0.4,1,0.7,1.5c0.3,0.4,0.7,0.8,1.2,1.1c0.5,0.3,1,0.5,1.5,0.5c0.5,0.1,1.1,0.1,1.6-0.1
			c0.5-0.1,1-0.4,1.5-0.7c0.4-0.3,0.8-0.7,1.1-1.2c0.3-0.5,0.5-1,0.5-1.5c0.1-0.5,0.1-1.1-0.1-1.6L39.6,341.5z"/>
	</g>
</g>
</svg>
