<?xml version="1.0" encoding="utf-8"?>
<!-- Generator: Adobe Illustrator 26.1.0, SVG Export Plug-In . SVG Version: 6.00 Build 0)  -->
<svg version="1.1" id="Layer_1" xmlns="http://www.w3.org/2000/svg" xmlns:xlink="http://www.w3.org/1999/xlink" x="0px" y="0px"
	 viewBox="0 0 678 396.1" style="enable-background:new 0 0 678 396.1;" xml:space="preserve">
<style type="text/css">
	.st0{fill:#292841;}
	.st1{fill-rule:evenodd;clip-rule:evenodd;fill:#B9BBBE;}
	.st2{fill:#FFFFFF;}
	.st3{fill:#1C1B29;}
	.st4{fill:#C4C4C4;filter:url(#Adobe_OpacityMaskFilter);}
	.st5{mask:url(#mask0_00000153664264878002100340000017815707468843213708_);}
	.st6{fill:#CFDEFF;}
	.st7{fill:#B8C5FF;}
	.st8{fill:#5697B0;}
	.st9{fill:#7CE4CC;}
	.st10{fill:#AAFAE7;}
	.st11{opacity:0.74;fill:url(#SVGID_1_);enable-background:new    ;}
	.st12{fill:#2C4661;}
	.st13{fill:#738EFF;}
	.st14{opacity:0.41;fill:#284E7A;enable-background:new    ;}
	.st15{fill:#61C7C7;}
	.st16{fill:#21354A;}
	.st17{fill:#D4FFDC;}
	.st18{fill:#335A70;}
	.st19{fill:#B2A6FF;}
	.st20{fill:#2DDFB4;}
	.st21{fill:#72767D;}
	.st22{fill:#DCDDDE;}
	.st23{fill:#C4C4C4;filter:url(#Adobe_OpacityMaskFilter_00000178914670886491024860000015952512384040948159_);}
	.st24{mask:url(#mask1_00000021095712550869857940000001063769195060381631_);}
	.st25{fill:#F7E5BC;}
	.st26{fill:#D6569B;}
	.st27{fill:#E374B0;}
	.st28{fill:#1F3A70;}
	.st29{fill:#F06EA8;}
	.st30{fill:#E05FA3;}
	.st31{fill:#1B1926;}
	.st32{fill:#751B40;}
	.st33{fill:#9C2455;}
	.st34{fill:#BED3FF;}
	.st35{fill:#FFA78B;}
	.st36{fill:#FDD171;}
	.st37{fill:#B9BBBE;}
	.st38{fill:#FDD2F8;}
	.st39{fill:#E0EAFF;}
	.st40{fill:#C2FFCE;}
	.st41{fill:#28263B;}
	.st42{fill:#ABBAFF;}
	.st43{fill:#8FA2FA;}
	.st44{fill:#AFC6FA;}
	.st45{fill:#DBE6FF;}
	.st46{opacity:0.74;fill:url(#SVGID_00000085219567696623161420000013149118714287869073_);enable-background:new    ;}
	.st47{opacity:0.5;fill:url(#SVGID_00000032615736781665217530000005953762341498715269_);enable-background:new    ;}
	.st48{fill:#F7AEA5;}
	.st49{fill:#FECCAF;}
	.st50{fill:#6B3143;}
	.st51{fill:#133BBA;}
	.st52{fill:#1541CC;}
	.st53{fill:#0B2585;}
	.st54{fill:#FFF0DB;}
	.st55{fill:#FFE8AD;}
	.st56{fill:#FFD978;}
	.st57{fill:#E6EDFF;}
	.st58{fill:#66D4CD;}
	.st59{fill:#5EC7C7;}
	.st60{fill:#7C90EB;}
	.st61{fill:#9EB0FF;}
	.st62{fill:#F0F5FF;}
	.st63{fill:#BDD1FF;}
	.st64{fill:#94A7FF;}
	.st65{fill:#7D93FF;}
	.st66{fill:#DAD4FF;}
	.st67{fill:#2950CC;}
	.st68{fill:#2139A6;}
	.st69{fill:#FF9CCD;}
	.st70{fill:#50A7B5;}
	.st71{fill:#FFDEB0;}
	.st72{fill:#C84493;}
	.st73{fill:#E060AD;}
	.st74{fill:#F2A97B;}
	.st75{fill:#E65C5C;}
	.st76{fill:#E3BD9A;}
	.st77{fill:#DEC3C7;}
	.st78{fill:#D1ABB1;}
	.st79{fill:#C4C4C4;filter:url(#Adobe_OpacityMaskFilter_00000084510847172010353340000004768615418772891544_);}
	.st80{mask:url(#mask2_00000175318405680833010960000015590799765251622536_);}
	.st81{fill:#FFB869;}
	.st82{fill:#4D7AE8;}
	.st83{fill:#DBE7FF;}
	.st84{fill:#201E2F;}
	.st85{fill:#590942;}
	.st86{fill:#B5CDFF;}
	.st87{fill:#EF6767;}
	.st88{fill:#3366E0;}
	.st89{fill:#C4C4C4;filter:url(#Adobe_OpacityMaskFilter_00000000196971009194448730000002265722245018697872_);}
	.st90{mask:url(#mask3_00000179616621587873012930000005799255061856027837_);}
	.st91{fill:#FF82A6;}
	.st92{fill:url(#SVGID_00000011005039703209540050000003438916394331613079_);}
	.st93{fill:url(#SVGID_00000085219487597451048870000015356897154356682131_);}
	.st94{fill:#EF6270;}
	.st95{fill:#BD3C53;}
	.st96{fill:#FFB685;}
	.st97{fill:#543247;}
	.st98{fill:#C74153;}
	.st99{fill:#A82C3C;}
	.st100{fill:#5E2737;}
</style>
<path class="st0" d="M189,0h411c4.4,0,8,3.6,8,8v312c0,4.4-3.6,8-8,8H189c-4.4,0-8-3.6-8-8V8C181,3.6,184.6,0,189,0z"/>
<path class="st1" d="M304.9,45c-0.3,0-0.5-0.3-0.5-0.6L305,41h-3.4c-0.3,0-0.5-0.3-0.5-0.6l0.2-1c0-0.2,0.2-0.4,0.5-0.4h3.6l1.1-6
	H303c-0.3,0-0.5-0.3-0.5-0.6l0.2-1c0-0.2,0.2-0.4,0.5-0.4h3.6l0.6-3.6c0-0.2,0.2-0.4,0.5-0.4h1c0.3,0,0.5,0.3,0.5,0.6l-0.6,3.4h6
	l0.6-3.6c0-0.2,0.2-0.4,0.5-0.4h1c0.3,0,0.5,0.3,0.5,0.6l-0.6,3.4h3.4c0.3,0,0.5,0.3,0.5,0.6l-0.2,1c0,0.2-0.2,0.4-0.5,0.4h-3.6
	l-1.1,6h3.4c0.3,0,0.5,0.3,0.5,0.6l-0.2,1c0,0.2-0.2,0.4-0.5,0.4H315l-0.6,3.6c0,0.2-0.2,0.4-0.5,0.4h-1c-0.3,0-0.5-0.3-0.5-0.6
	L313,41h-6l-0.6,3.6c0,0.2-0.2,0.4-0.5,0.4H304.9z M308.4,33l-1.1,6h6l1.1-6H308.4z"/>
<path class="st2" d="M339.4,40.2c0-1.8-1-2.5-3.5-3.1c-1.4-0.4-1.8-0.7-1.8-1.2s0.4-0.9,1.3-0.9c1,0,2.1,0.3,3.1,0.9l0.3-2
	c-1-0.4-2.1-0.7-3.4-0.7c-2.2,0-3.6,1.2-3.6,2.9c0,1.8,1,2.4,3.3,3c1.5,0.4,2,0.7,2,1.3c0,0.6-0.6,1-1.6,1c-1.2,0-2.5-0.5-3.5-1.1
	l-0.3,2c0.9,0.5,2.4,0.9,3.8,0.9C338,43.2,339.4,42.1,339.4,40.2z"/>
<path class="st2" d="M346.4,43l-0.3-2c-0.2,0.1-0.5,0.1-0.8,0.1c-0.9,0-1.3-0.4-1.3-1.2v-4.6h2.3l-0.3-2h-2v-3.4l-2.4,0.4v3.1h-1.4
	v2h1.4v5c0,2.2,1.3,2.9,3.2,2.9C345.6,43.2,346.1,43.1,346.4,43z"/>
<path class="st2" d="M348.2,33.3v6.9c0,1.8,0.9,2.9,2.8,2.9c1.3,0,2.3-0.7,3.2-1.6l0.2,1.4h2v-9.7H354v6.5c-0.7,0.7-1.5,1.2-2.2,1.2
	c-0.9,0-1.2-0.6-1.2-1.4v-6.3H348.2z"/>
<path class="st2" d="M360.8,38.3c0-2.1,0.9-3.1,2.2-3.1c0.8,0,1.3,0.1,1.9,0.4v4.1c-0.6,0.8-1.3,1.3-2.2,1.3
	C361.6,41.1,360.8,40.2,360.8,38.3z M358.4,38.4c0,3.3,1.6,4.8,3.6,4.8c1.3,0,2.3-0.7,3-1.5l0.2,1.3h2.1V28.6l-2.4,0.4v4.7
	c-0.6-0.2-1.3-0.4-2.2-0.4C360.4,33.2,358.4,34.8,358.4,38.4z"/>
<path class="st2" d="M370.7,46.6c1.7,0,2.9-0.7,3.7-3l3.7-10.3h-2.4l-2.2,6.8l-2.2-6.9l-2.5,0.3l3.5,9.5l-0.1,0.3
	c-0.3,1-1,1.4-1.8,1.4c-0.4,0-0.8-0.1-1.1-0.1l0.3,2C370,46.6,370.2,46.6,370.7,46.6z"/>
<path class="st2" d="M384.3,38.4v-2.3h-5.2v2.3H384.3z"/>
<path class="st2" d="M391.7,36.5c0,1.1-0.6,1.8-1.7,1.8c-1,0-1.7-0.8-1.7-1.8c0-1.1,0.6-1.9,1.7-1.9C391,34.7,391.7,35.5,391.7,36.5
	z M395.1,43.4c0-1.5-1.2-2.1-3.2-2.4l-1.2-0.1c-1.5-0.2-1.8-0.3-1.8-0.6c0-0.2,0.2-0.3,0.4-0.5c0.2,0,0.5,0.1,0.8,0.1
	c2.1,0,3.9-1.2,3.9-3.3c0-0.4-0.1-0.9-0.3-1.3l1.8-0.1l-0.3-1.9l-2.4,0.8c-0.7-0.6-1.6-0.9-2.7-0.9c-2.2,0-3.9,1.3-3.9,3.4
	c0,1.3,0.7,2.3,1.8,2.8c-0.8,0.5-1.2,1-1.2,1.5c0,0.4,0.2,0.7,0.6,1c-1.2,0.7-1.8,1.4-1.8,2.3c0,1.6,2,2.4,4.6,2.4
	C392.8,46.6,395.1,45.5,395.1,43.4z M390.2,45.2c-1.8,0-2.7-0.5-2.7-1.2c0-0.5,0.3-1,1-1.5c0.5,0.1,0.8,0.2,1.4,0.2l1.3,0.2
	c1.2,0.2,1.6,0.5,1.6,1C392.9,44.6,391.9,45.2,390.2,45.2z"/>
<path class="st2" d="M402.6,35.5l-0.4-2.4c-1.5,0.1-2.5,1-3.1,2.1l-0.3-1.9h-2V43h2.4v-5.5C399.9,36.4,401.1,35.6,402.6,35.5z"/>
<path class="st2" d="M412.5,38.2c0-3.1-1.9-5-4.6-5c-2.6,0-4.5,1.9-4.5,5s1.9,5,4.5,5C410.6,43.2,412.5,41.3,412.5,38.2z
	 M410.2,38.2c0,1.8-0.8,3.1-2.2,3.1c-1.4,0-2.2-1.3-2.2-3.1c0-1.8,0.8-3.1,2.2-3.1C409.4,35.1,410.2,36.4,410.2,38.2z"/>
<path class="st2" d="M414.4,33.3v6.9c0,1.8,0.9,2.9,2.8,2.9c1.3,0,2.3-0.7,3.2-1.6l0.2,1.4h2v-9.7h-2.4v6.5
	c-0.7,0.7-1.5,1.2-2.2,1.2c-0.9,0-1.2-0.6-1.2-1.4v-6.3H414.4z"/>
<path class="st2" d="M431.6,38c0,2.1-0.9,3.1-2.2,3.1c-0.8,0-1.3-0.1-1.9-0.4v-4.1c0.6-0.8,1.3-1.4,2.2-1.4
	C430.8,35.3,431.6,36.2,431.6,38z M434,37.9c0-3.2-1.6-4.8-3.6-4.8c-1.3,0-2.3,0.7-3,1.5l-0.2-1.3h-2v13.4l2.4-0.4v-3.6
	c0.6,0.2,1.3,0.4,2.2,0.4C432,43.1,434,41.5,434,37.9z"/>
<path class="st3" d="M162,8c0-4.4,3.6-8,8-8h105v328H170c-4.4,0-8-3.6-8-8V8z"/>
<defs>
	<filter id="Adobe_OpacityMaskFilter" filterUnits="userSpaceOnUse" x="299" y="263" width="46.9" height="67.5">
		<feColorMatrix  type="matrix" values="1 0 0 0 0  0 1 0 0 0  0 0 1 0 0  0 0 0 1 0"/>
	</filter>
</defs>
<mask maskUnits="userSpaceOnUse" x="299" y="263" width="46.9" height="67.5" id="mask0_00000153664264878002100340000017815707468843213708_">
	<circle class="st4" cx="319" cy="283" r="20"/>
</mask>
<g class="st5">
	<circle class="st6" cx="319" cy="283" r="20"/>
	<path class="st6" d="M341.4,309.8c-0.4-0.9-1-1.8-1.8-2.4c-0.8-0.6-1.8-1-2.8-1.1l-2.1-0.2c-3-10.9-1.5-13.3-10.4-15.8l-7.2-0.3
		c0,0-7.3,0.1-10,3.7l3.8,12.3c0,0-1.5,8.2-0.8,12.3l9.4-1.2l4.1,13.2c15.3-2.3,22.5-9.4,22.5-9.4L341.4,309.8z"/>
	<path class="st7" d="M308.8,291.1c10.2,9.6,19.4,16.1,17.9,1L308.8,291.1z"/>
	<path class="st8" d="M313.8,292.3c8.9,4.2,11.2,5.8,10.6,0.7L313.8,292.3z"/>
	<path class="st2" d="M333,299.3c-1.1-4.6-1.9-6.5-6.4-8.2c1.2,2.9,1.8,8.8,1.8,8.8L333,299.3z"/>
	<path class="st9" d="M317.8,277.2l-0.3-2.5c-0.1-0.8-0.5-1.6-1.1-2.2c-0.6-0.6-1.3-1-2.1-1.1c-0.9-0.2-1.8,0-2.6,0.5
		c-0.8,0.5-1.4,1.2-1.7,2c-1.1,3.1-2.9,8.1-4.2,12.3c-2,6.7,6.9,8.2,15.6,7.6c8.7-0.7,9.5-4.5,8.3-10c-0.8-3.5-1.8-7-2.4-9.2
		c-0.2-0.6-0.5-1.2-1-1.6c-0.5-0.4-1.1-0.7-1.7-0.7c-0.7-0.1-1.4,0.1-2,0.4c-0.6,0.4-1.1,0.9-1.3,1.6l-1,2.6L317.8,277.2z"/>
	<path class="st10" d="M328.6,286.4l-0.6-0.2l-3.2,1.1l-3.2,0.4l-5.6-1.1c0,0-3.1-4.8-2.9,0.5c0.2,3.7,1.7,5.8,2.7,6.7
		c1.9,0.1,3.8,0.1,5.6-0.1c1.4-0.1,2.8-0.3,4.2-0.7C326.6,291.7,328.1,289.2,328.6,286.4z"/>
	
		<linearGradient id="SVGID_1_" gradientUnits="userSpaceOnUse" x1="304.9739" y1="73.2907" x2="311.5349" y2="75.7787" gradientTransform="matrix(1 0 0 -1 0 360)">
		<stop  offset="0" style="stop-color:#61C7C7"/>
		<stop  offset="1" style="stop-color:#54B9C7"/>
	</linearGradient>
	<path class="st11" d="M313,286.7c-0.7-2-2-6.2-1.5-9.4c0.5-3.2,1.3-5.8,2.7-5.8c-0.9-0.2-1.8,0-2.6,0.5c-0.8,0.5-1.4,1.2-1.7,2
		c-1.1,3.1-2.9,8.1-4.2,12.3c-1.8,6,5.2,7.9,12.9,7.7C317,293.6,314.9,291.8,313,286.7z"/>
	<path class="st10" d="M318.7,293.9l-0.6,0l-0.6,0l-0.9,0l-0.3,0l-0.5,0c-0.9-0.9-2.5-3-2.7-6.7c0-0.1,0-0.1,0-0.2
		C315,291.9,317.1,293.6,318.7,293.9z"/>
	<path class="st12" d="M327.9,285.8l0,0.7c-3.4,2.2-4,2.8-12.7,0.1l-0.1-0.7l0.4,0.1C322.9,288,324.3,288.1,327.9,285.8z"/>
	<path class="st13" d="M314.5,288.7c1.1-0.3,1.8-1.6,1.4-2.9c-0.4-1.3-1.6-2.1-2.7-1.7c-1.1,0.3-1.8,1.6-1.4,2.9
		C312.1,288.2,313.3,289,314.5,288.7z"/>
	<path class="st13" d="M329.5,286c0.2-1.1-0.1-2.1-0.7-2.3c-0.6-0.1-1.3,0.7-1.6,1.8c-0.2,1.1,0.1,2.1,0.7,2.3
		C328.6,287.9,329.3,287.2,329.5,286z"/>
	<path class="st14" d="M320.8,283.9c-0.2-0.2,0.1-0.4,0.3-0.5c0.1,0,0.2,0,0.3,0c0.1,0,0.2,0.1,0.2,0.1l0.8,1.1
		c0.2,0.3-0.1,0.3-0.5,0.1C321.6,284.5,321.1,284.3,320.8,283.9z"/>
	<path class="st14" d="M324.5,284.4l0.3-0.6c0-0.1,0.1-0.2,0-0.3c0-0.1-0.1-0.2-0.1-0.3l-0.1-0.1c0,0,0,0,0,0c0,0,0,0,0,0
		c0,0,0,0,0,0c0,0,0,0,0,0c-0.2,0.4-0.3,0.9-0.4,1.3C324,284.9,324.3,284.8,324.5,284.4z"/>
	<path class="st15" d="M320.9,277.5l-3.1-0.2l2.5-0.3l1-2.6c0.3-0.7,0.7-1.2,1.3-1.6c0.6-0.4,1.3-0.5,2-0.4l0.6,0.1
		c-1.5-0.3-2,1.4-2.3,3.5C322.8,277,322.9,277.6,320.9,277.5z"/>
	<path class="st16" d="M326.7,277c0-0.8-0.5-1.4-1.2-1.4s-1.2,0.6-1.2,1.4c0,0.8,0.5,1.4,1.2,1.4C326.2,278.4,326.7,277.8,326.7,277
		z"/>
	<path class="st16" d="M315.8,276.5c0.1-0.8-0.4-1.5-1-1.5c-0.6-0.1-1.2,0.5-1.3,1.3c-0.1,0.8,0.4,1.5,1,1.5
		C315.1,277.9,315.7,277.3,315.8,276.5z"/>
	<path class="st2" d="M310.8,306.2c1.4,0,3.1-0.1,4.6-0.2c0-0.6,0-1.2,0.2-1.8c0.2-1,0.6-2,1.1-2.9c-1.2-0.1-2.7-0.2-3.9-0.2
		c-0.3-6.1-3.4-9.3-5.2-7.6c-0.8,0.8-1.3,1.9-1.4,3c0,0.9,0,2.4,0,2.8c-0.2,1.1-0.9,1.4,0,3.5C306.6,303.7,305.7,306.2,310.8,306.2z
		"/>
	<path class="st17" d="M315,271.6c1.3,0.8,1.6,2.7,1.7,3.5c0.1,0.8,0.3,2.2,0.3,2.5c0,0.4,0.2,0.5,1.3,1c1.2,0.5,0.7,0,0.2-0.6
		l-0.7-0.8l-0.3-2.5c-0.1-0.7-0.4-1.3-0.8-1.9C316.3,272.3,315.7,271.9,315,271.6z"/>
	<path class="st18" d="M326.1,276c0.4,0.2,0.6,1.2,0.1,0.8C325.7,276.4,325.5,275.8,326.1,276z"/>
	<path class="st18" d="M315.2,275.4c0.4,0.2,0.5,1.2,0.1,0.8C314.9,275.8,314.6,275.2,315.2,275.4z"/>
	<path class="st19" d="M315.1,287.4c0.4-0.2,0.5-1,0.1-1.7c-0.4-0.7-1-1.1-1.5-0.9s-0.5,1-0.1,1.7
		C314,287.2,314.7,287.6,315.1,287.4z"/>
	<path class="st19" d="M329.5,285.2c0-0.5-0.2-0.9-0.5-0.9c-0.3,0-0.5,0.4-0.5,0.9c0,0.5,0.2,0.9,0.5,0.9
		C329.3,286.1,329.5,285.7,329.5,285.2z"/>
	<path class="st17" d="M326.2,273.3c0.7,0.6,0.9,1.6,0.1,0.9C325.5,273.5,325.3,272.6,326.2,273.3z"/>
</g>
<path class="st20" d="M357.3,278.7h2.1v-4.1h0.9c2.5,0,4.2-1.2,4.2-3.6c0-2.2-1.5-3.4-4-3.4h-3.2V278.7z M362.5,271.1
	c0,1.3-0.8,1.8-2.2,1.8h-0.9v-3.6h1C361.8,269.4,362.5,270,362.5,271.1z"/>
<path class="st20" d="M372.6,278.7v-5.6c0-1.4-0.8-2.3-2.2-2.3c-1,0-1.8,0.5-2.5,1.1v-4.8l-1.9,0.3v11.2h1.9v-5.2
	c0.6-0.6,1.2-1,1.8-1c0.7,0,1,0.5,1,1.1v5.1H372.6z"/>
<path class="st20" d="M376.7,268.6c0-0.7-0.5-1.1-1.1-1.1c-0.6,0-1.2,0.5-1.2,1.1c0,0.6,0.5,1.1,1.2,1.1
	C376.2,269.7,376.7,269.3,376.7,268.6z M376.5,278.7V271h-1.9v7.7H376.5z"/>
<path class="st20" d="M385.6,274.6c0-2.6-1.3-3.8-2.9-3.8c-1,0-1.7,0.5-2.2,1v-4.7l-1.9,0.3v10.8c1,0.3,2,0.5,3.2,0.5
	C384,278.8,385.6,277.5,385.6,274.6z M383.7,274.8c0,1.8-0.7,2.5-2,2.5c-0.5,0-0.8-0.1-1.2-0.2v-3.5c0.5-0.6,1.1-1,1.7-1
	C383.1,272.5,383.7,273.3,383.7,274.8z"/>
<path class="st20" d="M389.4,268.6c0-0.7-0.5-1.1-1.1-1.1c-0.6,0-1.2,0.5-1.2,1.1c0,0.6,0.5,1.1,1.2,1.1
	C388.8,269.7,389.4,269.3,389.4,268.6z M389.2,278.7V271h-1.9v7.7H389.2z"/>
<path class="st21" d="M399.8,269.4l-0.2-1h-6.3v1h2.6v7.2h1.1v-7.2H399.8z"/>
<path class="st21" d="M404.6,273.8c0-1.9-1.1-3-2.7-3c-1.5,0-2.6,1.1-2.6,3s1.1,3,2.6,3C403.5,276.8,404.6,275.7,404.6,273.8z
	 M403.5,273.8c0,1.2-0.5,2.1-1.6,2.1c-1,0-1.5-0.9-1.5-2.1c0-1.2,0.5-2.1,1.5-2.1C403,271.7,403.5,272.6,403.5,273.8z"/>
<path class="st21" d="M406.7,273.9c0-1.4,0.6-2.1,1.5-2.1c0.6,0,1,0.1,1.4,0.3v2.7c-0.5,0.6-1,1-1.6,1
	C407.3,275.8,406.7,275.2,406.7,273.9z M405.6,273.9c0,1.9,1,2.8,2.3,2.8c0.8,0,1.4-0.4,1.9-0.9l0.1,0.8h0.9V268l-1.1,0.2v3
	c-0.4-0.1-0.9-0.3-1.4-0.3C406.8,270.8,405.6,271.9,405.6,273.9z"/>
<path class="st21" d="M415.7,275.1c-0.5,0.5-1.1,0.8-1.7,0.8c-0.5,0-0.9-0.3-0.9-0.8c0-0.6,0.4-1.2,2.6-1.4V275.1z M416.7,276.6v-4
	c0-1.3-0.7-1.8-2.1-1.8c-0.9,0-1.5,0.2-2.2,0.5l0.1,0.9c0.6-0.3,1.3-0.5,2-0.5c0.7,0,1.1,0.3,1.1,1v0.2c-2.4,0.3-3.6,0.8-3.6,2.2
	c0,1,0.6,1.6,1.7,1.6c0.9,0,1.6-0.4,2-0.9l0.1,0.8H416.7z"/>
<path class="st21" d="M418.7,278.8c0.8,0,1.5-0.3,1.9-1.6l2.3-6.3h-1.1l-1.5,4.5l-1.5-4.5l-1.1,0.2l2.1,5.7l-0.1,0.4
	c-0.2,0.6-0.6,0.8-1,0.8c-0.2,0-0.4,0-0.6-0.1l0.2,1C418.3,278.8,418.5,278.8,418.7,278.8z"/>
<path class="st21" d="M430,275.1c-0.5,0.5-1.1,0.8-1.7,0.8c-0.5,0-0.9-0.3-0.9-0.8c0-0.6,0.4-1.2,2.6-1.4V275.1z M431.1,276.6v-4
	c0-1.3-0.7-1.8-2.1-1.8c-0.9,0-1.5,0.2-2.2,0.5l0.1,0.9c0.6-0.3,1.3-0.5,2-0.5c0.7,0,1.1,0.3,1.1,1v0.2c-2.4,0.3-3.6,0.8-3.6,2.2
	c0,1,0.6,1.6,1.7,1.6c0.9,0,1.6-0.4,2-0.9l0.1,0.8H431.1z"/>
<path class="st21" d="M435.5,276.7l-0.1-0.9c-0.1,0-0.3,0-0.5,0c-0.6,0-0.8-0.3-0.8-0.8v-3.2h1.4l-0.1-0.9H434v-2.1l-1,0.2v1.9h-0.9
	v0.9h0.9v3.4c0,1.2,0.7,1.5,1.7,1.5C435,276.7,435.3,276.7,435.5,276.7z"/>
<path class="st21" d="M440.2,276.8c2.6-0.6,4.5-2.2,4.5-5c0-2.2-1.2-3.4-2.9-3.4c-1.6,0-2.8,1.1-2.8,2.7s0.9,2.5,2.5,2.5
	c0.8,0,1.4-0.2,2-0.6c-0.4,1.7-1.8,2.5-3.5,2.8L440.2,276.8z M441.8,272.7c-1.2,0-1.7-0.6-1.7-1.6c0-1.1,0.7-1.7,1.7-1.7
	c1.2,0,1.9,1,1.9,2.5v0.1C443.1,272.4,442.5,272.7,441.8,272.7z"/>
<path class="st21" d="M447.3,272.3v-1.4h-1.2v1.4H447.3z M447.3,276.6v-1.4h-1.2v1.4H447.3z"/>
<path class="st21" d="M450.9,276.8c1.8,0,2.9-0.9,2.9-2.4c0-1.1-0.6-1.8-1.6-2c0.9-0.3,1.5-0.9,1.5-1.9c0-1.1-0.8-2.1-2.6-2.1
	c-1,0-1.7,0.3-2.4,0.7l0.2,1c0.6-0.5,1.3-0.8,2.1-0.8c1,0,1.5,0.5,1.5,1.2c0,0.9-0.6,1.4-2,1.4h-0.6l0.2,1h0.4
	c1.6,0,2.2,0.6,2.2,1.5c0,0.9-0.7,1.4-1.7,1.4c-0.9,0-1.5-0.3-2.2-0.7l-0.2,1.1C449.2,276.5,450,276.8,450.9,276.8z"/>
<path class="st21" d="M461.1,272.6c0-2.7-1.2-4.2-3.1-4.2c-1.9,0-3.1,1.5-3.1,4.2c0,2.7,1.2,4.2,3.1,4.2
	C459.9,276.8,461.1,275.3,461.1,272.6z M460,272.6c0,2.1-0.7,3.3-2,3.3s-2-1.2-2-3.3c0-2.1,0.8-3.3,2-3.3S460,270.5,460,272.6z"/>
<path class="st21" d="M471.2,276.7l1.1-0.2l-3.2-8.2H468l-3.2,8.3h1.2l0.9-2.5h3.4L471.2,276.7z M468.5,269.6l1.3,3.5h-2.6
	L468.5,269.6z"/>
<path class="st21" d="M482.7,276.6l-0.6-8.3h-1.4l-2.6,6.8l-2.6-6.8h-1.4l-0.7,8.3h1.1l0.5-6.7l2.6,6.7h0.9l2.6-6.7l0.5,6.7H482.7z"
	/>
<path class="st22" d="M367,299v-5.6c0-1.4-0.7-2.2-2.2-2.2c-1.1,0-2,0.6-2.7,1.3c-0.3-0.8-0.9-1.3-2-1.3c-1.1,0-1.9,0.6-2.7,1.3
	l-0.2-1.1h-1.1v7.6h1.4v-5.3c0.7-0.7,1.4-1.2,2.2-1.2c0.8,0,1.1,0.5,1.1,1.3v5.2h1.4v-5.3c0.7-0.7,1.4-1.2,2.2-1.2
	c0.8,0,1.1,0.5,1.1,1.3v5.2H367z"/>
<path class="st22" d="M372.1,292.3c1.1,0,1.6,0.7,1.8,1.9h-3.7C370.4,293,371.2,292.3,372.1,292.3z M375.3,298.1l-0.2-1.3
	c-0.8,0.7-1.6,1.1-2.7,1.1c-1.3,0-2.2-0.8-2.2-2.6h5.2V295c0-2.1-1-3.8-3.2-3.8c-1.9,0-3.4,1.5-3.4,4c0,2.8,1.6,4,3.5,4
	C373.5,299.2,374.5,298.8,375.3,298.1z"/>
<path class="st22" d="M384.3,299l-0.2-1.2c-0.2,0-0.4,0-0.7,0c-0.8,0-1.1-0.4-1.1-1v-4.3h1.8l-0.2-1.2h-1.6v-2.8l-1.4,0.2v2.5h-1.2
	v1.2h1.2v4.5c0,1.5,0.9,2,2.2,2C383.8,299.1,384.1,299.1,384.3,299z"/>
<path class="st22" d="M392.6,295.2c0-2.5-1.5-4-3.6-4c-2,0-3.5,1.5-3.5,4c0,2.5,1.5,4,3.5,4C391.1,299.2,392.6,297.7,392.6,295.2z
	 M391.2,295.2c0,1.6-0.7,2.8-2.1,2.8c-1.3,0-2.1-1.2-2.1-2.8c0-1.6,0.7-2.8,2.1-2.8C390.4,292.4,391.2,293.6,391.2,295.2z"/>
<path class="st22" d="M401.1,295.2c0-2.5-1.5-4-3.6-4c-2,0-3.5,1.5-3.5,4c0,2.5,1.5,4,3.5,4C399.6,299.2,401.1,297.7,401.1,295.2z
	 M399.6,295.2c0,1.6-0.7,2.8-2.1,2.8c-1.3,0-2.1-1.2-2.1-2.8c0-1.6,0.7-2.8,2.1-2.8S399.6,293.6,399.6,295.2z"/>
<path class="st22" d="M404.8,288h-1.7l0.4,7.8l0.9-0.2L404.8,288z M404.7,299v-1.9h-1.6v1.9H404.7z"/>
<defs>
	
		<filter id="Adobe_OpacityMaskFilter_00000162350436784415691600000006888032649783529114_" filterUnits="userSpaceOnUse" x="299" y="202.3" width="43" height="49.9">
		<feColorMatrix  type="matrix" values="1 0 0 0 0  0 1 0 0 0  0 0 1 0 0  0 0 0 1 0"/>
	</filter>
</defs>
<mask maskUnits="userSpaceOnUse" x="299" y="202.3" width="43" height="49.9" id="mask1_00000021095712550869857940000001063769195060381631_">
	
		<circle style="fill:#C4C4C4;filter:url(#Adobe_OpacityMaskFilter_00000162350436784415691600000006888032649783529114_);" cx="319" cy="227" r="20"/>
</mask>
<g class="st24">
	<circle class="st25" cx="319" cy="227" r="20"/>
	<path class="st25" d="M342,239.5l-2.7,6.3c-0.2,0.5-0.5,0.9-0.9,1.3c-0.4,0.4-0.8,0.7-1.4,0.9c-0.5,0.2-1,0.3-1.6,0.3
		c-0.5,0-1.1-0.1-1.6-0.4l-10.2-4.6l5.1-8l6.2,3.5l0.9-2.7C339.1,237.3,340.8,238.4,342,239.5z"/>
	<path class="st25" d="M330.2,236.5c4.1,0.7,4.5,1.5,5.6,3.7l-4.4-0.5L330.2,236.5z"/>
	<path class="st26" d="M311,202.5c-0.8,0.3-1.5,0.8-1.9,1.5c-0.4,0.7-0.5,1.6-0.3,2.4l4.1,16.6l7.3-1.5l-4.9-16.8
		c-0.1-0.4-0.3-0.8-0.6-1.2c-0.3-0.3-0.6-0.6-1-0.8c-0.4-0.2-0.8-0.3-1.3-0.4C311.8,202.3,311.4,202.4,311,202.5z"/>
	<path class="st27" d="M315,219.2l2.9-0.1l-3.1-10c0-0.1-0.1-0.3-0.2-0.4c-0.1-0.1-0.2-0.2-0.3-0.3s-0.3-0.1-0.4-0.1s-0.3,0-0.4,0.1
		c-0.2,0.1-0.4,0.3-0.6,0.5c-0.1,0.2-0.2,0.5-0.1,0.8L315,219.2z"/>
	<path class="st26" d="M327.8,202.4c0.8,0.2,1.5,0.8,1.9,1.5c0.4,0.7,0.6,1.6,0.4,2.4l-3.9,16.6l-7.3-1.4l4.7-16.9
		c0.1-0.4,0.3-0.8,0.6-1.2c0.3-0.3,0.6-0.6,1-0.9s0.8-0.3,1.3-0.4C326.9,202.3,327.4,202.3,327.8,202.4z"/>
	<path class="st27" d="M325,219.2l-2.9-0.1l2.9-10c0-0.1,0.1-0.3,0.2-0.4c0.1-0.1,0.2-0.2,0.4-0.3c0.1-0.1,0.3-0.1,0.4-0.1
		c0.1,0,0.3,0,0.4,0.1c0.2,0.1,0.4,0.3,0.6,0.5c0.1,0.2,0.2,0.5,0.1,0.8L325,219.2z"/>
	<path class="st25" d="M333.2,243.4l-1.2,3.8l-0.2,0.5l-1.5,4.6h-27.3c-0.3-1,0.1-1.2,0.8-2.3c0.7-1.1,0.3-0.8,0.4-3.6
		c0.1-1.9,0.8-3.7,3.3-5.9c0.8-0.7,0.9-0.9,1.7-1.6l0.2-0.2l0.1-0.1l0.2-0.1l18.6-2.9l3.8,6.2L333.2,243.4z"/>
	<path class="st28" d="M332,247.1c-0.1,1.8-0.3,3.5-0.5,5.1h-20.1c0-0.8,0-1.8,0.1-3.1c0-0.1,0-0.3,0-0.4v-1.5
		c-0.1-3.6-1.2-6.1-4-6.9c0.5-0.5,1.1-1.1,1.7-1.6l0.2-0.2l0.3-0.2l18.6-2.9c1.5,0.5,2.4,0.9,3.6,2c0.1,1.4,0.2,2.8,0.2,4.2
		C332.2,243.5,332.1,245.4,332,247.1z"/>
	<path class="st29" d="M330.2,227.5l-21.6,0.9c-2.8,0.1-5.1,2.5-5,5.4v0c0.1,2.8,2.5,5.1,5.4,5l21.6-0.9c2.8-0.1,5.1-2.5,5-5.4v0
		C335.5,229.6,333.1,227.4,330.2,227.5z"/>
	<path class="st29" d="M329.1,217.9l-21,0.9c-3,0.1-5.3,2.7-5.2,5.7l0,0.2c0.1,3,2.7,5.3,5.7,5.2l21-0.9c3-0.1,5.3-2.7,5.2-5.7
		l0-0.2C334.6,220.1,332.1,217.8,329.1,217.9z"/>
	<path class="st30" d="M330.6,237.7c2.8-0.1,5.1-2.4,5.1-5.1c0-1-0.3-2-0.8-2.8c-0.6-0.8-1.3-1.5-2.3-1.9c0.7-0.5,1.3-1.2,1.6-2
		c0.4-0.8,0.5-1.7,0.5-2.5V223c0-0.7-0.2-1.4-0.5-2.1c-0.3-0.6-0.7-1.2-1.3-1.7c-0.5-0.5-1.1-0.9-1.8-1.1c-0.7-0.2-1.4-0.4-2.1-0.3
		l-18.8,0.8c-1.7,3.2-1.4,6.7-0.2,9.2c0.2,0.4,0.3,0.8,0.3,1.2c0,0.4-0.1,0.8-0.2,1.2c-1.8,4.8,0.6,8.3,0.6,8.3L330.6,237.7z"/>
	<path class="st31" d="M315.4,227.9c0.5-0.3,0.5-1.1,0.1-1.8c-0.4-0.7-1.2-1-1.7-0.7c-0.5,0.3-0.5,1.1-0.1,1.8
		C314.2,227.9,314.9,228.2,315.4,227.9z"/>
	<path class="st31" d="M324.8,226.4c0.2-0.7,0-1.5-0.5-1.6c-0.5-0.1-1.1,0.3-1.3,1.1c-0.2,0.7,0,1.5,0.5,1.6
		C324,227.7,324.6,227.2,324.8,226.4z"/>
	<path class="st32" d="M317.5,230.3c1.3,2.2,3.2,2.7,4.5-0.1c0,0,0-0.1,0-0.1c0,0,0-0.1,0-0.1c0,0,0,0-0.1-0.1c0,0-0.1,0-0.1,0
		l-4.2,0.1c0,0-0.1,0-0.1,0c0,0,0,0-0.1,0.1C317.5,230.2,317.5,230.2,317.5,230.3C317.5,230.3,317.5,230.3,317.5,230.3z"/>
	<path class="st33" d="M320.1,230l-2.5,0.1c0,0-0.1,0-0.1,0c0,0,0,0-0.1,0.1c0,0,0,0.1,0,0.1c0,0,0,0.1,0,0.1
		c1.1,1.9,2.7,2.6,3.9,0.9C321.1,230.7,320.7,230.3,320.1,230z"/>
</g>
<path class="st34" d="M356.7,221h2.1V217h0.9c2.5,0,4.2-1.2,4.2-3.6c0-2.2-1.5-3.4-4-3.4h-3.2V221z M361.9,213.4
	c0,1.3-0.8,1.8-2.2,1.8h-0.9v-3.6h1C361.2,211.7,361.9,212.3,361.9,213.4z"/>
<path class="st34" d="M368.1,214.5c0.9,0,1.4,0.7,1.5,1.9h-3.1C366.7,215.1,367.3,214.5,368.1,214.5z M371.5,220.2l-0.2-1.5
	c-0.8,0.6-1.7,1-2.7,1c-1.2,0-2-0.7-2.1-2.2h5c0-0.1,0-0.3,0-0.5c0-2.2-1-3.9-3.4-3.9c-2,0-3.5,1.5-3.5,4c0,2.8,1.6,4,3.8,4
	C369.6,221.2,370.6,220.8,371.5,220.2z"/>
<path class="st34" d="M378.2,217.1c0,1.7-0.8,2.5-1.7,2.5c-0.7,0-1-0.1-1.5-0.3v-3.3c0.5-0.7,1.1-1.1,1.7-1.1
	C377.6,214.8,378.2,215.6,378.2,217.1z M380.1,217c0-2.6-1.3-3.8-2.9-3.8c-1.1,0-1.8,0.6-2.4,1.2l-0.2-1.1H373V224l1.9-0.3v-2.9
	c0.5,0.2,1.1,0.3,1.8,0.3C378.5,221.1,380.1,219.8,380.1,217z"/>
<path class="st34" d="M386.9,217.1c0,1.7-0.8,2.5-1.7,2.5c-0.7,0-1-0.1-1.5-0.3v-3.3c0.5-0.7,1.1-1.1,1.7-1.1
	C386.2,214.8,386.9,215.6,386.9,217.1z M388.8,217c0-2.6-1.3-3.8-2.9-3.8c-1.1,0-1.8,0.6-2.4,1.2l-0.2-1.1h-1.6V224l1.9-0.3v-2.9
	c0.5,0.2,1.1,0.3,1.8,0.3C387.2,221.1,388.8,219.8,388.8,217z"/>
<path class="st34" d="M393.4,214.5c0.9,0,1.4,0.7,1.5,1.9h-3.1C392,215.1,392.7,214.5,393.4,214.5z M396.8,220.2l-0.2-1.5
	c-0.8,0.6-1.7,1-2.7,1c-1.2,0-2-0.7-2.1-2.2h5c0-0.1,0-0.3,0-0.5c0-2.2-1-3.9-3.4-3.9c-2,0-3.5,1.5-3.5,4c0,2.8,1.6,4,3.8,4
	C395,221.2,396,220.8,396.8,220.2z"/>
<path class="st21" d="M407.3,214.6l-0.2-1h-6.3v1h2.6v7.2h1.1v-7.2H407.3z"/>
<path class="st21" d="M412.1,219c0-1.9-1.1-3-2.7-3c-1.5,0-2.6,1.1-2.6,3c0,1.9,1.1,3,2.6,3C410.9,221.9,412.1,220.9,412.1,219z
	 M411,219c0,1.2-0.5,2.1-1.6,2.1c-1,0-1.5-0.9-1.5-2.1c0-1.2,0.5-2.1,1.5-2.1C410.4,216.9,411,217.8,411,219z"/>
<path class="st21" d="M414.2,219.1c0-1.4,0.6-2.1,1.5-2.1c0.6,0,1,0.1,1.4,0.3v2.7c-0.5,0.6-1,1-1.6,1
	C414.7,221,414.2,220.3,414.2,219.1z M413.1,219.1c0,1.9,1,2.8,2.3,2.8c0.8,0,1.4-0.4,1.9-0.9l0.1,0.8h0.9v-8.7l-1.1,0.2v3
	c-0.4-0.1-0.9-0.3-1.4-0.3C414.3,216,413.1,217,413.1,219.1z"/>
<path class="st21" d="M423.1,220.3c-0.5,0.5-1.1,0.8-1.7,0.8c-0.5,0-0.9-0.3-0.9-0.8c0-0.6,0.4-1.2,2.6-1.4V220.3z M424.2,221.8v-4
	c0-1.3-0.7-1.8-2.1-1.8c-0.9,0-1.5,0.2-2.2,0.5l0.1,0.9c0.6-0.3,1.3-0.5,2-0.5c0.7,0,1.1,0.3,1.1,1v0.2c-2.4,0.3-3.6,0.8-3.6,2.2
	c0,1,0.6,1.6,1.7,1.6c0.9,0,1.6-0.4,2-0.9l0.1,0.8H424.2z"/>
<path class="st21" d="M426.2,224c0.8,0,1.5-0.3,1.9-1.6l2.3-6.3h-1.1l-1.5,4.5l-1.5-4.5l-1.1,0.2l2.1,5.7l-0.1,0.4
	c-0.2,0.6-0.6,0.8-1,0.8c-0.2,0-0.4,0-0.6-0.1l0.2,1C425.8,224,425.9,224,426.2,224z"/>
<path class="st21" d="M437.5,220.3c-0.5,0.5-1.1,0.8-1.7,0.8c-0.5,0-0.9-0.3-0.9-0.8c0-0.6,0.4-1.2,2.6-1.4V220.3z M438.5,221.8v-4
	c0-1.3-0.7-1.8-2.1-1.8c-0.9,0-1.5,0.2-2.2,0.5l0.1,0.9c0.6-0.3,1.3-0.5,2-0.5c0.7,0,1.1,0.3,1.1,1v0.2c-2.4,0.3-3.6,0.8-3.6,2.2
	c0,1,0.6,1.6,1.7,1.6c0.9,0,1.6-0.4,2-0.9l0.1,0.8H438.5z"/>
<path class="st21" d="M442.9,221.8l-0.1-0.9c-0.1,0-0.3,0-0.5,0c-0.6,0-0.8-0.3-0.8-0.8V217h1.4l-0.1-0.9h-1.2V214l-1,0.2v1.9h-0.9
	v0.9h0.9v3.4c0,1.2,0.7,1.5,1.7,1.5C442.5,221.9,442.8,221.9,442.9,221.8z"/>
<path class="st21" d="M447.7,222c2.6-0.6,4.5-2.2,4.5-5c0-2.2-1.2-3.4-2.9-3.4c-1.6,0-2.8,1.1-2.8,2.7c0,1.6,0.9,2.5,2.5,2.5
	c0.8,0,1.4-0.2,2-0.6c-0.4,1.7-1.8,2.5-3.5,2.8L447.7,222z M449.2,217.8c-1.2,0-1.7-0.6-1.7-1.6c0-1.1,0.7-1.7,1.7-1.7
	c1.2,0,1.9,1,1.9,2.5v0.1C450.6,217.6,450,217.8,449.2,217.8z"/>
<path class="st21" d="M454.8,217.5v-1.4h-1.2v1.4H454.8z M454.8,221.8v-1.4h-1.2v1.4H454.8z"/>
<path class="st21" d="M456.2,221.8h5.3l-0.1-1h-3.7l2.3-2.4c1-1,1.4-1.7,1.4-2.7c0-1.4-1-2.3-2.5-2.3c-1,0-1.8,0.4-2.4,0.9l0.2,1
	c0.6-0.6,1.4-1,2.2-1c0.9,0,1.5,0.5,1.5,1.4c0,0.7-0.3,1.2-1.1,1.9l-3,3.1V221.8z"/>
<path class="st21" d="M462.5,221.8h5.3l-0.1-1h-3.7l2.3-2.4c1-1,1.4-1.7,1.4-2.7c0-1.4-1-2.3-2.5-2.3c-1,0-1.8,0.4-2.4,0.9l0.2,1
	c0.6-0.6,1.4-1,2.2-1c0.9,0,1.5,0.5,1.5,1.4c0,0.7-0.3,1.2-1.1,1.9l-3,3.1V221.8z"/>
<path class="st21" d="M477.8,221.9l1.1-0.2l-3.2-8.2h-1.1l-3.2,8.3h1.2l0.9-2.5h3.4L477.8,221.9z M475.1,214.8l1.3,3.5h-2.6
	L475.1,214.8z"/>
<path class="st21" d="M489.3,221.8l-0.6-8.3h-1.4l-2.6,6.8l-2.6-6.8h-1.4l-0.7,8.3h1.1l0.5-6.7l2.6,6.7h0.9l2.6-6.7l0.5,6.7H489.3z"
	/>
<path class="st22" d="M361.4,240.9c0-1.5-0.8-2-2.7-2.5c-1.2-0.3-1.6-0.6-1.6-1.1c0-0.5,0.4-0.9,1.3-0.9c0.8,0,1.6,0.3,2.3,0.7
	l0.2-1.3c-0.7-0.3-1.6-0.5-2.5-0.5c-1.7,0-2.7,0.9-2.7,2.1c0,1.4,0.7,1.9,2.5,2.4c1.4,0.3,1.8,0.6,1.8,1.3c0,0.6-0.6,1-1.6,1
	c-1,0-2-0.4-2.7-0.9l-0.2,1.3c0.7,0.4,1.8,0.7,2.8,0.7C360.4,243.2,361.4,242.3,361.4,240.9z"/>
<path class="st22" d="M366.1,236.3c1.1,0,1.6,0.7,1.8,1.9h-3.7C364.5,237,365.2,236.3,366.1,236.3z M369.4,242.1l-0.2-1.3
	c-0.8,0.7-1.6,1.1-2.7,1.1c-1.3,0-2.2-0.8-2.2-2.6h5.2V239c0-2.1-1-3.8-3.2-3.8c-1.9,0-3.4,1.5-3.4,4c0,2.8,1.6,4,3.5,4
	C367.6,243.2,368.5,242.8,369.4,242.1z"/>
<path class="st22" d="M377.4,243v-5.6c0-1.4-0.8-2.2-2.2-2.2c-1.1,0-2,0.6-2.7,1.3l-0.2-1.1h-1.1v7.6h1.4v-5.3
	c0.7-0.7,1.5-1.2,2.2-1.2c0.8,0,1.2,0.5,1.2,1.3v5.2H377.4z"/>
<path class="st22" d="M380.6,239.3c0-1.9,0.9-2.9,2.1-2.9c0.8,0,1.3,0.1,1.9,0.4v3.6c-0.6,0.8-1.3,1.3-2.2,1.3
	C381.4,241.9,380.6,241,380.6,239.3z M379.2,239.4c0,2.6,1.4,3.8,3,3.8c1.1,0,1.9-0.6,2.5-1.3l0.2,1.1h1.1v-11.6l-1.4,0.2v3.9
	c-0.5-0.2-1.2-0.3-1.9-0.3C380.8,235.3,379.2,236.6,379.2,239.4z"/>
<path class="st22" d="M397.1,239c0,1.9-0.9,2.9-2.1,2.9c-0.8,0-1.3-0.1-1.9-0.4v-3.7c0.6-0.8,1.3-1.3,2.1-1.3
	C396.4,236.5,397.1,237.4,397.1,239z M398.5,239c0-2.5-1.4-3.8-3-3.8c-1.1,0-1.9,0.6-2.5,1.3l-0.2-1.1h-1.1V246l1.4-0.2v-3
	c0.5,0.2,1.2,0.3,1.9,0.3C396.9,243.1,398.5,241.8,398.5,239z"/>
<path class="st22" d="M401.9,243v-11.6l-1.4,0.2V243H401.9z"/>
<path class="st22" d="M407.2,236.3c1.1,0,1.6,0.7,1.8,1.9h-3.7C405.5,237,406.3,236.3,407.2,236.3z M410.4,242.1l-0.2-1.3
	c-0.8,0.7-1.6,1.1-2.7,1.1c-1.3,0-2.2-0.8-2.2-2.6h5.2V239c0-2.1-1-3.8-3.2-3.8c-1.9,0-3.4,1.5-3.4,4c0,2.8,1.6,4,3.5,4
	C408.6,243.2,409.6,242.8,410.4,242.1z"/>
<path class="st22" d="M416.6,240.9c-0.6,0.7-1.4,1.1-2.3,1.1c-0.7,0-1.1-0.4-1.1-1c0-0.8,0.6-1.6,3.4-1.8V240.9z M418,243v-5.3
	c0-1.7-0.9-2.4-2.8-2.4c-1.2,0-2,0.3-3,0.6l0.2,1.2c0.8-0.4,1.7-0.7,2.6-0.7c0.9,0,1.5,0.3,1.5,1.3v0.3c-3.2,0.3-4.8,1.1-4.8,3
	c0,1.3,0.9,2.1,2.2,2.1c1.2,0,2.1-0.6,2.7-1.2l0.2,1H418z"/>
<path class="st22" d="M425.5,240.9c0-1.5-0.8-2-2.7-2.5c-1.2-0.3-1.6-0.6-1.6-1.1c0-0.5,0.4-0.9,1.3-0.9c0.8,0,1.6,0.3,2.3,0.7
	l0.2-1.3c-0.7-0.3-1.6-0.5-2.5-0.5c-1.7,0-2.7,0.9-2.7,2.1c0,1.4,0.7,1.9,2.5,2.4c1.4,0.3,1.8,0.6,1.8,1.3c0,0.6-0.6,1-1.6,1
	c-1,0-2-0.4-2.7-0.9l-0.2,1.3c0.7,0.4,1.8,0.7,2.8,0.7C424.5,243.2,425.5,242.3,425.5,240.9z"/>
<path class="st22" d="M430.2,236.3c1.1,0,1.6,0.7,1.8,1.9h-3.7C428.6,237,429.3,236.3,430.2,236.3z M433.5,242.1l-0.2-1.3
	c-0.8,0.7-1.6,1.1-2.7,1.1c-1.3,0-2.2-0.8-2.2-2.6h5.2V239c0-2.1-1-3.8-3.2-3.8c-1.9,0-3.4,1.5-3.4,4c0,2.8,1.6,4,3.5,4
	C431.7,243.2,432.6,242.8,433.5,242.1z"/>
<path class="st35" d="M364.5,164.4l-0.3-1.9c-0.8,0.6-1.8,1-2.8,1c-2,0-3.2-1.5-3.2-3.9c0-2.4,1.2-3.9,3.2-3.9c1.1,0,1.9,0.4,2.6,1
	l0.3-2c-0.8-0.5-1.8-0.8-3-0.8c-3.2,0-5.3,2.3-5.3,5.7c0,3.4,2,5.7,5.2,5.7C362.5,165.3,363.6,164.9,364.5,164.4z"/>
<path class="st35" d="M370.3,163c-0.5,0.5-1.2,0.8-1.8,0.8c-0.6,0-0.9-0.3-0.9-0.9c0-0.7,0.5-1.4,2.8-1.7V163z M372.2,165.1v-5.3
	c0-1.9-1-2.6-3-2.6c-1.2,0-2.2,0.3-3.1,0.6l0.2,1.5c0.8-0.4,1.7-0.6,2.6-0.6c0.8,0,1.3,0.3,1.3,1.2v0.2c-3.1,0.3-4.7,1.1-4.7,3
	c0,1.3,0.9,2.1,2.2,2.1c1.2,0,2-0.5,2.6-1.2l0.2,1H372.2z"/>
<path class="st35" d="M379.3,161.2c0,1.7-0.8,2.5-1.7,2.5c-0.7,0-1-0.1-1.5-0.3V160c0.5-0.7,1.1-1.1,1.7-1.1
	C378.7,158.9,379.3,159.7,379.3,161.2z M381.2,161c0-2.6-1.3-3.8-2.9-3.8c-1.1,0-1.8,0.6-2.4,1.2l-0.2-1.1h-1.6v10.7l1.9-0.3v-2.9
	c0.5,0.2,1.1,0.3,1.8,0.3C379.6,165.2,381.2,163.9,381.2,161z"/>
<path class="st21" d="M391.7,158.7l-0.2-1h-6.3v1h2.6v7.2h1.1v-7.2H391.7z"/>
<path class="st21" d="M396.5,163.1c0-1.9-1.1-3-2.7-3c-1.5,0-2.6,1.1-2.6,3s1.1,3,2.6,3C395.3,166,396.5,164.9,396.5,163.1z
	 M395.4,163.1c0,1.2-0.5,2.1-1.6,2.1c-1,0-1.5-0.9-1.5-2.1c0-1.2,0.5-2.1,1.5-2.1C394.8,161,395.4,161.9,395.4,163.1z"/>
<path class="st21" d="M398.6,163.2c0-1.4,0.6-2.1,1.5-2.1c0.6,0,1,0.1,1.4,0.3v2.7c-0.5,0.6-1,1-1.6,1
	C399.1,165.1,398.6,164.4,398.6,163.2z M397.5,163.2c0,1.9,1,2.8,2.3,2.8c0.8,0,1.4-0.4,1.9-0.9l0.1,0.8h0.9v-8.7l-1.1,0.2v3
	c-0.4-0.1-0.9-0.3-1.4-0.3C398.7,160.1,397.5,161.1,397.5,163.2z"/>
<path class="st21" d="M407.5,164.3c-0.5,0.5-1.1,0.8-1.7,0.8c-0.5,0-0.9-0.3-0.9-0.8c0-0.6,0.4-1.2,2.6-1.4V164.3z M408.6,165.9v-4
	c0-1.3-0.7-1.8-2.1-1.8c-0.9,0-1.5,0.2-2.2,0.5l0.1,0.9c0.6-0.3,1.3-0.5,2-0.5c0.7,0,1.1,0.3,1.1,1v0.2c-2.4,0.3-3.6,0.8-3.6,2.2
	c0,1,0.6,1.6,1.7,1.6c0.9,0,1.6-0.4,2-0.9l0.1,0.8H408.6z"/>
<path class="st21" d="M410.6,168.1c0.8,0,1.5-0.3,1.9-1.6l2.3-6.3h-1.1l-1.5,4.5l-1.5-4.5l-1.1,0.2l2.1,5.7l-0.1,0.4
	c-0.2,0.6-0.6,0.8-1,0.8c-0.2,0-0.4,0-0.6-0.1l0.2,1C410.2,168.1,410.3,168.1,410.6,168.1z"/>
<path class="st21" d="M421.9,164.3c-0.5,0.5-1.1,0.8-1.7,0.8c-0.5,0-0.9-0.3-0.9-0.8c0-0.6,0.4-1.2,2.6-1.4V164.3z M422.9,165.9v-4
	c0-1.3-0.7-1.8-2.1-1.8c-0.9,0-1.5,0.2-2.2,0.5l0.1,0.9c0.6-0.3,1.3-0.5,2-0.5c0.7,0,1.1,0.3,1.1,1v0.2c-2.4,0.3-3.6,0.8-3.6,2.2
	c0,1,0.6,1.6,1.7,1.6c0.9,0,1.6-0.4,2-0.9l0.1,0.8H422.9z"/>
<path class="st21" d="M427.3,165.9l-0.1-0.9c-0.1,0-0.3,0-0.5,0c-0.6,0-0.8-0.3-0.8-0.8v-3.2h1.4l-0.1-0.9h-1.2v-2.1l-1,0.2v1.9H424
	v0.9h0.9v3.4c0,1.2,0.7,1.5,1.7,1.5C426.9,166,427.1,166,427.3,165.9z"/>
<path class="st21" d="M432.1,166.1c2.6-0.6,4.5-2.2,4.5-5c0-2.2-1.2-3.4-2.9-3.4c-1.6,0-2.8,1.1-2.8,2.7c0,1.6,0.9,2.5,2.5,2.5
	c0.8,0,1.4-0.2,2-0.6c-0.4,1.7-1.8,2.5-3.5,2.8L432.1,166.1z M433.6,161.9c-1.2,0-1.7-0.6-1.7-1.6c0-1.1,0.7-1.7,1.7-1.7
	c1.2,0,1.9,1,1.9,2.5v0.1C435,161.7,434.4,161.9,433.6,161.9z"/>
<path class="st21" d="M439.2,161.6v-1.4H438v1.4H439.2z M439.2,165.9v-1.4H438v1.4H439.2z"/>
<path class="st21" d="M443.2,165.9v-8.1h-0.9l-1.9,0.9l0.1,0.9l1.7-0.6v7H443.2z"/>
<path class="st21" d="M446,166.1c2.6-0.6,4.5-2.2,4.5-5c0-2.2-1.2-3.4-2.9-3.4c-1.6,0-2.8,1.1-2.8,2.7c0,1.6,0.9,2.5,2.5,2.5
	c0.8,0,1.4-0.2,2-0.6c-0.4,1.7-1.8,2.5-3.5,2.8L446,166.1z M447.5,161.9c-1.2,0-1.7-0.6-1.7-1.6c0-1.1,0.7-1.7,1.7-1.7
	c1.2,0,1.9,1,1.9,2.5v0.1C448.9,161.7,448.3,161.9,447.5,161.9z"/>
<path class="st21" d="M460.5,166l1.1-0.2l-3.2-8.2h-1.1l-3.2,8.3h1.2l0.9-2.5h3.4L460.5,166z M457.9,158.9l1.3,3.5h-2.6L457.9,158.9
	z"/>
<path class="st21" d="M472,165.9l-0.6-8.3H470l-2.6,6.8l-2.6-6.8h-1.4l-0.7,8.3h1.1l0.5-6.7l2.6,6.7h0.9l2.6-6.7l0.5,6.7H472z"/>
<path class="st22" d="M357.9,187v-11h-1.5v11H357.9z"/>
<path class="st22" d="M370.2,187v-5.6c0-1.4-0.8-2.2-2.2-2.2c-1.1,0-2,0.6-2.7,1.3l-0.2-1.1H364v7.6h1.4v-5.3
	c0.7-0.7,1.5-1.2,2.2-1.2c0.8,0,1.2,0.5,1.2,1.3v5.2H370.2z"/>
<path class="st22" d="M375.3,180.3c1.1,0,1.6,0.7,1.8,1.9h-3.7C373.7,181,374.5,180.3,375.3,180.3z M378.6,186.1l-0.2-1.3
	c-0.8,0.7-1.6,1.1-2.7,1.1c-1.3,0-2.2-0.8-2.2-2.6h5.2V183c0-2.1-1-3.8-3.2-3.8c-1.9,0-3.4,1.5-3.4,4c0,2.8,1.6,4,3.5,4
	C376.8,187.2,377.8,186.8,378.6,186.1z"/>
<path class="st22" d="M383.3,180.3c1.1,0,1.6,0.7,1.8,1.9h-3.7C381.7,181,382.4,180.3,383.3,180.3z M386.6,186.1l-0.2-1.3
	c-0.8,0.7-1.6,1.1-2.7,1.1c-1.3,0-2.2-0.8-2.2-2.6h5.2V183c0-2.1-1-3.8-3.2-3.8c-1.9,0-3.4,1.5-3.4,4c0,2.8,1.6,4,3.5,4
	C384.8,187.2,385.8,186.8,386.6,186.1z"/>
<path class="st22" d="M389.4,183.3c0-1.9,0.9-2.9,2.1-2.9c0.8,0,1.3,0.1,1.9,0.4v3.6c-0.6,0.8-1.3,1.3-2.2,1.3
	C390.2,185.9,389.4,185,389.4,183.3z M388,183.4c0,2.6,1.4,3.8,3,3.8c1.1,0,1.9-0.6,2.5-1.3l0.2,1.1h1.1v-11.6l-1.4,0.2v3.9
	c-0.5-0.2-1.2-0.3-1.9-0.3C389.6,179.3,388,180.6,388,183.4z"/>
<path class="st22" d="M404.2,187l-0.2-1.2c-0.2,0-0.4,0-0.7,0c-0.8,0-1.1-0.4-1.1-1v-4.3h1.8l-0.2-1.2h-1.6v-2.8l-1.4,0.2v2.5h-1.2
	v1.2h1.2v4.5c0,1.5,0.9,2,2.2,2C403.6,187.1,404,187.1,404.2,187z"/>
<path class="st22" d="M412.1,187v-5.6c0-1.4-0.8-2.2-2.2-2.2c-1.1,0-2,0.6-2.6,1.2v-4.9l-1.4,0.2V187h1.4v-5.3
	c0.7-0.7,1.5-1.2,2.2-1.2c0.8,0,1.2,0.5,1.2,1.3v5.2H412.1z"/>
<path class="st22" d="M417.3,180.3c1.1,0,1.6,0.7,1.8,1.9h-3.7C415.6,181,416.4,180.3,417.3,180.3z M420.5,186.1l-0.2-1.3
	c-0.8,0.7-1.6,1.1-2.7,1.1c-1.3,0-2.2-0.8-2.2-2.6h5.2V183c0-2.1-1-3.8-3.2-3.8c-1.9,0-3.4,1.5-3.4,4c0,2.8,1.6,4,3.5,4
	C418.7,187.2,419.7,186.8,420.5,186.1z"/>
<path class="st22" d="M433.2,187v-5.6c0-1.4-0.7-2.2-2.2-2.2c-1.1,0-2,0.6-2.7,1.3c-0.3-0.8-0.9-1.3-2-1.3c-1.1,0-1.9,0.6-2.7,1.3
	l-0.2-1.1h-1.1v7.6h1.4v-5.3c0.7-0.7,1.4-1.2,2.2-1.2c0.8,0,1.1,0.5,1.1,1.3v5.2h1.4v-5.3c0.7-0.7,1.4-1.2,2.2-1.2
	c0.8,0,1.1,0.5,1.1,1.3v5.2H433.2z"/>
<path class="st22" d="M442.6,187l-0.2-1.2c-0.2,0-0.4,0-0.7,0c-0.8,0-1.1-0.4-1.1-1v-4.3h1.8l-0.2-1.2h-1.6v-2.8l-1.4,0.2v2.5h-1.2
	v1.2h1.2v4.5c0,1.5,0.9,2,2.2,2C442,187.1,442.3,187.1,442.6,187z"/>
<path class="st22" d="M450.9,183.2c0-2.5-1.5-4-3.6-4c-2,0-3.5,1.5-3.5,4c0,2.5,1.5,4,3.5,4C449.3,187.2,450.9,185.7,450.9,183.2z
	 M449.4,183.2c0,1.6-0.7,2.8-2.1,2.8c-1.3,0-2.1-1.2-2.1-2.8c0-1.6,0.7-2.8,2.1-2.8S449.4,181.6,449.4,183.2z"/>
<path class="st22" d="M459.3,183.2c0-2.5-1.5-4-3.6-4c-2,0-3.5,1.5-3.5,4c0,2.5,1.5,4,3.5,4C457.8,187.2,459.3,185.7,459.3,183.2z
	 M457.9,183.2c0,1.6-0.7,2.8-2.1,2.8c-1.3,0-2.1-1.2-2.1-2.8c0-1.6,0.7-2.8,2.1-2.8C457.1,180.4,457.9,181.6,457.9,183.2z"/>
<path class="st22" d="M463,176h-1.7l0.4,7.8l0.9-0.2L463,176z M463,187v-1.9h-1.6v1.9H463z"/>
<path class="st36" d="M365.4,88.4v-5.3h-4.4l0.3,1.7h2.2v2.4c-0.5,0.3-1.1,0.4-1.9,0.4c-2.2,0-3.3-1.6-3.3-3.9
	c0-2.4,1.1-3.9,3.2-3.9c1.2,0,2.2,0.4,3,1l0.3-2c-0.9-0.5-2-0.9-3.4-0.9c-3.4,0-5.4,2.3-5.4,5.7c0,3.4,1.9,5.7,5.4,5.7
	C363,89.5,364.3,89.1,365.4,88.4z"/>
<path class="st36" d="M372,83.3l-0.3-1.9c-1.2,0.1-2,0.8-2.5,1.7l-0.2-1.6h-1.6v7.7h1.9v-4.4C369.8,84.1,370.8,83.4,372,83.3z"/>
<path class="st36" d="M377.2,87.2c-0.5,0.5-1.2,0.8-1.8,0.8c-0.6,0-0.9-0.3-0.9-0.9c0-0.7,0.5-1.4,2.8-1.7V87.2z M379.1,89.3V84
	c0-1.9-1-2.6-3-2.6c-1.2,0-2.2,0.3-3.1,0.6l0.2,1.5c0.8-0.4,1.7-0.6,2.6-0.6c0.8,0,1.3,0.3,1.3,1.2v0.2c-3.1,0.3-4.7,1.1-4.7,3
	c0,1.3,0.9,2.1,2.2,2.1c1.2,0,2-0.5,2.6-1.2l0.2,1H379.1z"/>
<path class="st36" d="M385.2,84.1c0,0.8-0.5,1.5-1.4,1.5c-0.8,0-1.3-0.6-1.3-1.4c0-0.8,0.5-1.5,1.3-1.5
	C384.6,82.7,385.2,83.3,385.2,84.1z M387.9,89.6c0-1.2-1-1.7-2.6-1.9l-1-0.1c-1.2-0.2-1.4-0.2-1.4-0.5c0-0.1,0.1-0.3,0.3-0.4
	c0.2,0,0.4,0,0.6,0c1.7,0,3.1-1,3.1-2.7c0-0.4-0.1-0.7-0.2-1l1.4-0.1l-0.3-1.5l-1.9,0.7c-0.6-0.5-1.3-0.7-2.2-0.7
	c-1.7,0-3.1,1-3.1,2.7c0,1,0.5,1.8,1.5,2.3c-0.6,0.4-1,0.8-1,1.2c0,0.3,0.1,0.6,0.4,0.8c-1,0.5-1.5,1.1-1.5,1.8
	c0,1.3,1.6,1.9,3.7,1.9C386.1,92.2,387.9,91.3,387.9,89.6z M384,91.1c-1.5,0-2.1-0.4-2.1-1c0-0.4,0.3-0.8,0.8-1.2
	c0.4,0.1,0.6,0.1,1.2,0.2l1,0.1c1,0.1,1.3,0.4,1.3,0.8C386.1,90.6,385.4,91.1,384,91.1z"/>
<path class="st36" d="M393.5,84.1c0,0.8-0.5,1.5-1.4,1.5c-0.8,0-1.3-0.6-1.3-1.4c0-0.8,0.5-1.5,1.3-1.5
	C392.9,82.7,393.5,83.3,393.5,84.1z M396.2,89.6c0-1.2-1-1.7-2.6-1.9l-1-0.1c-1.2-0.2-1.4-0.2-1.4-0.5c0-0.1,0.1-0.3,0.3-0.4
	c0.2,0,0.4,0,0.6,0c1.7,0,3.1-1,3.1-2.7c0-0.4-0.1-0.7-0.2-1l1.4-0.1l-0.3-1.5l-1.9,0.7c-0.6-0.5-1.3-0.7-2.2-0.7
	c-1.7,0-3.1,1-3.1,2.7c0,1,0.5,1.8,1.5,2.3c-0.6,0.4-1,0.8-1,1.2c0,0.3,0.1,0.6,0.4,0.8c-1,0.5-1.5,1.1-1.5,1.8
	c0,1.3,1.6,1.9,3.7,1.9C394.4,92.2,396.2,91.3,396.2,89.6z M392.3,91.1c-1.5,0-2.1-0.4-2.1-1c0-0.4,0.3-0.8,0.8-1.2
	c0.4,0.1,0.6,0.1,1.2,0.2l1,0.1c1,0.1,1.3,0.4,1.3,0.8C394.4,90.6,393.7,91.1,392.3,91.1z"/>
<path class="st36" d="M399.6,89.3V77.8l-1.9,0.3v11.2H399.6z"/>
<path class="st36" d="M404.7,82.8c0.9,0,1.4,0.7,1.5,1.9h-3.1C403.3,83.4,403.9,82.8,404.7,82.8z M408.1,88.5l-0.2-1.5
	c-0.8,0.6-1.7,1-2.7,1c-1.2,0-2-0.7-2.1-2.2h5c0-0.1,0-0.3,0-0.5c0-2.2-1-3.9-3.4-3.9c-2,0-3.5,1.5-3.5,4c0,2.8,1.6,4,3.8,4
	C406.2,89.5,407.2,89.1,408.1,88.5z"/>
<path class="st21" d="M418.6,82.8l-0.2-1h-6.3v1h2.6V90h1.1v-7.2H418.6z"/>
<path class="st21" d="M423.3,87.2c0-1.9-1.1-3-2.7-3c-1.5,0-2.6,1.1-2.6,3s1.1,3,2.6,3C422.2,90.2,423.3,89.1,423.3,87.2z
	 M422.2,87.2c0,1.2-0.5,2.1-1.6,2.1c-1,0-1.5-0.9-1.5-2.1c0-1.2,0.5-2.1,1.5-2.1S422.2,86,422.2,87.2z"/>
<path class="st21" d="M425.4,87.3c0-1.4,0.6-2.1,1.5-2.1c0.6,0,1,0.1,1.4,0.3v2.7c-0.5,0.6-1,1-1.6,1
	C426,89.2,425.4,88.6,425.4,87.3z M424.4,87.3c0,1.9,1,2.8,2.3,2.8c0.8,0,1.4-0.4,1.9-0.9l0.1,0.8h0.9v-8.7l-1.1,0.2v3
	c-0.4-0.1-0.9-0.3-1.4-0.3C425.6,84.3,424.4,85.3,424.4,87.3z"/>
<path class="st21" d="M434.4,88.5c-0.5,0.5-1.1,0.8-1.7,0.8c-0.5,0-0.9-0.3-0.9-0.8c0-0.6,0.4-1.2,2.6-1.4V88.5z M435.5,90v-4
	c0-1.3-0.7-1.8-2.1-1.8c-0.9,0-1.5,0.2-2.2,0.5l0.1,0.9c0.6-0.3,1.3-0.5,2-0.5c0.7,0,1.1,0.3,1.1,1v0.2c-2.4,0.3-3.6,0.8-3.6,2.2
	c0,1,0.6,1.6,1.7,1.6c0.9,0,1.6-0.4,2-0.9l0.1,0.8H435.5z"/>
<path class="st21" d="M437.4,92.2c0.8,0,1.5-0.3,1.9-1.6l2.3-6.3h-1.1l-1.5,4.5l-1.5-4.5l-1.1,0.2l2.1,5.7l-0.1,0.4
	c-0.2,0.6-0.6,0.8-1,0.8c-0.2,0-0.4,0-0.6-0.1l0.2,1C437.1,92.2,437.2,92.2,437.4,92.2z"/>
<path class="st21" d="M448.7,88.5c-0.5,0.5-1.1,0.8-1.7,0.8c-0.5,0-0.9-0.3-0.9-0.8c0-0.6,0.4-1.2,2.6-1.4V88.5z M449.8,90v-4
	c0-1.3-0.7-1.8-2.1-1.8c-0.9,0-1.5,0.2-2.2,0.5l0.1,0.9c0.6-0.3,1.3-0.5,2-0.5c0.7,0,1.1,0.3,1.1,1v0.2c-2.4,0.3-3.6,0.8-3.6,2.2
	c0,1,0.6,1.6,1.7,1.6c0.9,0,1.6-0.4,2-0.9l0.1,0.8H449.8z"/>
<path class="st21" d="M454.2,90.1l-0.1-0.9c-0.1,0-0.3,0-0.5,0c-0.6,0-0.8-0.3-0.8-0.8v-3.2h1.4l-0.1-0.9h-1.2v-2.1l-1,0.2v1.9h-0.9
	v0.9h0.9v3.4c0,1.2,0.7,1.5,1.7,1.5C453.8,90.1,454,90.1,454.2,90.1z"/>
<path class="st21" d="M459,90.2c2.6-0.6,4.5-2.2,4.5-5c0-2.2-1.2-3.4-2.9-3.4c-1.6,0-2.8,1.1-2.8,2.7s0.9,2.5,2.5,2.5
	c0.8,0,1.4-0.2,2-0.6c-0.4,1.7-1.8,2.5-3.5,2.8L459,90.2z M460.5,86.1c-1.2,0-1.7-0.6-1.7-1.6c0-1.1,0.7-1.7,1.7-1.7
	c1.2,0,1.9,1,1.9,2.5v0.1C461.8,85.8,461.2,86.1,460.5,86.1z"/>
<path class="st21" d="M466.1,85.8v-1.4h-1.2v1.4H466.1z M466.1,90v-1.4h-1.2V90H466.1z"/>
<path class="st21" d="M470,90v-8.1h-0.9l-1.9,0.9l0.1,0.9L469,83v7H470z"/>
<path class="st21" d="M474.6,90.2c1.8,0,2.9-1,2.9-2.2c0-1.2-0.6-1.8-1.7-2.2c0.8-0.4,1.4-1.1,1.4-1.9c0-1.2-0.9-2.1-2.5-2.1
	c-1.5,0-2.6,0.9-2.6,2.1c0,0.9,0.4,1.5,1.3,2c-1,0.5-1.7,1.2-1.7,2.2C471.7,89.2,472.7,90.2,474.6,90.2z M473.1,83.8
	c0-0.6,0.6-1.2,1.5-1.2s1.5,0.5,1.5,1.2c0,0.6-0.5,1.2-1.3,1.5C473.6,84.9,473.1,84.5,473.1,83.8z M474.6,89.3
	c-1.1,0-1.8-0.6-1.8-1.4c0-0.7,0.6-1.4,1.6-1.7c1.5,0.6,2.1,0.9,2.1,1.8C476.4,88.7,475.7,89.3,474.6,89.3z"/>
<path class="st21" d="M487.4,90.1l1.1-0.2l-3.2-8.2h-1.1L481,90h1.2l0.9-2.5h3.4L487.4,90.1z M484.8,83.1l1.3,3.5h-2.6L484.8,83.1z"
	/>
<path class="st21" d="M498.9,90l-0.6-8.3h-1.4l-2.6,6.8l-2.6-6.8h-1.4l-0.7,8.3h1.1l0.5-6.7l2.6,6.7h0.9l2.6-6.7l0.5,6.7H498.9z"/>
<path class="st22" d="M370.7,100h-1.6l-2.4,8.7l-2.8-8.7h-1.5l-2.8,8.7l-2.5-8.8l-1.5,0.3l3.3,10.9h1.2l3-9l3,9h1.3L370.7,100z"/>
<path class="st22" d="M378.6,111v-5.6c0-1.4-0.8-2.2-2.2-2.2c-1.1,0-2,0.6-2.6,1.2v-4.9l-1.4,0.2V111h1.4v-5.3
	c0.7-0.7,1.5-1.2,2.2-1.2c0.8,0,1.2,0.5,1.2,1.3v5.2H378.6z"/>
<path class="st22" d="M387.4,107.2c0-2.5-1.5-4-3.6-4c-2,0-3.5,1.5-3.5,4c0,2.5,1.5,4,3.5,4C385.9,111.2,387.4,109.7,387.4,107.2z
	 M386,107.2c0,1.6-0.7,2.8-2.1,2.8c-1.3,0-2.1-1.2-2.1-2.8c0-1.6,0.7-2.8,2.1-2.8C385.3,104.4,386,105.6,386,107.2z"/>
<path class="st22" d="M390.9,100h-1.6l-0.5,3.5l0.8,0.2L390.9,100z"/>
<path class="st22" d="M397.6,108.9c0-1.5-0.8-2-2.7-2.5c-1.2-0.3-1.6-0.6-1.6-1.1c0-0.5,0.4-0.9,1.3-0.9c0.8,0,1.6,0.3,2.3,0.7
	l0.2-1.3c-0.7-0.3-1.6-0.5-2.5-0.5c-1.7,0-2.7,0.9-2.7,2.1c0,1.4,0.7,1.9,2.5,2.4c1.4,0.3,1.8,0.6,1.8,1.3c0,0.6-0.6,1-1.6,1
	c-1,0-2-0.4-2.7-0.9l-0.2,1.3c0.7,0.4,1.8,0.7,2.8,0.7C396.5,111.2,397.6,110.3,397.6,108.9z"/>
<path class="st22" d="M407,105.8c0,0.9-0.6,1.6-1.6,1.6c-0.9,0-1.6-0.7-1.6-1.6c0-0.9,0.6-1.7,1.6-1.7
	C406.4,104.2,407,104.9,407,105.8z M409.3,111.6c0-1.2-1-1.7-2.6-2l-0.5-0.1c-1.3-0.2-1.6-0.3-1.6-0.6c0-0.1,0.2-0.3,0.4-0.5
	c0.2,0,0.4,0,0.6,0c1.6,0,2.9-1,2.9-2.6c0-0.4-0.1-0.8-0.3-1.2l1.5-0.1l-0.2-1.3l-1.9,0.6c-0.5-0.4-1.2-0.6-2-0.6
	c-1.6,0-2.9,1-2.9,2.7c0,1,0.6,1.8,1.4,2.3c-0.5,0.3-0.8,0.7-0.8,1c0,0.3,0.1,0.6,0.5,0.8c-1.1,0.6-1.6,1.2-1.6,2c0,1.3,1.6,2,3.6,2
	C407.5,113.9,409.3,113.2,409.3,111.6z M405.6,112.9c-1.5,0-2.3-0.4-2.3-1.1c0-0.5,0.4-1,1.3-1.4c0.3,0.1,0.5,0.1,0.9,0.2l0.9,0.2
	c1.1,0.2,1.4,0.5,1.4,1C407.9,112.4,407.1,112.9,405.6,112.9z"/>
<path class="st22" d="M417.4,107.2c0-2.5-1.5-4-3.6-4c-2,0-3.5,1.5-3.5,4c0,2.5,1.5,4,3.5,4C415.9,111.2,417.4,109.7,417.4,107.2z
	 M416,107.2c0,1.6-0.7,2.8-2.1,2.8c-1.3,0-2.1-1.2-2.1-2.8c0-1.6,0.7-2.8,2.1-2.8S416,105.6,416,107.2z"/>
<path class="st22" d="M422.9,111l-0.2-1.2c-0.2,0-0.4,0-0.7,0c-0.8,0-1.1-0.4-1.1-1v-4.3h1.8l-0.2-1.2H421v-2.8l-1.4,0.2v2.5h-1.2
	v1.2h1.2v4.5c0,1.5,0.9,2,2.2,2C422.3,111.1,422.6,111.1,422.9,111z"/>
<path class="st22" d="M434.3,111v-5.6c0-1.4-0.8-2.2-2.2-2.2c-1.1,0-2,0.6-2.7,1.3l-0.2-1.1h-1.1v7.6h1.4v-5.3
	c0.7-0.7,1.5-1.2,2.2-1.2c0.8,0,1.2,0.5,1.2,1.3v5.2H434.3z"/>
<path class="st22" d="M443.2,107.2c0-2.5-1.5-4-3.6-4c-2,0-3.5,1.5-3.5,4c0,2.5,1.5,4,3.5,4C441.7,111.2,443.2,109.7,443.2,107.2z
	 M441.7,107.2c0,1.6-0.7,2.8-2.1,2.8c-1.3,0-2.1-1.2-2.1-2.8c0-1.6,0.7-2.8,2.1-2.8S441.7,105.6,441.7,107.2z"/>
<path class="st22" d="M448.7,111l-0.2-1.2c-0.2,0-0.4,0-0.7,0c-0.8,0-1.1-0.4-1.1-1v-4.3h1.8l-0.2-1.2h-1.6v-2.8l-1.4,0.2v2.5h-1.2
	v1.2h1.2v4.5c0,1.5,0.9,2,2.2,2C448.1,111.1,448.4,111.1,448.7,111z"/>
<path class="st22" d="M453.2,104.3c1.1,0,1.6,0.7,1.8,1.9h-3.7C451.6,105,452.4,104.3,453.2,104.3z M456.5,110.1l-0.2-1.3
	c-0.8,0.7-1.6,1.1-2.7,1.1c-1.3,0-2.2-0.8-2.2-2.6h5.2V107c0-2.1-1-3.8-3.2-3.8c-1.9,0-3.4,1.5-3.4,4c0,2.8,1.6,4,3.5,4
	C454.7,111.2,455.7,110.8,456.5,110.1z"/>
<path class="st22" d="M463.6,108.9c0-1.5-0.8-2-2.7-2.5c-1.2-0.3-1.6-0.6-1.6-1.1c0-0.5,0.4-0.9,1.3-0.9c0.8,0,1.6,0.3,2.3,0.7
	l0.2-1.3c-0.7-0.3-1.6-0.5-2.5-0.5c-1.7,0-2.7,0.9-2.7,2.1c0,1.4,0.7,1.9,2.5,2.4c1.4,0.3,1.8,0.6,1.8,1.3c0,0.6-0.6,1-1.6,1
	c-1,0-2-0.4-2.7-0.9l-0.2,1.3c0.7,0.4,1.8,0.7,2.8,0.7C462.6,111.2,463.6,110.3,463.6,108.9z"/>
<path class="st22" d="M472.5,100.9l-0.2-1.3c-0.2,0-0.4,0-0.6,0c-1.4,0-2.4,0.6-2.4,2.1v1.7h-1.2v1.2h1.2v6.4h1.4v-6.4h1.7l-0.2-1.2
	h-1.5v-1.6c0-0.7,0.4-1,1.1-1C472.1,100.8,472.4,100.8,472.5,100.9z"/>
<path class="st22" d="M478.1,104.6l-0.2-1.4c-1.2,0.1-2.1,0.8-2.7,1.7l-0.2-1.6h-1.1v7.6h1.4v-4.5
	C475.8,105.5,476.9,104.6,478.1,104.6z"/>
<path class="st22" d="M485.9,107.2c0-2.5-1.5-4-3.6-4c-2,0-3.5,1.5-3.5,4c0,2.5,1.5,4,3.5,4C484.4,111.2,485.9,109.7,485.9,107.2z
	 M484.5,107.2c0,1.6-0.7,2.8-2.1,2.8c-1.3,0-2.1-1.2-2.1-2.8c0-1.6,0.7-2.8,2.1-2.8C483.8,104.4,484.5,105.6,484.5,107.2z"/>
<path class="st22" d="M498.6,111v-5.6c0-1.4-0.7-2.2-2.2-2.2c-1.1,0-2,0.6-2.7,1.3c-0.3-0.8-0.9-1.3-2-1.3c-1.1,0-1.9,0.6-2.7,1.3
	l-0.2-1.1h-1.1v7.6h1.4v-5.3c0.7-0.7,1.4-1.2,2.2-1.2c0.8,0,1.1,0.5,1.1,1.3v5.2h1.4v-5.3c0.7-0.7,1.4-1.2,2.2-1.2
	c0.8,0,1.1,0.5,1.1,1.3v5.2H498.6z"/>
<path class="st22" d="M362.3,131v-5.6c0-1.4-0.8-2.2-2.2-2.2c-1.1,0-2,0.6-2.6,1.2v-4.9l-1.4,0.2V131h1.4v-5.3
	c0.7-0.7,1.5-1.2,2.2-1.2c0.8,0,1.2,0.5,1.2,1.3v5.2H362.3z"/>
<path class="st22" d="M366.3,120.9c0-0.5-0.4-0.9-0.9-0.9s-0.9,0.4-0.9,0.9s0.4,0.9,0.9,0.9S366.3,121.4,366.3,120.9z M366.1,131
	v-7.6h-1.4v7.6H366.1z"/>
<path class="st22" d="M373.8,128.9c0-1.5-0.8-2-2.7-2.5c-1.2-0.3-1.6-0.6-1.6-1.1c0-0.5,0.4-0.9,1.3-0.9c0.8,0,1.6,0.3,2.3,0.7
	l0.2-1.3c-0.7-0.3-1.6-0.5-2.5-0.5c-1.7,0-2.7,0.9-2.7,2.1c0,1.4,0.7,1.9,2.5,2.4c1.4,0.3,1.8,0.6,1.8,1.3c0,0.6-0.6,1-1.6,1
	c-1,0-2-0.4-2.7-0.9l-0.2,1.3c0.7,0.4,1.8,0.7,2.8,0.7C372.7,131.2,373.8,130.3,373.8,128.9z"/>
<path class="st22" d="M379.2,131l-0.2-1.2c-0.2,0-0.4,0-0.7,0c-0.8,0-1.1-0.4-1.1-1v-4.3h1.8l-0.2-1.2h-1.6v-2.8l-1.4,0.2v2.5h-1.2
	v1.2h1.2v4.5c0,1.5,0.9,2,2.2,2C378.6,131.1,379,131.1,379.2,131z"/>
<path class="st22" d="M387.5,127.2c0-2.5-1.5-4-3.6-4c-2,0-3.5,1.5-3.5,4c0,2.5,1.5,4,3.5,4C386,131.2,387.5,129.7,387.5,127.2z
	 M386,127.2c0,1.6-0.7,2.8-2.1,2.8c-1.3,0-2.1-1.2-2.1-2.8c0-1.6,0.7-2.8,2.1-2.8S386,125.6,386,127.2z"/>
<path class="st22" d="M393.6,124.6l-0.2-1.4c-1.2,0.1-2.1,0.8-2.7,1.7l-0.2-1.6h-1.1v7.6h1.4v-4.5
	C391.2,125.5,392.3,124.6,393.6,124.6z"/>
<path class="st22" d="M395.6,133.9c1.1,0,2-0.4,2.6-2.1l3.1-8.4h-1.5l-2,5.9l-2-6l-1.4,0.2l2.8,7.6l-0.2,0.5
	c-0.3,0.8-0.7,1.1-1.4,1.1c-0.2,0-0.5,0-0.8-0.1l0.2,1.3C395.1,133.9,395.3,133.9,395.6,133.9z"/>
<path class="st22" d="M409.9,131l-0.2-1.2c-0.2,0-0.4,0-0.7,0c-0.8,0-1.1-0.4-1.1-1v-4.3h1.8l-0.2-1.2H408v-2.8l-1.4,0.2v2.5h-1.2
	v1.2h1.2v4.5c0,1.5,0.9,2,2.2,2C409.4,131.1,409.7,131.1,409.9,131z"/>
<path class="st22" d="M418.2,127.2c0-2.5-1.5-4-3.6-4c-2,0-3.5,1.5-3.5,4c0,2.5,1.5,4,3.5,4C416.7,131.2,418.2,129.7,418.2,127.2z
	 M416.8,127.2c0,1.6-0.7,2.8-2.1,2.8c-1.3,0-2.1-1.2-2.1-2.8c0-1.6,0.7-2.8,2.1-2.8S416.8,125.6,416.8,127.2z"/>
<path class="st22" d="M421,127.3c0-1.9,0.9-2.9,2.1-2.9c0.8,0,1.3,0.1,1.9,0.4v3.6c-0.6,0.8-1.3,1.3-2.2,1.3
	C421.8,129.9,421,129,421,127.3z M419.6,127.4c0,2.6,1.4,3.8,3,3.8c1.1,0,1.9-0.6,2.5-1.3l0.2,1.1h1.1v-11.6l-1.4,0.2v3.9
	c-0.5-0.2-1.2-0.3-1.9-0.3C421.2,123.3,419.6,124.6,419.6,127.4z"/>
<path class="st22" d="M433,128.9c-0.6,0.7-1.4,1.1-2.3,1.1c-0.7,0-1.1-0.4-1.1-1c0-0.8,0.6-1.6,3.4-1.8V128.9z M434.4,131v-5.3
	c0-1.7-0.9-2.4-2.8-2.4c-1.2,0-2,0.3-3,0.6l0.2,1.2c0.8-0.4,1.7-0.7,2.6-0.7c0.9,0,1.5,0.3,1.5,1.3v0.3c-3.2,0.3-4.8,1.1-4.8,3
	c0,1.3,0.9,2.1,2.2,2.1c1.2,0,2.1-0.6,2.7-1.2l0.2,1H434.4z"/>
<path class="st22" d="M437,133.9c1.1,0,2-0.4,2.6-2.1l3.1-8.4h-1.5l-2,5.9l-2-6l-1.4,0.2l2.8,7.6l-0.2,0.5c-0.3,0.8-0.7,1.1-1.4,1.1
	c-0.2,0-0.5,0-0.8-0.1l0.2,1.3C436.6,133.9,436.7,133.9,437,133.9z"/>
<path class="st22" d="M446.1,127.7l0.9-0.2l0.1-1.6c1.9-0.9,3.1-1.6,3.1-3.3c0-1.7-1.3-2.8-3.3-2.8c-1.3,0-2.4,0.5-3.4,1.2l0.2,1.5
	c0.9-0.7,1.9-1.3,3.1-1.3c1.1,0,1.9,0.6,1.9,1.5c0,1-0.7,1.5-2.2,2.2l-0.7,0.3L446.1,127.7z M445.8,131h1.6v-1.9h-1.6V131z"/>
<path class="st0" d="M40,66h175c4.4,0,8,3.6,8,8v32c0,4.4-3.6,8-8,8H40c-4.4,0-8-3.6-8-8V74C32,69.6,35.6,66,40,66z"/>
<path class="st1" d="M50.8,101.5c-0.3,0-0.5-0.3-0.5-0.6l0.7-4.1h-4.1c-0.3,0-0.5-0.3-0.5-0.6l0.2-1.3c0-0.2,0.2-0.4,0.5-0.4h4.2
	l1.2-7h-4.1c-0.3,0-0.5-0.3-0.5-0.6l0.2-1.3c0-0.2,0.2-0.4,0.5-0.4h4.2l0.8-4.3c0-0.2,0.2-0.4,0.5-0.4h1.3c0.3,0,0.5,0.3,0.5,0.6
	l-0.7,4.1h7l0.8-4.3c0-0.2,0.2-0.4,0.5-0.4H65c0.3,0,0.5,0.3,0.5,0.6l-0.7,4.1h4.1c0.3,0,0.5,0.3,0.5,0.6l-0.2,1.3
	c0,0.2-0.2,0.4-0.5,0.4h-4.2l-1.2,7h4.1c0.3,0,0.5,0.3,0.5,0.6l-0.2,1.3c0,0.2-0.2,0.4-0.5,0.4h-4.2l-0.8,4.3c0,0.2-0.2,0.4-0.5,0.4
	h-1.3c-0.3,0-0.5-0.3-0.5-0.6l0.7-4.1h-7l-0.8,4.3c0,0.2-0.2,0.4-0.5,0.4H50.8z M55,87.5l-1.2,7h7l1.2-7H55z"/>
<path class="st2" d="M87.2,92.9c0-2-1.1-2.8-3.8-3.5c-1.6-0.4-2-0.7-2-1.3c0-0.6,0.5-1,1.5-1c1.1,0,2.3,0.4,3.4,1l0.4-2.2
	c-1.1-0.5-2.3-0.7-3.7-0.7c-2.5,0-3.9,1.3-3.9,3.1c0,1.9,1.1,2.7,3.7,3.3c1.7,0.4,2.2,0.7,2.2,1.5c0,0.7-0.6,1.1-1.8,1.1
	c-1.3,0-2.7-0.5-3.9-1.3l-0.4,2.2c1,0.5,2.6,1,4.1,1C85.7,96.2,87.2,95,87.2,92.9z"/>
<path class="st2" d="M95,96l-0.3-2.2c-0.2,0.1-0.5,0.1-0.8,0.1c-1,0-1.4-0.5-1.4-1.3v-5h2.5l-0.3-2.2h-2.2v-3.8L89.8,82v3.4h-1.5
	v2.2h1.5V93c0,2.4,1.4,3.2,3.5,3.2C94.1,96.2,94.6,96.1,95,96z"/>
<path class="st2" d="M96.9,85.4V93c0,2,1,3.2,3,3.2c1.4,0,2.6-0.8,3.5-1.7l0.2,1.5h2.2V85.4h-2.6v7.2c-0.8,0.8-1.6,1.3-2.4,1.3
	c-1,0-1.4-0.6-1.4-1.5v-7H96.9z"/>
<path class="st2" d="M110.8,90.8c0-2.3,1-3.5,2.4-3.5c0.9,0,1.4,0.2,2.1,0.5v4.6c-0.7,0.9-1.5,1.5-2.4,1.5
	C111.7,93.9,110.8,92.9,110.8,90.8z M108.1,91c0,3.6,1.8,5.2,4,5.2c1.5,0,2.5-0.8,3.3-1.7l0.2,1.5h2.3V80.1l-2.6,0.4v5.1
	c-0.6-0.2-1.5-0.4-2.5-0.4C110.3,85.3,108.1,87,108.1,91z"/>
<path class="st2" d="M121.7,100c1.9,0,3.1-0.8,4-3.3l4.1-11.3h-2.7l-2.4,7.5l-2.4-7.6l-2.8,0.4l3.9,10.4l-0.1,0.3
	c-0.4,1.1-1.1,1.5-1.9,1.5c-0.5,0-0.8-0.1-1.2-0.2l0.4,2.2C120.9,100,121.1,100,121.7,100z"/>
<path class="st2" d="M136.6,90.9v-2.6h-5.7v2.6H136.6z"/>
<path class="st2" d="M144.8,88.8c0,1.2-0.7,2-1.9,2c-1.1,0-1.8-0.8-1.8-1.9c0-1.2,0.7-2.1,1.8-2.1C144,86.8,144.8,87.7,144.8,88.8z
	 M148.5,96.4c0-1.6-1.4-2.3-3.5-2.6l-1.4-0.1c-1.6-0.2-2-0.3-2-0.7c0-0.2,0.2-0.4,0.4-0.6c0.3,0,0.6,0.1,0.9,0.1
	c2.3,0,4.2-1.4,4.2-3.7c0-0.5-0.1-1-0.3-1.4l1.9-0.1l-0.4-2.1l-2.6,0.9c-0.8-0.6-1.8-1-3-1c-2.4,0-4.3,1.4-4.3,3.8
	c0,1.4,0.7,2.5,2,3.1c-0.9,0.5-1.3,1.1-1.3,1.7c0,0.4,0.2,0.8,0.6,1.1c-1.3,0.7-2,1.5-2,2.5c0,1.8,2.2,2.6,5.1,2.6
	C146,100,148.5,98.7,148.5,96.4z M143.1,98.4c-2,0-2.9-0.6-2.9-1.4c0-0.6,0.4-1.1,1.1-1.6c0.5,0.1,0.9,0.2,1.6,0.3l1.4,0.2
	c1.3,0.2,1.8,0.5,1.8,1.1C146.1,97.8,145,98.4,143.1,98.4z"/>
<path class="st2" d="M156.8,87.8l-0.4-2.6c-1.6,0.1-2.7,1.1-3.4,2.4l-0.3-2.1h-2.2V96h2.6v-6.1C153.8,88.8,155.2,87.9,156.8,87.8z"
	/>
<path class="st2" d="M167.7,90.7c0-3.5-2.1-5.5-5-5.5c-2.9,0-5,2.1-5,5.5s2.1,5.5,5,5.5C165.5,96.2,167.7,94.1,167.7,90.7z
	 M165.1,90.7c0,2-0.8,3.4-2.5,3.4c-1.5,0-2.4-1.4-2.4-3.4c0-2,0.8-3.4,2.4-3.4C164.2,87.3,165.1,88.7,165.1,90.7z"/>
<path class="st2" d="M169.8,85.4V93c0,2,1,3.2,3,3.2c1.4,0,2.6-0.8,3.5-1.7l0.2,1.5h2.2V85.4h-2.6v7.2c-0.8,0.8-1.6,1.3-2.4,1.3
	c-1,0-1.4-0.6-1.4-1.5v-7H169.8z"/>
<path class="st2" d="M188.6,90.5c0,2.3-1,3.5-2.4,3.5c-0.9,0-1.4-0.2-2-0.5V89c0.7-0.9,1.5-1.5,2.4-1.5
	C187.7,87.5,188.6,88.5,188.6,90.5z M191.3,90.4c0-3.6-1.8-5.2-4-5.2c-1.5,0-2.5,0.8-3.3,1.7l-0.2-1.5h-2.2v14.7l2.6-0.4v-4
	c0.6,0.2,1.5,0.4,2.5,0.4C189.1,96.1,191.3,94.4,191.3,90.4z"/>
<path class="st0" d="M72,18h162c4.4,0,8,3.6,8,8v24c0,4.4-3.6,8-8,8H72c-4.4,0-8-3.6-8-8V26C64,21.6,67.6,18,72,18z"/>
<path class="st1" d="M77.9,47c-0.3,0-0.5-0.3-0.5-0.6L78,43h-3.4c-0.3,0-0.5-0.3-0.5-0.6l0.2-1c0-0.2,0.2-0.4,0.5-0.4h3.6l1.1-6H76
	c-0.3,0-0.5-0.3-0.5-0.6l0.2-1c0-0.2,0.2-0.4,0.5-0.4h3.6l0.6-3.6c0-0.2,0.2-0.4,0.5-0.4h1c0.3,0,0.5,0.3,0.5,0.6L81.8,33h6l0.6-3.6
	c0-0.2,0.2-0.4,0.5-0.4h1c0.3,0,0.5,0.3,0.5,0.6L89.8,33h3.4c0.3,0,0.5,0.3,0.5,0.6l-0.2,1c0,0.2-0.2,0.4-0.5,0.4h-3.6l-1.1,6h3.4
	c0.3,0,0.5,0.3,0.5,0.6l-0.2,1c0,0.2-0.2,0.4-0.5,0.4H88l-0.6,3.6c0,0.2-0.2,0.4-0.5,0.4h-1c-0.3,0-0.5-0.3-0.5-0.6L86,43h-6
	l-0.6,3.6c0,0.2-0.2,0.4-0.5,0.4H77.9z M81.4,35l-1.1,6h6l1.1-6H81.4z"/>
<path class="st37" d="M114.1,39c0,2.4-1.1,3.6-2.6,3.6c-1,0-1.6-0.2-2.3-0.5v-4.6c0.8-1,1.6-1.7,2.7-1.7
	C113.2,35.8,114.1,37,114.1,39z M115.9,39c0-3.2-1.7-4.7-3.8-4.7c-1.4,0-2.4,0.7-3.1,1.6l-0.2-1.4h-1.4v13.3l1.8-0.3v-3.8
	c0.6,0.2,1.5,0.4,2.4,0.4C113.9,44.1,115.9,42.4,115.9,39z"/>
<path class="st37" d="M121.8,35.7c1.4,0,2.1,0.9,2.3,2.4h-4.6C119.8,36.5,120.7,35.7,121.8,35.7z M125.9,42.9l-0.3-1.6
	c-1,0.8-2,1.4-3.4,1.4c-1.7,0-2.7-1-2.8-3.3h6.5V39c0-2.6-1.3-4.8-4.1-4.8c-2.4,0-4.2,1.9-4.2,4.9c0,3.5,1.9,5,4.4,5
	C123.6,44.2,124.8,43.7,125.9,42.9z"/>
<path class="st37" d="M132.7,44l-0.2-1.5c-0.2,0-0.5,0.1-0.8,0.1c-1,0-1.3-0.5-1.3-1.3V36h2.3l-0.2-1.5h-2.1V31l-1.7,0.3v3.2h-1.4
	V36h1.4v5.7c0,1.9,1.1,2.5,2.8,2.5C132,44.2,132.4,44.1,132.7,44z"/>
<path class="st37" d="M139.1,39.2v-1.7h-4.9v1.7H139.1z"/>
<path class="st37" d="M148.3,39c0,2.4-1.1,3.6-2.6,3.6c-1,0-1.6-0.2-2.3-0.5v-4.6c0.8-1,1.6-1.7,2.7-1.7
	C147.4,35.8,148.3,37,148.3,39z M150.1,39c0-3.2-1.7-4.7-3.8-4.7c-1.4,0-2.4,0.7-3.1,1.6l-0.2-1.4h-1.4v13.3l1.8-0.3v-3.8
	c0.6,0.2,1.5,0.4,2.4,0.4C148.1,44.1,150.1,42.4,150.1,39z"/>
<path class="st37" d="M160.1,44v-6.9c0-1.7-1-2.8-2.8-2.8c-1.4,0-2.5,0.8-3.2,1.5v-6.2l-1.8,0.3V44h1.8v-6.6
	c0.9-0.9,1.8-1.5,2.8-1.5c1,0,1.5,0.7,1.5,1.6V44H160.1z"/>
<path class="st37" d="M171.2,39.2c0-3.1-1.9-5-4.4-5c-2.5,0-4.4,1.8-4.4,5s1.8,5,4.4,5C169.3,44.2,171.2,42.4,171.2,39.2z
	 M169.4,39.2c0,2-0.9,3.5-2.6,3.5c-1.7,0-2.6-1.5-2.6-3.5c0-2,0.9-3.5,2.6-3.5S169.4,37.3,169.4,39.2z"/>
<path class="st37" d="M178,44l-0.2-1.5c-0.2,0-0.5,0.1-0.8,0.1c-1,0-1.3-0.5-1.3-1.3V36h2.3l-0.2-1.5h-2.1V31l-1.7,0.3v3.2h-1.4V36
	h1.4v5.7c0,1.9,1.1,2.5,2.8,2.5C177.3,44.2,177.7,44.1,178,44z"/>
<path class="st37" d="M188.4,39.2c0-3.1-1.9-5-4.4-5c-2.5,0-4.4,1.8-4.4,5s1.8,5,4.4,5C186.5,44.2,188.4,42.4,188.4,39.2z
	 M186.6,39.2c0,2-0.9,3.5-2.6,3.5c-1.7,0-2.6-1.5-2.6-3.5c0-2,0.9-3.5,2.6-3.5S186.6,37.3,186.6,39.2z"/>
<path class="st37" d="M197.3,41.3c0-1.8-1.1-2.5-3.4-3.1c-1.5-0.4-2-0.7-2-1.4c0-0.7,0.6-1.1,1.6-1.1c1,0,2.1,0.3,2.9,0.8l0.3-1.7
	c-0.9-0.4-2-0.6-3.1-0.6c-2.1,0-3.4,1.1-3.4,2.6c0,1.7,0.9,2.4,3.1,2.9c1.7,0.4,2.3,0.7,2.3,1.6c0,0.8-0.7,1.3-1.9,1.3
	c-1.3,0-2.5-0.5-3.4-1.1l-0.3,1.7c0.8,0.5,2.2,0.9,3.5,0.9C196,44.2,197.3,43.1,197.3,41.3z"/>
<path class="st0" d="M72,122h162c4.4,0,8,3.6,8,8v24c0,4.4-3.6,8-8,8H72c-4.4,0-8-3.6-8-8v-24C64,125.6,67.6,122,72,122z"/>
<path class="st1" d="M77.9,151c-0.3,0-0.5-0.3-0.5-0.6L78,147h-3.4c-0.3,0-0.5-0.3-0.5-0.6l0.2-1c0-0.2,0.2-0.4,0.5-0.4h3.6l1.1-6
	H76c-0.3,0-0.5-0.3-0.5-0.6l0.2-1c0-0.2,0.2-0.4,0.5-0.4h3.6l0.6-3.6c0-0.2,0.2-0.4,0.5-0.4h1c0.3,0,0.5,0.3,0.5,0.6l-0.6,3.4h6
	l0.6-3.6c0-0.2,0.2-0.4,0.5-0.4h1c0.3,0,0.5,0.3,0.5,0.6l-0.6,3.4h3.4c0.3,0,0.5,0.3,0.5,0.6l-0.2,1c0,0.2-0.2,0.4-0.5,0.4h-3.6
	l-1.1,6h3.4c0.3,0,0.5,0.3,0.5,0.6l-0.2,1c0,0.2-0.2,0.4-0.5,0.4H88l-0.6,3.6c0,0.2-0.2,0.4-0.5,0.4h-1c-0.3,0-0.5-0.3-0.5-0.6
	L86,147h-6l-0.6,3.6c0,0.2-0.2,0.4-0.5,0.4H77.9z M81.4,139l-1.1,6h6l1.1-6H81.4z"/>
<path class="st37" d="M112.6,141.6c0,1.1-0.8,2-2,2c-1.2,0-1.9-0.9-1.9-2c0-1.2,0.7-2.1,1.9-2.1
	C111.8,139.6,112.6,140.4,112.6,141.6z M115.5,148.7c0-1.5-1.3-2.1-3.3-2.5l-0.7-0.1c-1.7-0.3-2-0.4-2-0.7c0-0.2,0.2-0.4,0.5-0.6
	c0.2,0,0.5,0.1,0.7,0.1c1.9,0,3.7-1.2,3.7-3.3c0-0.5-0.1-1-0.4-1.5l1.8-0.2l-0.3-1.6l-2.4,0.7c-0.7-0.5-1.5-0.8-2.5-0.8
	c-1.9,0-3.7,1.3-3.7,3.3c0,1.3,0.7,2.3,1.8,2.8c-0.6,0.4-1,0.8-1,1.3c0,0.4,0.2,0.7,0.6,1c-1.3,0.7-2,1.5-2,2.5c0,1.7,2,2.5,4.5,2.5
	C113.3,151.6,115.5,150.7,115.5,148.7z M110.9,150.4c-1.9,0-2.8-0.6-2.8-1.3c0-0.7,0.5-1.2,1.6-1.8c0.4,0.1,0.7,0.1,1.2,0.2l1.1,0.2
	c1.4,0.2,1.8,0.6,1.8,1.2C113.8,149.7,112.7,150.4,110.9,150.4z"/>
<path class="st37" d="M122.8,145.4c-0.8,0.8-1.8,1.3-2.8,1.3c-0.9,0-1.4-0.5-1.4-1.3c0-1,0.7-1.9,4.3-2.3V145.4z M124.6,148v-6.7
	c0-2.1-1.1-3.1-3.4-3.1c-1.5,0-2.6,0.3-3.7,0.8l0.2,1.5c1-0.5,2.1-0.8,3.3-0.8c1.1,0,1.8,0.4,1.8,1.6v0.4c-4,0.4-6,1.4-6,3.7
	c0,1.6,1.1,2.7,2.8,2.7c1.6,0,2.6-0.7,3.4-1.5l0.2,1.3H124.6z"/>
<path class="st37" d="M140.9,148v-6.9c0-1.7-0.9-2.8-2.7-2.8c-1.3,0-2.5,0.8-3.4,1.6c-0.4-1-1.1-1.6-2.5-1.6c-1.3,0-2.4,0.8-3.3,1.6
	l-0.2-1.4h-1.4v9.5h1.8v-6.6c0.9-0.9,1.8-1.5,2.7-1.5c1,0,1.4,0.7,1.4,1.6v6.5h1.8v-6.6c0.9-0.9,1.8-1.5,2.7-1.5
	c1,0,1.4,0.7,1.4,1.6v6.5H140.9z"/>
<path class="st37" d="M147.3,139.7c1.4,0,2.1,0.9,2.3,2.4H145C145.3,140.5,146.2,139.7,147.3,139.7z M151.4,146.9l-0.3-1.6
	c-1,0.8-2,1.4-3.4,1.4c-1.7,0-2.7-1-2.8-3.3h6.5V143c0-2.6-1.3-4.8-4.1-4.8c-2.4,0-4.2,1.9-4.2,4.9c0,3.5,1.9,5,4.4,5
	C149.1,148.2,150.4,147.7,151.4,146.9z"/>
<path class="st37" d="M160.3,145.3c0-1.8-1.1-2.5-3.4-3.1c-1.5-0.4-2-0.7-2-1.4c0-0.7,0.6-1.1,1.6-1.1c1,0,2.1,0.3,2.9,0.8l0.3-1.7
	c-0.9-0.4-2-0.6-3.1-0.6c-2.1,0-3.4,1.1-3.4,2.6c0,1.7,0.9,2.4,3.1,2.9c1.7,0.4,2.3,0.7,2.3,1.6c0,0.8-0.7,1.3-1.9,1.3
	c-1.3,0-2.5-0.5-3.4-1.1l-0.3,1.7c0.8,0.5,2.2,0.9,3.5,0.9C159,148.2,160.3,147.1,160.3,145.3z"/>
<path class="st0" d="M72,170h162c4.4,0,8,3.6,8,8v24c0,4.4-3.6,8-8,8H72c-4.4,0-8-3.6-8-8v-24C64,173.6,67.6,170,72,170z"/>
<path class="st1" d="M77.9,199c-0.3,0-0.5-0.3-0.5-0.6L78,195h-3.4c-0.3,0-0.5-0.3-0.5-0.6l0.2-1c0-0.2,0.2-0.4,0.5-0.4h3.6l1.1-6
	H76c-0.3,0-0.5-0.3-0.5-0.6l0.2-1c0-0.2,0.2-0.4,0.5-0.4h3.6l0.6-3.6c0-0.2,0.2-0.4,0.5-0.4h1c0.3,0,0.5,0.3,0.5,0.6l-0.6,3.4h6
	l0.6-3.6c0-0.2,0.2-0.4,0.5-0.4h1c0.3,0,0.5,0.3,0.5,0.6l-0.6,3.4h3.4c0.3,0,0.5,0.3,0.5,0.6l-0.2,1c0,0.2-0.2,0.4-0.5,0.4h-3.6
	l-1.1,6h3.4c0.3,0,0.5,0.3,0.5,0.6l-0.2,1c0,0.2-0.2,0.4-0.5,0.4H88l-0.6,3.6c0,0.2-0.2,0.4-0.5,0.4h-1c-0.3,0-0.5-0.3-0.5-0.6
	L86,195h-6l-0.6,3.6c0,0.2-0.2,0.4-0.5,0.4H77.9z M81.4,187l-1.1,6h6l1.1-6H81.4z"/>
<path class="st37" d="M114.6,195.2l-0.3-1.6c-0.9,0.8-1.9,1.1-2.8,1.1c-1.6,0-2.8-1.1-2.8-3.4c0-2.2,1.1-3.4,2.7-3.4
	c1.1,0,2,0.4,2.8,1.1l0.3-1.7c-0.6-0.5-1.7-0.9-3-0.9c-2.6,0-4.6,1.7-4.6,5c0,3.2,1.9,5,4.4,5C112.7,196.2,113.7,195.9,114.6,195.2z
	"/>
<path class="st37" d="M124.8,191.2c0-3.1-1.9-5-4.4-5c-2.5,0-4.4,1.8-4.4,5s1.8,5,4.4,5C123,196.2,124.8,194.4,124.8,191.2z
	 M123,191.2c0,2-0.9,3.5-2.6,3.5c-1.7,0-2.6-1.5-2.6-3.5c0-2,0.9-3.5,2.6-3.5S123,189.3,123,191.2z"/>
<path class="st37" d="M135.4,191.2c0-3.1-1.9-5-4.4-5c-2.5,0-4.4,1.8-4.4,5s1.8,5,4.4,5C133.5,196.2,135.4,194.4,135.4,191.2z
	 M133.6,191.2c0,2-0.9,3.5-2.6,3.5c-1.7,0-2.6-1.5-2.6-3.5c0-2,0.9-3.5,2.6-3.5S133.6,189.3,133.6,191.2z"/>
<path class="st37" d="M143.7,196.1l1.9-0.3l-4.4-5.2l4-4.2h-2.1l-3.7,4v-8.9l-1.8,0.3V196h1.8v-5L143.7,196.1z"/>
<path class="st37" d="M149.4,183.4c0-0.6-0.5-1.1-1.1-1.1s-1.1,0.5-1.1,1.1s0.5,1.1,1.1,1.1S149.4,184,149.4,183.4z M149.2,196v-9.5
	h-1.8v9.5H149.2z"/>
<path class="st37" d="M159.9,196v-6.9c0-1.7-1-2.8-2.8-2.8c-1.4,0-2.5,0.8-3.4,1.6l-0.2-1.4h-1.4v9.5h1.8v-6.6
	c0.9-0.9,1.8-1.5,2.8-1.5c1,0,1.5,0.7,1.5,1.6v6.5H159.9z"/>
<path class="st37" d="M167.9,189.6c0,1.1-0.8,2-2,2c-1.2,0-1.9-0.9-1.9-2c0-1.2,0.7-2.1,1.9-2.1
	C167.1,187.6,167.9,188.4,167.9,189.6z M170.8,196.7c0-1.5-1.3-2.1-3.3-2.5l-0.7-0.1c-1.7-0.3-2-0.4-2-0.7c0-0.2,0.2-0.4,0.5-0.6
	c0.2,0,0.5,0.1,0.7,0.1c1.9,0,3.7-1.2,3.7-3.3c0-0.5-0.1-1-0.4-1.5l1.8-0.2l-0.3-1.6l-2.4,0.7c-0.7-0.5-1.5-0.8-2.5-0.8
	c-1.9,0-3.7,1.3-3.7,3.3c0,1.3,0.7,2.3,1.8,2.8c-0.6,0.4-1,0.8-1,1.3c0,0.4,0.2,0.7,0.6,1c-1.3,0.7-2,1.5-2,2.5c0,1.7,2,2.5,4.5,2.5
	S170.8,198.7,170.8,196.7z M166.2,198.4c-1.9,0-2.8-0.6-2.8-1.3c0-0.7,0.5-1.2,1.6-1.8c0.4,0.1,0.7,0.1,1.2,0.2l1.1,0.2
	c1.4,0.2,1.8,0.6,1.8,1.2C169.1,197.7,168,198.4,166.2,198.4z"/>
<path class="st38" d="M30.5,27.4l6.4-2.8c0.1,0,0.1-0.2,0-0.2l-6.4-2.9h-0.1l-2.8-6.4c0-0.1-0.2-0.1-0.2,0l-2.9,6.4l-6.4,2.9
	c-0.1,0-0.1,0.2,0,0.2l6.4,2.8l2.9,6.4h0.2l2.8-6.4H30.5z"/>
<path class="st39" d="M561.5,328.3h-62.3l-9.6,46.4c3.4,1.8,7,3.3,10.7,4.2c-3.3,9.4,4.5,6.1,8.9,4.2l3.2-1.4
	c6.3,1.2,13,2.1,19.3,2.9c-5.8,16.4,3,11.1,7.8,8.4c4.8-2.7,5.6-3.5,6.5-6.9l12.2,0.9C558.2,387,561.3,364.4,561.5,328.3z"/>
<path class="st40" d="M514.6,197.3c-2.4,3.6-3.5,10.4-4.4,17.4c-0.9,7-2.5,18.3-0.7,26.7L514.6,197.3z"/>
<path class="st3" d="M537.8,365.9c0,4.2,2.4,7.6-2,9.5c-6.3,2.8-9.2,5.7-13.9,7.1c-4.7,1.4-12,3.5-8.3-3.8c3.7-7.3,6.5-14,6.5-14
	L537.8,365.9z"/>
<path class="st41" d="M503.8,354.3c-0.5,4.2,1.5,7.8-3.1,9.2c-6.6,2-9.9,4.6-14.7,5.3c-4.8,0.7-12.4,2.1-7.7-4.7
	c4.7-6.8,8.1-13.2,8.1-13.2L503.8,354.3z"/>
<path class="st6" d="M484.5,314.1c0.8-3,2.4-5.7,4.6-7.9c2.2-2.2,4.9-3.7,7.9-4.4l6.3-1.5c4.9-34.1-0.6-41.1,25.5-52l21.8-3.6
	c0,0,22.2-2.5,31.8,7.5l-6.6,38.9c0,0,8,24.3,7.5,37.2h-29.1l-7.2,41.6c-47.5-0.9-72-19.6-72-19.6L484.5,314.1z"/>
<path class="st42" d="M532.9,319c1.3-6.8,1.2-9.4,9.7-10.2l13.3-1.2l-1-2.6l-28.6-1.2L547,284l30,5.1c0.9,3.7,1.5,7.6,1.6,11.4
	c3.5,2.2,2.6,5,2,7.8c1.5,6.9,2.9,14.5,2.7,20h-29.1c-0.1,9-2.8,14.7-3.3,20.5c-0.5,5.8-2.7,21.2-2.7,21.2c-8-0.2-16-0.9-23.9-2
	L532.9,319z"/>
<path class="st43" d="M575.3,300.4l-28.3,1.9c0,0,7.5-2.1,14.3-3.3c4.2-0.8,8.4-1.4,12.7-1.7c1,0,1.5,0.9,1.9,2.2
	c0.1,0.1,0.1,0.2,0.1,0.3c0,0.1,0,0.2-0.1,0.3c-0.1,0.1-0.2,0.2-0.3,0.2C575.5,300.4,575.4,300.5,575.3,300.4z"/>
<path class="st44" d="M537.8,305.5c-10.7,3-12.2,3.6-17.5,12.2s-5.6,8.1-10.1,3.7c-4.5-4.4-10.5-11-12.7-13.5s0.2-3,14.2-4.9
	S544.8,303.5,537.8,305.5z"/>
<path class="st7" d="M569.3,276.2c-2-3.7-3.5-7.8-4.2-12c-0.9-3.1-2.9,1-1.3,6.3c1.2,3.5,3.3,6.7,6.1,9.1L569.3,276.2z"/>
<path class="st7" d="M576.2,244.4c-27.4,33.1-52.9,56.6-54,10.1L576.2,244.4z"/>
<path class="st8" d="M561.3,249.8c-25.4,16.2-31.8,21.9-31.9,6.4L561.3,249.8z"/>
<path class="st2" d="M505.8,278.8c1.5-14.4,3.1-20.7,16.4-27.5c-2.7,9.2-1.9,27.5-1.9,27.5H505.8z"/>
<path class="st45" d="M517.7,266.9c0.6,3.7,1.5,7.3,2.7,10.9l-2.4,0.3c-1.2-3.6-2.1-7.2-2.8-10.9C514.7,263,517,262.3,517.7,266.9z"
	/>
<path class="st9" d="M543.3,205.7v-7.8c0-2.5,0.8-5,2.3-7s3.6-3.6,6-4.4c2.7-0.8,5.6-0.7,8.2,0.4c2.6,1.1,4.7,3,6,5.5
	c4.7,9,13.8,22.9,17.5,35.8c5.8,20.5-17.9,27.8-44.7,29.2c-26.8,1.4-30.7-9.9-29.2-27.1c1-10.9,2.5-22,3.6-28.8
	c0.3-1.9,1.1-3.8,2.5-5.2c1.3-1.5,3-2.5,4.9-3c2.1-0.5,4.4-0.3,6.4,0.6c2,0.9,3.7,2.4,4.7,4.4l4.1,7.5H543.3z"/>
<path class="st10" d="M514,237.8l1.7-0.9l10.1,2.1h10l16.7-5.6c0,0,7.5-15.7,8.8,0.5c1,11.2-3,18.2-5.5,21.5
	c-5.7,1-11.4,1.6-17.2,1.9c-4.3,0.3-8.7,0.1-13-0.5C522.2,253.2,516.7,246.2,514,237.8z"/>
<linearGradient id="SVGID_00000165230809987385758080000012114646847383605412_" gradientUnits="userSpaceOnUse" x1="539.9764" y1="135.6232" x2="559.8764" y2="140.3632" gradientTransform="matrix(1 0 0 -1 0 360)">
	<stop  offset="0" style="stop-color:#61C7C7"/>
	<stop  offset="1" style="stop-color:#54B9C7"/>
</linearGradient>
<path style="opacity:0.74;fill:url(#SVGID_00000165230809987385758080000012114646847383605412_);enable-background:new    ;" d="
	M551.6,186.5c4.6-0.5,7.8,7.6,10.6,16.8c2.8,9.2,0.7,22.8-0.7,29.2c-3.6,16.5-9.5,22.7-14.5,24.2c3-0.3,6-0.7,8.9-1.2
	c18.6-3.4,31.9-11.4,27.4-27.3c-3.7-12.9-12.8-26.8-17.5-35.8l-0.7-1.2l-1-1.3c-0.1,0-0.1,0-0.1-0.1l-0.9-0.8
	c-0.7-0.7-1.5-1.2-2.4-1.7l-1.9-0.7C556.5,185.9,554,185.8,551.6,186.5z"/>
<path class="st10" d="M547,256.7l1.9-0.2l1.9-0.2l2.7-0.4l0.9-0.2l1.4-0.2c2.5-3.3,6.5-10.3,5.5-21.5v-0.6
	C557.6,249.2,551.9,255.3,547,256.7z"/>
<linearGradient id="SVGID_00000067235676321511379790000006403863832149339535_" gradientUnits="userSpaceOnUse" x1="15160.7998" y1="114.908" x2="14951.9004" y2="114.908" gradientTransform="matrix(1 0 0 -1 0 360)">
	<stop  offset="0" style="stop-color:#61C7C7"/>
	<stop  offset="1" style="stop-color:#54B9C7"/>
</linearGradient>
<path style="opacity:0.5;fill:url(#SVGID_00000067235676321511379790000006403863832149339535_);enable-background:new    ;" d="
	M547,256.7l1.9-0.2l1.9-0.2l2.7-0.4l0.9-0.2l1.4-0.2c2.5-3.3,6.5-10.3,5.5-21.5v-0.6C557.6,249.2,551.9,255.3,547,256.7z"/>
<path class="st12" d="M516.5,235.5l0.3,1.9c11.2,4.6,13.1,6.1,38.3-4v-1.8l-1,0.4C532.4,239.3,528.3,240.2,516.5,235.5z"/>
<path class="st13" d="M565.4,232.9c0.6-4-1.9-7.7-5.5-8.2c-3.6-0.5-7,2.4-7.6,6.4c-0.6,4,1.9,7.7,5.5,8.2
	C561.4,239.8,564.8,237,565.4,232.9z"/>
<path class="st13" d="M516.7,242c1.9-0.7,2.5-3.8,1.3-7.1c-1.1-3.3-3.6-5.4-5.5-4.8c-1.9,0.7-2.5,3.8-1.3,7.1
	C512.4,240.5,514.8,242.6,516.7,242z"/>
<path class="st14" d="M536.8,227.2c0.4-0.7-0.5-1.2-1.3-1.3c-0.3-0.1-0.5-0.1-0.8,0c-0.3,0.1-0.5,0.3-0.6,0.5l-2.2,3.6
	c-0.5,1.1,0.5,1,1.6,0.2C534.6,229.4,536.1,228.5,536.8,227.2z"/>
<path class="st14" d="M525.7,230.2l-1.1-1.6c-0.2-0.3-0.2-0.7-0.2-1c0-0.4,0.2-0.7,0.4-1l0.3-0.4c0.1-0.2,0.4-0.1,0.5,0.1
	c0.6,1.2,1.1,2.4,1.6,3.7C527.5,231.4,526.6,231.5,525.7,230.2z"/>
<path class="st48" d="M514.6,273.4c-2.6-7.6-8.9-10.6-16-10.4l7.2,10.4H514.6z"/>
<path class="st49" d="M541.6,266.8c-19.2-6.5-27.6,5.4-27.6,5.4c-2.2-2.9-5.2-5.2-8.6-6.4s-7.2-1.5-10.8-0.8l-3.2,5.8l29,11.4
	L541.6,266.8z"/>
<path class="st50" d="M514.3,276.3l-0.3-2.9l-3.5,2.1L514.3,276.3z"/>
<path class="st51" d="M543.6,266l13.2,34.2l-32,8.9h-2.1l-22.3-10.4L487.8,268l1.2-1.2l23.7,8.6L543.6,266z"/>
<path class="st52" d="M487.8,268l23.9,8.8l11,32.3l-22-9.2L487.8,268z"/>
<path class="st53" d="M544.2,267.4l-30.2,9.4l10.8,32.3l32-8.9L544.2,267.4z"/>
<path class="st54" d="M486.8,243.9l-3.8-1.7c-0.1,0-0.1-0.1,0-0.2l3.8-1.7h0.1l1.7-3.8c0-0.1,0.1-0.1,0.1,0l1.7,3.8h0.1l3.8,1.7v0.2
	l-3.8,1.7h-0.1l-1.7,3.8h-0.1l-1.7-3.8H486.8z"/>
<path class="st35" d="M623.7,315.1l-3.8-1.7c-0.1,0-0.1-0.1,0-0.1l3.8-1.7l1.7-3.8h0.2l1.7,3.8l3.8,1.7c0.1,0,0.1,0.1,0,0.1
	l-3.8,1.7l-1.7,3.8h-0.2L623.7,315.1z"/>
<path class="st15" d="M533.9,207.7l9.4-2h-7.7l-4.1-7.5c-1-1.9-2.7-3.5-4.7-4.4c-2-0.9-4.3-1.1-6.4-0.6l-1.8,0.7
	c4.5-1.5,6.7,3.5,8.3,9.7C527.9,207.1,527.9,208.9,533.9,207.7z"/>
<path class="st16" d="M519.7,212.8c2-0.3,3.3-2.4,3-4.8c-0.3-2.4-2.2-4.1-4.1-3.9c-2,0.3-3.3,2.4-3,4.8
	C515.9,211.3,517.8,213,519.7,212.8z"/>
<path class="st16" d="M553.5,206.4c1.9-0.4,3.1-2.7,2.5-5.1c-0.5-2.4-2.6-3.9-4.5-3.5c-1.9,0.4-3.1,2.7-2.5,5.1
	C549.6,205.3,551.6,206.8,553.5,206.4z"/>
<path class="st15" d="M550.6,279.6c-2.8,0.5-5.7,1.3-6.8,1.6c-1.1,0.3-1.5,0.5-1.1,1.8c0.4,1.3,0.4,1.2,2.8,1l5.7-0.3L550.6,279.6z"
	/>
<path class="st2" d="M588.7,278.4c2.1-6.6-0.4-7.3-1.3-10.6c-0.3-1-0.5-5.6-1.1-8.3c-0.7-3.5-2.6-6.6-5.4-8.7
	c-6-4.4-14.5,6.8-12.9,25.3c-3.7,0.6-8.1,1.5-11.9,2.3c1.8,2.6,3.3,5.4,4.5,8.4c0.6,1.8,1,3.7,1.2,5.6c4.6-0.4,9.9-0.7,14-1.3
	C591.5,289.1,587.7,281.7,588.7,278.4z"/>
<path class="st55" d="M558.2,277.9l3.8-0.7c1.9-0.4,2.8-0.2,1.8,0.4s-1.2,1.1,1.6,1.5c2.8,0.4,2.6,1.9,1.8,2.6
	c-0.8,0.7-1.5,1.9,0.7,2.5c2.2,0.6,2.6,1.7,1.2,2.5c-1.4,0.8-1.9,1.8,0.2,2.5c2.1,0.7,1.9,1.9,0,2.6l-4.9,0.4L558.2,277.9z"/>
<path class="st15" d="M561.8,292.4c-0.4-3-1-7.1-5.7-14l-6.9,1.5l0.9,3.4l-4.5,3.1c-1.5,1.1-1.6,1.4-1.2,2.1
	c0.2,0.6,0.6,1.1,1.1,1.4c0.3,0.2,1.1-0.3,2.2-0.7l3.5-1.1c0.5-0.1,0.7,0.2,0.3,0.5s-3.3,1.7-3.8,2.1s-0.7,0.7-0.5,1.1
	c0.2,0.4,0.4,1.5,1.5,1.4c1.1-0.1,4.5-1.2,4.5-1.2C555.6,293,558.7,292.6,561.8,292.4z"/>
<path class="st45" d="M568,276.1c2.8,0.1,7.2,2.2,10.6,4.5c3.4,2.3,3.9,0.7,2.8-1c-1.1-1.7-5.1-2.6-9-3.5c-3.9-0.9-4.4-0.7-4.4-0.7
	V276.1z"/>
<path class="st45" d="M571.4,275.9c-1.3-0.2-2-1.5,0.3-2.2l5.6-1.6c0.8-0.1,1.3-2.2-1.1-1.6c-2.4,0.6-8.3,3.6-8.3,3.6
	s-1.7,1.5,0.1,2L571.4,275.9z"/>
<path class="st8" d="M549.2,283.9l1.9-1.3l-0.5-0.9l-2.1,2.2H549.2z"/>
<path class="st8" d="M551.5,288.6l1.1-0.6l-0.6-0.6l-0.8,0.7L551.5,288.6z"/>
<path class="st56" d="M560.1,277.6c2,1.8,3.6,4,4.7,6.5c1.1,2.5,1.7,5.2,1.7,7.9l-4.7,0.4c-0.2-1.9-0.6-3.8-1.2-5.6
	c-1.2-3-2.7-5.8-4.5-8.4L560.1,277.6z"/>
<path class="st57" d="M585.9,272.8c-0.2-0.3-0.4-0.5-0.7-0.7c-0.3-0.1-0.7-0.1-1,0c-1.7,0.4-3.4,1-5,1.6c-1.1,0.6,2.8,1.7,5.7,2.3
	C587.8,276.6,587.4,275.5,585.9,272.8z"/>
<path class="st58" d="M553.3,288.2c0.9-0.9,0.9-1.8-0.3-2.4c-1.2-0.6-1.2-1.6-0.7-2.3c0.5-0.7,1.4-1.8-0.4-2.4
	c-1.8-0.6-0.9-1.6,0.5-1.9h0.1l3.6-0.8c3.3,4.9,4.6,8.4,5.2,11.1c0,0-6,0.7-7.3,0.4C552.7,289.6,552.4,289,553.3,288.2z"/>
<path class="st59" d="M492.5,279.6l4.2,2c0.3,0.2,0.5,0.5,0.7,0.8c0.4,1,0.7,1.8-0.1,1.8l-4.1-0.3C490.5,282,491,281.2,492.5,279.6z
	"/>
<path class="st59" d="M493.9,283.2l4.1,2c0.4,0.2,0.6,0.4,0.8,0.8c0.4,1,0.7,1.8-0.1,1.8l-4.1-0.3
	C491.8,285.6,492.4,284.8,493.9,283.2z"/>
<path class="st59" d="M495.6,287.6l2.2,1c0.2,0.1,0.3,0.6,0.3,1.3c0,0.7-0.3,0.6-1,0.5c-0.8,0-1.5-0.1-2.3-0.3
	c-0.6-0.1-0.6-0.2-0.6-0.8v-2.1L495.6,287.6z"/>
<path class="st60" d="M554.2,328.3c1.4-8.3,1.6-9.9,1.9-11c0.3-1.1,2.4,8.1,2.6,11H554.2z"/>
<path class="st61" d="M538.4,322.8c1.5,11.9,3.5,24.7,4.5,31.4c1,6.7,2.1,1.7,3.3-3.5c1.2-5.2,0.7-7.1-2-16.6
	S537.5,316.2,538.4,322.8z"/>
<path class="st62" d="M522.7,317.9c-7,10.3-18.7,27.1-21.1,31.5c-2.4,4.4,0.4,1.9,4.8-1.4c4.4-3.3,5.2-4.2,8.1-9.1
	C517.4,334,526.6,312.2,522.7,317.9z"/>
<path class="st63" d="M491.6,309.9c2.4,9.2,6.4,20.8,7.5,24.3s4.9,2.3,8,0.8s1.7-0.8-0.6,2.1c-1.8,2.3-4.2,4-6.9,4.9
	c-1.5,0.6-4.2,2.4-5.8-7.7C492.2,324.2,490.4,305.2,491.6,309.9z"/>
<path class="st64" d="M482.6,348.6c0.8,5.8,6,4.2,8.6,2.5c2.6-1.7,6.2-1.3,7.4,4.6c0.5,2.5,3,4.8,6.8,1.7c3.8-3.1,7-2.1,7.7,2
	c0.7,4.1,4,5.1,7.5,1.2s7.5-2,8.5,2.9s5.5,3.8,7.8-0.2c2.3-4,6.4-2.2,7.1,2.2s4.2,1.7,4.8,0.2c-0.4,2.6-0.6,4.3-0.6,4.3
	c-4.3-0.1-8.7-0.3-12.9-0.7c-39.8-3.4-60.3-19-60.3-19l0.8-3C476.9,342.9,481.9,342.8,482.6,348.6z"/>
<path class="st65" d="M525.9,358.8c1.5,0.6,2.7,2.3,3.2,4.7c0.9,4,5.5,3.8,7.8-0.2c2.3-4,6.4-2.2,7.1,2.2s4.2,1.7,4.8,0.2
	c-0.3,1.8-0.4,3.2-0.5,3.8c-0.1,0.2-0.1,0.3-0.1,0.5c-8-0.2-16-0.9-23.9-2C524.3,368,524.9,364.2,525.9,358.8z"/>
<path class="st43" d="M576.2,308.8c-0.6,1.5-1.4,0.8-3.1,0.4c-4.8-1.4-9.9-3.4-12-3.6c-2.1-0.2-3-1.1,1.5-1s10.9,0.4,12.9,0.6
	C577.5,305.4,577.2,306.3,576.2,308.8z"/>
<path class="st17" d="M549.5,187.5c-3.5,2.9-3.7,8.9-3.8,11.3c-0.1,2.4,0.1,6.7,0,7.8c-0.1,1.1-0.2,1.5-3.6,3.6
	c-3.4,2.1-2.1,0.3-0.7-1.7c1.4-2,1.9-2.8,1.9-2.8v-7.8c0-2.1,0.6-4.2,1.7-6.1C546,190,547.6,188.5,549.5,187.5z"/>
<path class="st18" d="M517.6,205.3c-1.3,0.7-1.1,3.9,0,2.5C518.7,206.4,519.5,204.4,517.6,205.3z"/>
<path class="st18" d="M550.5,199.3c-1.3,0.6-1.2,3.9,0,2.4S552.4,198.3,550.5,199.3z"/>
<g>
	<path class="st66" d="M563.4,201.4c-1.7,0.7-3.2,1.7-4.4,2.9c-1.3,1.3-2.3,2.7-3,4.4c-1.3,2.9,0.7,7.6,5.3,2.4
		C565.9,205.9,568,199.3,563.4,201.4z"/>
</g>
<g>
	<path class="st66" d="M510.9,216.5c0.4-3.4,0.8-6.6,1.3-9.5c1.2,1.7,2.1,3.7,2.4,5.8C515,215.2,513.2,218.2,510.9,216.5z"/>
</g>
<g>
	<path class="st66" d="M568.3,216c-5.3,3.3-7,3.5-9.6,3.2c-2.6-0.3-2-2.1,2-4.9c4-2.8,6-3.3,8.6-2.3
		C571.9,213,570.1,214.8,568.3,216z"/>
</g>
<g>
	<path class="st66" d="M510.1,223.2c0.1-1.2,0.3-2.3,0.4-3.5C512.4,222,512.1,223.3,510.1,223.2z"/>
</g>
<path class="st19" d="M559.5,231.7c0.9-2.4,0.5-4.7-0.9-5.3c-1.4-0.5-3.2,1-4.1,3.4c-0.9,2.4-0.5,4.7,0.9,5.3
	C556.8,235.6,558.7,234.1,559.5,231.7z"/>
<path class="st19" d="M513.2,236.8c0.8-0.1,1.2-1.5,1-3.1c-0.2-1.6-1-2.8-1.8-2.7c-0.8,0.1-1.2,1.5-1,3.1
	C511.7,235.7,512.5,236.9,513.2,236.8z"/>
<path class="st17" d="M516.2,197.1c-1.9,2-2,5.2,0,2.7S518.5,194.7,516.2,197.1z"/>
<path class="st9" d="M538.4,246c-5.4,2.2-9.4,1.4-11.9,0.4s-2.1,1.7,2.3,3.9c4.4,2.2,5.5,1.4,7.7-0.5
	C538.7,247.9,541.5,244.7,538.4,246z"/>
<path class="st67" d="M214.1,272.2l-14.4,50.3l-38.7,6.1l-0.9-1.1l0.4-2.2l-1.3-1.6H157l-1-1.2l9.4-56.4h43.7c1.4,0.3,2.7,1,3.6,2.2
	C213.6,269.4,214.1,270.8,214.1,272.2z"/>
<path class="st68" d="M214.1,272.2h-43.7l-9.4,56.4h43.7L214.1,272.2z"/>
<path class="st69" d="M228.5,262.1l-2.2-1l2.2-0.9l0.9-2.2h0.1l1,2.2l2.1,0.9c0.1,0,0.1,0.1,0,0.1l-2.1,1l-1,2.1h-0.1l-0.9-2.1
	V262.1z"/>
<path class="st70" d="M261.5,313.1v12.5h3.8v3h-94.1c-1.3-1.2-2.3-2.6-3-4.2c-0.7-1.6-1-3.3-1-5s0.4-3.4,1-5c0.7-1.6,1.7-3,3-4.2
	h94.1v3H261.5z"/>
<path class="st15" d="M217.2,310.1h-46c-1.2,1.2-2.2,2.6-2.9,4.2c-0.7,1.6-1,3.3-1,5s0.4,3.4,1,5c0.7,1.6,1.7,3,2.9,4.2h46
	c-1.2-1.2-2.2-2.6-2.9-4.2c-0.7-1.6-1-3.3-1-5s0.4-3.4,1-5C215,312.7,216,311.3,217.2,310.1z"/>
<path class="st71" d="M179,310.1h-1.8c-1.2,1.2-2.2,2.6-2.9,4.2c-0.7,1.6-1,3.3-1,5s0.4,3.4,1,5c0.7,1.6,1.7,3,2.9,4.2h1.8
	c-1.2-1.2-2.2-2.6-2.9-4.2c-0.7-1.6-1-3.3-1-5s0.4-3.4,1-5C176.8,312.7,177.8,311.3,179,310.1z"/>
<path class="st71" d="M210.6,310.1h-1.7c-1.2,1.2-2.2,2.6-2.9,4.2c-0.7,1.6-1,3.3-1,5s0.4,3.4,1,5c0.7,1.6,1.7,3,2.9,4.2h1.7
	c-1.2-1.2-2.2-2.6-2.9-4.2c-0.7-1.6-1-3.3-1-5s0.3-3.4,1-5C208.4,312.7,209.4,311.3,210.6,310.1z"/>
<path class="st72" d="M255.5,281.3h-64.3c2.2,4.5,3.3,9.4,3.3,14.4s-1.1,9.9-3.3,14.4h65.4c2.1-4.3,3.2-9,3.3-13.8
	c0.1-4.8-0.9-9.6-2.8-14c-0.1-0.3-0.4-0.5-0.7-0.7C256.2,281.4,255.8,281.3,255.5,281.3z"/>
<path class="st72" d="M186,281.3h69.1v3.9H186c-0.2,0-0.4-0.1-0.6-0.2c-0.2-0.1-0.2-0.4-0.2-0.6v-2.3c0-0.2,0.1-0.4,0.2-0.6
	C185.6,281.4,185.8,281.3,186,281.3z"/>
<path class="st72" d="M186,306.2h69.1v3.9H186c-0.2,0-0.4-0.1-0.6-0.2c-0.2-0.1-0.2-0.4-0.2-0.6v-2.2c0-0.1,0-0.2,0-0.3
	c0-0.1,0.1-0.2,0.2-0.3c0.1-0.1,0.2-0.2,0.3-0.2C185.8,306.2,185.9,306.2,186,306.2z"/>
<path class="st73" d="M186,281.3h38.3v3.9H186c-0.2,0-0.4-0.1-0.6-0.2c-0.2-0.1-0.2-0.4-0.2-0.6v-2.3c0-0.2,0.1-0.4,0.2-0.6
	C185.6,281.4,185.8,281.3,186,281.3z"/>
<path class="st73" d="M186,306.2h38.3v3.9H186c-0.2,0-0.4-0.1-0.6-0.2c-0.2-0.1-0.2-0.4-0.2-0.6v-2.2c0-0.1,0-0.2,0-0.3
	c0-0.1,0.1-0.2,0.2-0.3c0.1-0.1,0.2-0.2,0.3-0.2C185.8,306.2,185.9,306.2,186,306.2z"/>
<path class="st74" d="M253.9,285.1h-30.7v21.1h30.7V285.1z"/>
<path class="st49" d="M227.2,285.1h-38.9v21.1h38.9V285.1z"/>
<path class="st74" d="M229.7,290.5l-41.4-2.7v-2.7h41.4V290.5z"/>
<path class="st3" d="M253.9,285.1v21.1C257.1,300.4,257.1,291,253.9,285.1z"/>
<path class="st74" d="M229.4,292.1h-41.1v0.8h41.1V292.1z"/>
<path class="st74" d="M233.1,298.2h-44.8v0.8h44.8V298.2z"/>
<path class="st74" d="M233.1,300.4h-44.8v0.8h44.8V300.4z"/>
<path class="st75" d="M236,289.2h1.7c0.4,0,0.7,0.1,1,0.4c0.3,0.3,0.4,0.6,0.4,1v8.5l2.1-2l2.1,2v-8.6c0-0.5-0.2-0.9-0.5-1.2
	s-0.8-0.5-1.2-0.5H236V289.2z"/>
<path class="st76" d="M208.3,267.7h-39.8l-9.3,56l1.3,1.6l9.1-54.7h1.3h39.7L208.3,267.7z"/>
<path class="st3" d="M208.3,267.7c0.6,0.2,1.2,0.5,1.6,1.1c0.4,0.5,0.6,1.2,0.7,1.8L208.3,267.7z"/>
<path class="st3" d="M220.1,325.6v-12.5c-1.5,1.7-2.3,4-2.3,6.2S218.6,323.9,220.1,325.6z"/>
<path class="st77" d="M261.5,313.1h-41.4v12.5h41.4V313.1z"/>
<path class="st78" d="M261.4,316.5h-38.5v0.6h38.5V316.5z"/>
<path class="st78" d="M261.4,315.2h-38.5v0.6h38.5V315.2z"/>
<path class="st78" d="M261.4,323.1h-38.5v0.6h38.5V323.1z"/>
<path class="st68" d="M250.1,324.5l-1.1-0.9l-1.2,0.9v-5.1c0-0.3-0.2-0.5-0.4-0.7c-0.2-0.2-0.5-0.3-0.7-0.3h-0.4v-0.2h2.9
	c0.2,0,0.5,0.1,0.6,0.3c0.2,0.2,0.3,0.4,0.3,0.7V324.5z"/>
<defs>
	
		<filter id="Adobe_OpacityMaskFilter_00000084518016066534189590000016074679722117286074_" filterUnits="userSpaceOnUse" x="294.1" y="75" width="44.9" height="51.4">
		<feColorMatrix  type="matrix" values="1 0 0 0 0  0 1 0 0 0  0 0 1 0 0  0 0 0 1 0"/>
	</filter>
</defs>
<mask maskUnits="userSpaceOnUse" x="294.1" y="75" width="44.9" height="51.4" id="mask2_00000175318405680833010960000015590799765251622536_">
	
		<circle style="fill:#C4C4C4;filter:url(#Adobe_OpacityMaskFilter_00000084518016066534189590000016074679722117286074_);" cx="319" cy="95" r="20"/>
</mask>
<g class="st80">
	<circle class="st81" cx="319" cy="95" r="20"/>
	<path class="st82" d="M308.7,101.5c2.3,8.1,11.7,13.7,19.3,8.4c7.5-5.3,0.1-16.2,0.1-16.2s4.1-10.3-6.2-12.7
		C311.7,78.6,309.1,83.1,308.7,101.5z"/>
	<path class="st83" d="M323.9,95.6c-1.1,0-2.1-1.2-2.1-2.8c0-1.5,0.9-2.8,2.1-2.8s2.1,1.2,2.1,2.8C326,94.4,325.1,95.6,323.9,95.6z"
		/>
	<path class="st84" d="M324.8,94.9c-0.3,0-0.5-0.5-0.5-1c0-0.6,0.3-1,0.6-1c0.3,0,0.5,0.5,0.5,1C325.4,94.5,325.1,94.9,324.8,94.9z"
		/>
	<path class="st84" d="M326.3,87.7c-0.1-0.4-0.4-0.8-0.8-1c-0.4-0.3-0.8-0.4-1.2-0.4c-0.4,0-0.9,0.1-1.2,0.4c-0.4,0.3-0.6,0.6-0.8,1
		H326.3z"/>
	<path class="st85" d="M326.1,99.4c-2,0.5-4.2,0.1-6-1.9c-0.2-0.3-0.6-0.4-0.9-0.5c-0.4,0-0.7,0.1-1,0.3c-0.3,0.2-0.5,0.5-0.6,0.9
		c-0.1,0.4,0,0.7,0.2,1c2.8,4.5,7.1,5.2,9.7,2.7c0.2-0.2,0.3-0.4,0.4-0.6c0.1-0.2,0.1-0.5,0-0.7c0-0.2-0.1-0.4-0.2-0.6
		c-0.1-0.2-0.3-0.3-0.4-0.4c-0.2-0.1-0.4-0.2-0.6-0.2C326.5,99.3,326.3,99.4,326.1,99.4z"/>
	<path class="st83" d="M324.5,99.6c0.5,0,1-0.1,1.5-0.2h0.5v1.3c0,0-0.8,0.6-3.8,0.3v-0.7l-5.2-1.8c0-0.2,0.1-0.4,0.2-0.6
		c0.1-0.2,0.2-0.4,0.4-0.5c0,0,0,0,0,0c0,0,0,0,0,0c0.2-0.2,0.5-0.2,0.7-0.2c0.1-0.1,0.2,0,0.2,0h0.5c0.1,0.1,0.1,0.1,0.1,0.1
		c0,0.1,0.1,0,0.1,0.1l0.2,0.2c0.3,0.4,0.7,0.7,1.1,1l0.7,0.5c0.3,0.2,0.7,0.4,1.1,0.5C323.5,99.5,324,99.6,324.5,99.6z"/>
	<path class="st86" d="M318.2,97.3C318.2,97.3,318.2,97.3,318.2,97.3C318.2,97.3,318.2,97.3,318.2,97.3c0.3-0.2,0.5-0.3,0.8-0.3
		c0.1-0.1,0.2,0,0.2,0h0.5c0.1,0.1,0.1,0.1,0.1,0.1c0,0.1,0.1,0,0.1,0.1l0.2,0.2c0.2,0.2,0.4,0.4,0.6,0.6l-1.5,0.9l-1.6-0.5
		c0-0.2,0.1-0.4,0.2-0.6S318,97.5,318.2,97.3z"/>
	<path class="st84" d="M310.9,84.8c1.9-4.2,5.3-5.1,11-3.7c1.2,0.3,2.3,0.7,3.3,1.3c0.3,1.7-2.3,2.2-7.1,0.7
		C319.7,85.9,316.4,91,310.9,84.8z"/>
	<path class="st84" d="M317.6,80.9l0.3-3.5c0-0.3,0-0.6-0.1-0.9c-0.1-0.3-0.3-0.6-0.5-0.8c-0.2-0.2-0.5-0.4-0.8-0.5
		c-0.3-0.1-0.6-0.2-0.9-0.1c-0.4,0-0.7,0.1-1,0.3c-0.3,0.2-0.6,0.4-0.8,0.8s-0.3,0.7-0.3,1c0,0.4,0,0.7,0.2,1l1.6,3.6L317.6,80.9z"
		/>
	<path class="st87" d="M303.8,99.6l1.6,0.6l3.3-2.2v2.7l2.8,2.2c0.6,0.5,1.1,1.1,1.4,1.7c0.3,0.7,0.6,1.4,0.6,2.1l0.1,2.2
		c4,3.3,9.5,4.4,14.4,1c0.8-0.5,1.5-1.2,2.1-1.9l1.6,0.6c0,0-3.3,14.1-8.9,16.6c-5.6,2.5-9.4,0-9.4,0c-5.8-19.8-4.1-23.6-18.6-17.8
		l-0.7-4L303.8,99.6z"/>
	<path class="st82" d="M315.4,93.3l-10.5-9.8l-1,1.2l8.1,15.1L315.4,93.3z"/>
	<path class="st88" d="M311.5,91.1l-4.1-2.9l3.2,5.7l-0.6-2.2L311.5,91.1z"/>
</g>
<defs>
	
		<filter id="Adobe_OpacityMaskFilter_00000181045027142465170450000009326963261309077895_" filterUnits="userSpaceOnUse" x="297.8" y="150.6" width="42.9" height="52.5">
		<feColorMatrix  type="matrix" values="1 0 0 0 0  0 1 0 0 0  0 0 1 0 0  0 0 0 1 0"/>
	</filter>
</defs>
<mask maskUnits="userSpaceOnUse" x="297.8" y="150.6" width="42.9" height="52.5" id="mask3_00000179616621587873012930000005799255061856027837_">
	
		<circle style="fill:#C4C4C4;filter:url(#Adobe_OpacityMaskFilter_00000181045027142465170450000009326963261309077895_);" cx="319" cy="171" r="20"/>
</mask>
<g class="st90">
	<circle class="st91" cx="319" cy="171" r="20"/>
	
		<linearGradient id="SVGID_00000050637945464985534050000007486261040781733049_" gradientUnits="userSpaceOnUse" x1="313.2918" y1="205.0195" x2="315.0638" y2="184.2685" gradientTransform="matrix(1 0 0 -1 0 360)">
		<stop  offset="0" style="stop-color:#FFC285"/>
		<stop  offset="1" style="stop-color:#DB8D6B"/>
	</linearGradient>
	<path style="fill:url(#SVGID_00000050637945464985534050000007486261040781733049_);" d="M330.3,155.7l-0.1,0.2l-0.2,0.4l-0.1,0.2
		l-0.1,0.3c-3,7-8.7,12.1-12.5,15.7c-3.9,3.7-8.4,6.8-13.1,9.2c-4.7,2.3-6.9,0.2-6.3-3.6l0.5-1.9l2.3-9.8l0.1-0.5
		c1.6-6.4,4-10,11.9-12l12-2.9l0,0C328.9,149.9,331.8,151.3,330.3,155.7z"/>
	
		<linearGradient id="SVGID_00000015356497098703333260000017074952639774027655_" gradientUnits="userSpaceOnUse" x1="295.8513" y1="183.7744" x2="333.2523" y2="202.095" gradientTransform="matrix(1 0 0 -1 0 360)">
		<stop  offset="0" style="stop-color:#D67569"/>
		<stop  offset="1" style="stop-color:#E39E7F"/>
	</linearGradient>
	<path style="fill:url(#SVGID_00000015356497098703333260000017074952639774027655_);" d="M329.1,150.9c-3.8,0.6-10.9,5.2-18,12
		c-7.1,6.7-12.5,14.2-13,17.8c0.7,1.9,2.7,2.6,6.1,0.9c4.8-2.5,9.2-5.6,13.1-9.2c3.8-3.6,9.5-8.7,12.5-15.7l0.1-0.3l0.1-0.2l0.2-0.4
		l0.1-0.2C331.2,153.1,330.6,151.6,329.1,150.9z"/>
	<path class="st50" d="M317.8,169.9c6.9-6.5,11.4-12.9,10.2-14.2c-1.2-1.3-7.8,2.9-14.7,9.4c-6.9,6.5-11.4,12.9-10.2,14.2
		C304.3,180.6,310.9,176.4,317.8,169.9z"/>
	<path class="st94" d="M316.3,181.2l-1.8,1.3c-0.4,0.3-0.8,0.7-1.1,1.1c-0.3,0.5-0.4,1-0.5,1.5l-0.3,2.4l-3.2,2.9
		c-0.7,0.7-1.1,1.5-1.1,2.5l0,2.3c0,0,17.5,9.3,26.9,7.7c9.4-1.7,3.7-17.8,3.7-17.8c-0.1-0.2-0.2-0.3-0.4-0.4
		c-0.2-0.1-0.3-0.1-0.5-0.1l-2.8-0.2l-1.2-2.9c-0.1-0.3-0.3-0.5-0.5-0.7c-0.2-0.2-0.5-0.3-0.8-0.4l-8.2-1.7L316.3,181.2z"/>
	<path class="st95" d="M316.7,186.1c-2.5-0.5-2.3-0.4-1.6-1.6c0.4-0.7,1-1.3,1.7-1.7L316.7,186.1z"/>
	<path class="st96" d="M320.6,162.9c-0.3-0.3-2.8,1.5-5.6,4.1c-2.8,2.6-4.8,5-4.5,5.3c3.4,5.1,5.6,10,6.3,13.8l13.7,2.7
		C329.7,176.6,324,168.3,320.6,162.9z"/>
	<path class="st97" d="M325.8,173.7c-0.1-0.4-0.4-0.7-0.7-0.6c-0.3,0.1-0.4,0.5-0.3,0.9c0.1,0.4,0.4,0.7,0.7,0.6
		C325.7,174.5,325.9,174.1,325.8,173.7z"/>
	<path class="st97" d="M321.3,176.2c0.2-0.3,0.1-0.8-0.3-1.1c-0.4-0.3-0.9-0.3-1.1,0.1c-0.2,0.3-0.1,0.8,0.3,1.1
		C320.6,176.6,321.1,176.5,321.3,176.2z"/>
	<path class="st98" d="M324.1,180.4c1.1-0.6,2.2-1.1,2.7-1c0.5,0.1,0.3,1-0.3,2.1c-0.5,1-0.4,0.6-1.6,0.2
		C323.6,181.4,323.2,180.9,324.1,180.4z"/>
	<path class="st99" d="M324.6,180.2l-0.9,0.6c0,0.4,0.5,0.7,1.2,0.9c0.6,0.2,1.4,0.2,1.6-0.2l0.2-0.5
		C326.4,180.8,325.5,180.1,324.6,180.2z"/>
	<path class="st2" d="M326.3,179.4c-0.8,0.3-1.5,0.6-2.2,1c-0.5,0.2-0.5,0.5-0.2,0.8l2.6-1.2C326.6,179.9,326.5,179.6,326.3,179.4z"
		/>
	<path class="st50" d="M329.6,175.9c0-0.1,0-0.1,0-0.2c0-0.4-0.2-0.7-0.5-1c-0.3-0.3-0.6-0.5-1-0.6c0.1,0.1,0.2,0.2,0.2,0.3
		s0.1,0.2,0.1,0.4s0,0.2-0.1,0.3c-0.1,0.1-0.1,0.2-0.2,0.3c-0.4,0.2-0.8,0.3-1.2,0.4c-0.5,0.1-1.1,0.2-1.6,0.5
		c-0.5,0.3-0.9,0.7-1.2,1.1c-1.9-0.1-2.6,1.1-4,1.8c-0.4,0.2-0.8,0.3-1.2,0.4c-1.4,0.2-1.6-0.3-1.6-1.1c-1.5,1.2-0.6,2.9,0.6,3.4
		c0.7,0.3,1.6,0.2,2.6-0.6c2.4,0.6,3.2,0.3,4.6-2c2.3,0.6,3.7-0.3,3.8-2.4c0.2-0.1,0.4-0.2,0.5-0.4
		C329.5,176.3,329.6,176.1,329.6,175.9z"/>
	<path class="st100" d="M325.1,179.3c2.3,0.6,3.7-0.3,3.8-2.4c0.2-0.1,0.4-0.2,0.5-0.4c0.1-0.2,0.2-0.4,0.2-0.6c0-0.1,0-0.1,0-0.2
		c0-0.2-0.1-0.4-0.2-0.6c0,0.3-0.1,0.6-0.3,0.9c-0.2,0.3-0.5,0.4-0.8,0.5c-0.7,1.5-2,1.8-3.6,1.5c0,0-1.8,2.5-4.2,1.9
		c-1.7,1.4-3.6,1.2-4-0.1c0,0.5,0.1,0.9,0.3,1.3c0.2,0.4,0.6,0.7,1,0.8c0.7,0.3,1.6,0.2,2.6-0.6
		C322.9,181.9,323.7,181.5,325.1,179.3z"/>
</g>
</svg>
